<?xml version="1.0" encoding="UTF-8" standalone="no"?>
<!-- Created with Inkscape (http://www.inkscape.org/) -->

<svg
   xmlns:dc="http://purl.org/dc/elements/1.1/"
   xmlns:cc="http://creativecommons.org/ns#"
   xmlns:rdf="http://www.w3.org/1999/02/22-rdf-syntax-ns#"
   xmlns:svg="http://www.w3.org/2000/svg"
   xmlns="http://www.w3.org/2000/svg"
   xmlns:sodipodi="http://sodipodi.sourceforge.net/DTD/sodipodi-0.dtd"
   xmlns:inkscape="http://www.inkscape.org/namespaces/inkscape"
   width="180"
   height="36"
   viewBox="0 0 47.624999 9.5250003"
   version="1.1"
   id="svg8"
   inkscape:version="0.92.1 r15371"
   sodipodi:docname="protip.svg">
  <defs
     id="defs2">
    <clipPath
       clipPathUnits="userSpaceOnUse"
       id="clipPath5108">
      <rect
         style="color:#000000;clip-rule:nonzero;display:inline;overflow:visible;visibility:visible;opacity:1;isolation:auto;mix-blend-mode:normal;color-interpolation:sRGB;color-interpolation-filters:linearRGB;solid-color:#000000;solid-opacity:1;fill:#ffffff;fill-opacity:1;fill-rule:evenodd;stroke:none;stroke-width:0.52916664;stroke-linecap:butt;stroke-linejoin:miter;stroke-miterlimit:4;stroke-dasharray:none;stroke-dashoffset:0;stroke-opacity:1;color-rendering:auto;image-rendering:auto;shape-rendering:auto;text-rendering:auto;enable-background:accumulate"
         id="rect5110"
         width="13.229167"
         height="8.9958334"
         x="17.4625"
         y="156.04062" />
    </clipPath>
    <clipPath
       clipPathUnits="userSpaceOnUse"
       id="clipPath5239">
      <rect
         y="15.760699"
         x="-231.24432"
         height="34"
         width="49.999996"
         id="rect5241"
         style="color:#000000;clip-rule:nonzero;display:inline;overflow:visible;visibility:visible;opacity:1;isolation:auto;mix-blend-mode:normal;color-interpolation:sRGB;color-interpolation-filters:linearRGB;solid-color:#000000;solid-opacity:1;fill:#ffffff;fill-opacity:1;fill-rule:evenodd;stroke:none;stroke-width:1.99999988;stroke-linecap:butt;stroke-linejoin:miter;stroke-miterlimit:4;stroke-dasharray:none;stroke-dashoffset:0;stroke-opacity:1;color-rendering:auto;image-rendering:auto;shape-rendering:auto;text-rendering:auto;enable-background:accumulate" />
    </clipPath>
    <clipPath
       clipPathUnits="userSpaceOnUse"
       id="clipPath5018">
      <rect
         style="color:#000000;clip-rule:nonzero;display:inline;overflow:visible;visibility:visible;opacity:1;isolation:auto;mix-blend-mode:normal;color-interpolation:sRGB;color-interpolation-filters:linearRGB;solid-color:#000000;solid-opacity:1;fill:#ffffff;fill-opacity:1;fill-rule:evenodd;stroke:none;stroke-width:0.52916664;stroke-linecap:butt;stroke-linejoin:miter;stroke-miterlimit:4;stroke-dasharray:none;stroke-dashoffset:0;stroke-opacity:1;color-rendering:auto;image-rendering:auto;shape-rendering:auto;text-rendering:auto;enable-background:accumulate"
         id="rect5020"
         width="72.363419"
         height="49.194481"
         x="-442.39182"
         y="-152.21417"
         transform="matrix(0.76595196,0.64289781,-0.64293016,0.76592481,0,0)" />
    </clipPath>
    <clipPath
       clipPathUnits="userSpaceOnUse"
       id="clipPath5326">
      <rect
         style="color:#000000;clip-rule:nonzero;display:inline;overflow:visible;visibility:visible;opacity:1;isolation:auto;mix-blend-mode:normal;color-interpolation:sRGB;color-interpolation-filters:linearRGB;solid-color:#000000;solid-opacity:1;fill:#ffffff;fill-opacity:1;fill-rule:evenodd;stroke:none;stroke-width:4.16032791;stroke-linecap:butt;stroke-linejoin:miter;stroke-miterlimit:4;stroke-dasharray:none;stroke-dashoffset:0;stroke-opacity:1;color-rendering:auto;image-rendering:auto;shape-rendering:auto;text-rendering:auto;enable-background:accumulate"
         id="rect5328"
         width="124.80984"
         height="70.725578"
         x="13.720113"
         y="21.59317" />
    </clipPath>
    <clipPath
       clipPathUnits="userSpaceOnUse"
       id="clipPath5407">
      <rect
         style="color:#000000;clip-rule:nonzero;display:inline;overflow:visible;visibility:visible;opacity:1;isolation:auto;mix-blend-mode:normal;color-interpolation:sRGB;color-interpolation-filters:linearRGB;solid-color:#000000;solid-opacity:1;fill:#ffffff;fill-opacity:1;fill-rule:evenodd;stroke:none;stroke-width:0.61937374;stroke-linecap:butt;stroke-linejoin:miter;stroke-miterlimit:4;stroke-dasharray:none;stroke-dashoffset:0;stroke-opacity:1;color-rendering:auto;image-rendering:auto;shape-rendering:auto;text-rendering:auto;enable-background:accumulate"
         id="rect5409"
         width="18.123959"
         height="8.9958334"
         x="87.973961"
         y="200.60277" />
    </clipPath>
  </defs>
  <sodipodi:namedview
     id="base"
     pagecolor="#ffffff"
     bordercolor="#666666"
     borderopacity="1.0"
     inkscape:pageopacity="0.0"
     inkscape:pageshadow="2"
     inkscape:zoom="3.959798"
     inkscape:cx="127.41657"
     inkscape:cy="24.522359"
     inkscape:document-units="px"
     inkscape:current-layer="layer1"
     showgrid="false"
     units="px"
     inkscape:window-width="1680"
     inkscape:window-height="987"
     inkscape:window-x="-8"
     inkscape:window-y="-8"
     inkscape:window-maximized="1" />
  <metadata
     id="metadata5">
    <rdf:RDF>
      <cc:Work
         rdf:about="">
        <dc:format>image/svg+xml</dc:format>
        <dc:type
           rdf:resource="http://purl.org/dc/dcmitype/StillImage" />
        <dc:title></dc:title>
      </cc:Work>
    </rdf:RDF>
  </metadata>
  <g
     inkscape:label="Layer 1"
     inkscape:groupmode="layer"
     id="layer1"
     transform="translate(0,-287.47498)">
    <rect
       ry="1.3229166"
       rx="1.3229166"
       y="290.38541"
       x="0"
       height="6.614583"
       width="47.625"
       id="rect4738"
       style="color:#000000;clip-rule:nonzero;display:inline;overflow:visible;visibility:visible;opacity:1;isolation:auto;mix-blend-mode:normal;color-interpolation:sRGB;color-interpolation-filters:linearRGB;solid-color:#000000;solid-opacity:1;fill:#800080;fill-opacity:1;fill-rule:evenodd;stroke:none;stroke-width:0.99999994;stroke-linecap:butt;stroke-linejoin:miter;stroke-miterlimit:4;stroke-dasharray:none;stroke-dashoffset:0;stroke-opacity:1;color-rendering:auto;image-rendering:auto;shape-rendering:auto;text-rendering:auto;enable-background:accumulate" />
    <text
       id="text4742"
       y="295.00287"
       x="31.662926"
       style="font-style:normal;font-variant:normal;font-weight:bold;font-stretch:normal;font-size:3.66805744px;line-height:2;font-family:'Open Sans';-inkscape-font-specification:'Open Sans Bold';font-variant-ligatures:normal;font-variant-caps:normal;font-variant-numeric:normal;font-feature-settings:normal;text-align:center;letter-spacing:0px;word-spacing:0px;writing-mode:lr-tb;text-anchor:middle;fill:#ffffff;fill-opacity:1;stroke:none;stroke-width:0.26458332px;stroke-linecap:butt;stroke-linejoin:miter;stroke-opacity:1"
       xml:space="preserve"><tspan
         style="font-style:normal;font-variant:normal;font-weight:bold;font-stretch:normal;font-family:'Open Sans';-inkscape-font-specification:'Open Sans Bold';fill:#ffffff;stroke-width:0.26458332px"
         y="295.00287"
         x="31.662926"
         id="tspan4740"
         sodipodi:role="line">PROTIP</tspan></text>
    <g
       id="g5405"
       transform="translate(-82.36627,86.872227)"
       clip-path="url(#clipPath5407)">
      <path
         sodipodi:nodetypes="sssss"
         inkscape:connector-curvature="0"
         id="path4510-9"
         d="m 90.518992,208.36519 c 0.30573,-0.71315 0.62322,-0.57803 1.014922,-0.38993 0.443883,0.2132 2.621568,2.84812 2.604234,3.43572 -0.01733,0.58759 -1.45447,0.12557 -2.523031,-0.43367 -1.066726,-0.55834 -1.48297,-1.70975 -1.096125,-2.61212 z"
         style="display:inline;opacity:1;fill:#800080;fill-opacity:1;fill-rule:evenodd;stroke:none;stroke-width:0.08356194px;stroke-linecap:butt;stroke-linejoin:miter;stroke-opacity:1" />
      <path
         style="display:inline;opacity:1;fill:#ffffff;fill-rule:evenodd;stroke:none;stroke-width:0.08356194px;stroke-linecap:butt;stroke-linejoin:miter;stroke-opacity:1"
         d="m 89.537365,207.78913 c 0.25118,-0.58593 0.512023,-0.47491 0.833833,-0.32036 0.364689,0.17513 3.033487,3.21492 3.019251,3.69766 -0.01424,0.48276 -1.194958,0.10318 -2.072861,-0.35629 -0.87643,-0.45864 -2.098049,-2.27964 -1.780223,-3.02101 z"
         id="path4512"
         inkscape:connector-curvature="0"
         sodipodi:nodetypes="sssss" />
      <path
         sodipodi:nodetypes="ssccsccss"
         inkscape:connector-curvature="0"
         id="path4520"
         d="m 96.155217,204.38441 c -0.413261,0.0333 -0.909892,0.33545 -0.951468,0.60248 -0.0949,0.60958 0.08861,2.32944 -0.234082,2.90027 -0.614744,1.18862 1.172802,2.04979 2.154133,1.9946 0.386359,-0.0462 0.866348,-0.0805 1.462605,-0.35702 0.276111,-0.12802 0.543178,-1.0965 0.04821,-1.58252 0.45933,-0.3402 0.392876,-1.18231 -0.06374,-1.48728 0,0 0.66368,-0.80588 0.204439,-1.20126 -1.34762,-1.1603 -2.245893,-0.8994 -2.620077,-0.86926 z"
         style="display:inline;opacity:1;fill:#800080;fill-opacity:1;fill-rule:evenodd;stroke:none;stroke-width:0.08356194px;stroke-linecap:butt;stroke-linejoin:miter;stroke-opacity:1" />
      <path
         sodipodi:nodetypes="ccsssc"
         inkscape:connector-curvature="0"
         id="path4534"
         d="m 92.395071,204.04276 c 0.99017,-1.34582 6.472786,-3.86961 8.085779,-3.36907 0.77626,0.28184 1.03151,1.12105 0.85317,1.45488 -0.49386,0.92452 -2.507185,1.74835 -3.694764,2.23155 -1.187582,0.4832 -2.231786,1.41499 -3.051342,1.11034 -0.745391,-0.27718 -2.441345,-0.67224 -2.192843,-1.4277 z"
         style="display:inline;opacity:1;fill:#800080;fill-opacity:1;fill-rule:evenodd;stroke:none;stroke-width:0.10467369px;stroke-linecap:butt;stroke-linejoin:miter;stroke-opacity:1" />
      <path
         style="display:inline;opacity:1;fill:#ffffff;fill-rule:evenodd;stroke:none;stroke-width:0.08356194px;stroke-linecap:butt;stroke-linejoin:miter;stroke-opacity:1"
         d="m 94.497055,203.22148 c 0.901979,-0.7477 4.427124,-2.15348 5.501052,-2.03934 0.705983,0.075 0.900223,0.7084 0.783783,0.90755 -0.32247,0.55157 -2.772118,1.62095 -3.545985,1.72997 -0.757236,0.10671 -1.917986,0.9013 -2.063438,0.58872 -0.245193,-0.52691 -0.596914,-0.94405 -0.675412,-1.1869 z"
         id="path4536"
         inkscape:connector-curvature="0"
         sodipodi:nodetypes="cssssc" />
      <path
         sodipodi:nodetypes="csssssssc"
         inkscape:connector-curvature="0"
         id="path4514"
         d="m 90.468172,205.91158 c 0.944733,-2.50003 1.261333,-2.69173 2.001024,-3.03582 0.739683,-0.34409 1.859889,-0.058 2.208366,0.18506 0.951662,0.66373 1.369617,5.55524 1.401367,6.76664 0.01409,0.53788 0.230107,1.1651 -0.585828,1.14789 -0.815941,-0.0172 -1.558059,-0.0834 -2.20556,-0.51185 -0.375195,-0.24777 -0.836732,-1.01369 -1.575248,-1.79759 -0.717341,-0.76147 -1.244121,-0.64402 -1.244121,-2.75428 z"
         style="display:inline;opacity:1;fill:#800080;fill-opacity:1;fill-rule:evenodd;stroke:none;stroke-width:0.08915093px;stroke-linecap:butt;stroke-linejoin:miter;stroke-opacity:1" />
      <path
         sodipodi:nodetypes="sssss"
         inkscape:connector-curvature="0"
         id="path4522"
         d="m 96.992765,205.70566 c 0.989079,0.001 1.443016,0.71958 1.737509,-0.0659 0.18444,-0.49188 -0.988202,-1.15392 -1.564529,-1.22488 -0.356044,-0.0439 -1.465135,0.16136 -1.621706,0.73733 -0.25199,0.92699 0.842583,0.55265 1.448726,0.55345 z"
         style="display:inline;opacity:1;fill:#ffffff;fill-rule:evenodd;stroke:none;stroke-width:0.08356194px;stroke-linecap:butt;stroke-linejoin:miter;stroke-opacity:1" />
      <path
         style="display:inline;opacity:1;fill:#ffffff;fill-rule:evenodd;stroke:none;stroke-width:0.08356194px;stroke-linecap:butt;stroke-linejoin:miter;stroke-opacity:1"
         d="m 95.432326,206.62231 c -0.251988,0.927 0.997848,0.55419 1.603928,0.55514 0.989076,0.001 1.433771,0.83377 1.728256,0.0482 0.184448,-0.49191 -1.034962,-1.0136 -1.611295,-1.08457 -0.356042,-0.0438 -1.564351,-0.0947 -1.72091,0.48126 z"
         id="path4526"
         inkscape:connector-curvature="0"
         sodipodi:nodetypes="cssssc" />
      <path
         style="display:inline;opacity:1;fill:#ffffff;fill-rule:evenodd;stroke:none;stroke-width:0.08099756px;stroke-linecap:butt;stroke-linejoin:miter;stroke-opacity:1"
         d="m 95.047095,208.20103 c -0.251982,0.871 1.18499,0.93181 1.791111,0.93261 0.989083,9.4e-4 1.374775,0.1943 1.66927,-0.54381 0.184441,-0.46215 -0.784834,-0.89911 -1.361171,-0.96576 -0.356041,-0.0412 -1.942651,0.0358 -2.09921,0.57696 z"
         id="path4528"
         inkscape:connector-curvature="0"
         sodipodi:nodetypes="sssss" />
      <path
         sodipodi:nodetypes="csssssssc"
         inkscape:connector-curvature="0"
         id="path4516-9"
         d="m 94.505684,207.56584 c 0.08712,0.32629 0.139649,1.36119 0.362883,1.4887 0.223252,0.12746 1.180283,0.24831 1.323616,0.49983 0.143286,0.25167 0.03216,0.99074 -0.621095,1.12402 -0.65327,0.1333 -1.563437,0.0822 -2.488425,-0.91114 -0.925173,-0.99293 -0.939129,-1.01787 -0.874297,-1.57597 0.06486,-0.55815 1.042514,-1.19511 1.399282,-1.2096 0.331593,-0.0136 0.811001,0.25752 0.898177,0.58371 z"
         style="display:inline;opacity:1;fill:#ffffff;fill-rule:evenodd;stroke:none;stroke-width:0.10257171px;stroke-linecap:butt;stroke-linejoin:miter;stroke-opacity:1" />
      <path
         sodipodi:nodetypes="sssss"
         inkscape:connector-curvature="0"
         id="path4530"
         d="m 90.766337,206.79849 c -0.04954,-0.40152 0.985502,-2.79012 1.399484,-3.03885 0.413994,-0.24875 1.045721,1.33106 1.133165,2.31807 0.08729,0.98533 -0.517003,2.24133 -1.404591,2.00951 -0.698629,-0.18247 -1.084327,-0.93444 -1.128058,-1.28873 z"
         style="display:inline;opacity:1;fill:#ffffff;fill-rule:evenodd;stroke:none;stroke-width:0.08356194px;stroke-linecap:butt;stroke-linejoin:miter;stroke-opacity:1" />
      <path
         style="display:inline;opacity:1;fill:#ffffff;fill-rule:evenodd;stroke:none;stroke-width:0.08356194px;stroke-linecap:butt;stroke-linejoin:miter;stroke-opacity:1"
         d="m 92.237765,203.64385 c 0.461542,-0.43973 1.994585,-0.3959 2.229575,-0.12714 0.266303,0.30455 1.039785,3.06132 0.557453,3.08593 -1.096438,0.056 -1.227535,-0.21656 -1.84908,-1.28661 -0.49685,-0.85534 -1.521941,-1.11576 -0.937948,-1.67218 z"
         id="path4532"
         inkscape:connector-curvature="0"
         sodipodi:nodetypes="sssss" />
    </g>
  </g>
</svg>
