<?xml version="1.0" encoding="UTF-8" standalone="no"?>
<!-- Created with Inkscape (http://www.inkscape.org/) -->

<svg
   xmlns:dc="http://purl.org/dc/elements/1.1/"
   xmlns:cc="http://creativecommons.org/ns#"
   xmlns:rdf="http://www.w3.org/1999/02/22-rdf-syntax-ns#"
   xmlns:svg="http://www.w3.org/2000/svg"
   xmlns="http://www.w3.org/2000/svg"
   xmlns:sodipodi="http://sodipodi.sourceforge.net/DTD/sodipodi-0.dtd"
   xmlns:inkscape="http://www.inkscape.org/namespaces/inkscape"
   width="180"
   height="36"
   viewBox="0 0 47.624999 9.5250003"
   version="1.1"
   id="svg8"
   inkscape:version="0.92.1 r15371"
   sodipodi:docname="knowledge.svg">
  <defs
     id="defs2">
    <clipPath
       clipPathUnits="userSpaceOnUse"
       id="clipPath5108">
      <rect
         style="color:#000000;clip-rule:nonzero;display:inline;overflow:visible;visibility:visible;opacity:1;isolation:auto;mix-blend-mode:normal;color-interpolation:sRGB;color-interpolation-filters:linearRGB;solid-color:#000000;solid-opacity:1;fill:#ffffff;fill-opacity:1;fill-rule:evenodd;stroke:none;stroke-width:0.52916664;stroke-linecap:butt;stroke-linejoin:miter;stroke-miterlimit:4;stroke-dasharray:none;stroke-dashoffset:0;stroke-opacity:1;color-rendering:auto;image-rendering:auto;shape-rendering:auto;text-rendering:auto;enable-background:accumulate"
         id="rect5110"
         width="13.229167"
         height="8.9958334"
         x="17.4625"
         y="156.04062" />
    </clipPath>
    <clipPath
       clipPathUnits="userSpaceOnUse"
       id="clipPath5239">
      <rect
         y="15.760699"
         x="-231.24432"
         height="34"
         width="49.999996"
         id="rect5241"
         style="color:#000000;clip-rule:nonzero;display:inline;overflow:visible;visibility:visible;opacity:1;isolation:auto;mix-blend-mode:normal;color-interpolation:sRGB;color-interpolation-filters:linearRGB;solid-color:#000000;solid-opacity:1;fill:#ffffff;fill-opacity:1;fill-rule:evenodd;stroke:none;stroke-width:1.99999988;stroke-linecap:butt;stroke-linejoin:miter;stroke-miterlimit:4;stroke-dasharray:none;stroke-dashoffset:0;stroke-opacity:1;color-rendering:auto;image-rendering:auto;shape-rendering:auto;text-rendering:auto;enable-background:accumulate" />
    </clipPath>
    <clipPath
       clipPathUnits="userSpaceOnUse"
       id="clipPath5018">
      <rect
         style="color:#000000;clip-rule:nonzero;display:inline;overflow:visible;visibility:visible;opacity:1;isolation:auto;mix-blend-mode:normal;color-interpolation:sRGB;color-interpolation-filters:linearRGB;solid-color:#000000;solid-opacity:1;fill:#ffffff;fill-opacity:1;fill-rule:evenodd;stroke:none;stroke-width:0.52916664;stroke-linecap:butt;stroke-linejoin:miter;stroke-miterlimit:4;stroke-dasharray:none;stroke-dashoffset:0;stroke-opacity:1;color-rendering:auto;image-rendering:auto;shape-rendering:auto;text-rendering:auto;enable-background:accumulate"
         id="rect5020"
         width="72.363419"
         height="49.194481"
         x="-442.39182"
         y="-152.21417"
         transform="matrix(0.76595196,0.64289781,-0.64293016,0.76592481,0,0)" />
    </clipPath>
    <clipPath
       clipPathUnits="userSpaceOnUse"
       id="clipPath5326">
      <rect
         style="color:#000000;clip-rule:nonzero;display:inline;overflow:visible;visibility:visible;opacity:1;isolation:auto;mix-blend-mode:normal;color-interpolation:sRGB;color-interpolation-filters:linearRGB;solid-color:#000000;solid-opacity:1;fill:#ffffff;fill-opacity:1;fill-rule:evenodd;stroke:none;stroke-width:4.16032791;stroke-linecap:butt;stroke-linejoin:miter;stroke-miterlimit:4;stroke-dasharray:none;stroke-dashoffset:0;stroke-opacity:1;color-rendering:auto;image-rendering:auto;shape-rendering:auto;text-rendering:auto;enable-background:accumulate"
         id="rect5328"
         width="124.80984"
         height="70.725578"
         x="13.720113"
         y="21.59317" />
    </clipPath>
  </defs>
  <sodipodi:namedview
     id="base"
     pagecolor="#ffffff"
     bordercolor="#666666"
     borderopacity="1.0"
     inkscape:pageopacity="0.0"
     inkscape:pageshadow="2"
     inkscape:zoom="3.959798"
     inkscape:cx="127.41657"
     inkscape:cy="24.522359"
     inkscape:document-units="px"
     inkscape:current-layer="layer1"
     showgrid="false"
     units="px"
     inkscape:window-width="1680"
     inkscape:window-height="987"
     inkscape:window-x="-8"
     inkscape:window-y="-8"
     inkscape:window-maximized="1" />
  <metadata
     id="metadata5">
    <rdf:RDF>
      <cc:Work
         rdf:about="">
        <dc:format>image/svg+xml</dc:format>
        <dc:type
           rdf:resource="http://purl.org/dc/dcmitype/StillImage" />
        <dc:title></dc:title>
      </cc:Work>
    </rdf:RDF>
  </metadata>
  <g
     inkscape:label="Layer 1"
     inkscape:groupmode="layer"
     id="layer1"
     transform="translate(0,-287.47498)">
    <rect
       style="color:#000000;clip-rule:nonzero;display:inline;overflow:visible;visibility:visible;opacity:1;isolation:auto;mix-blend-mode:normal;color-interpolation:sRGB;color-interpolation-filters:linearRGB;solid-color:#000000;solid-opacity:1;fill:#0055d4;fill-opacity:1;fill-rule:evenodd;stroke:none;stroke-width:0.99999994;stroke-linecap:butt;stroke-linejoin:miter;stroke-miterlimit:4;stroke-dasharray:none;stroke-dashoffset:0;stroke-opacity:1;color-rendering:auto;image-rendering:auto;shape-rendering:auto;text-rendering:auto;enable-background:accumulate"
       id="rect4744"
       width="47.625"
       height="6.614583"
       x="0"
       y="290.38541"
       rx="1.3229166"
       ry="1.3229166" />
    <text
       xml:space="preserve"
       style="font-style:normal;font-variant:normal;font-weight:bold;font-stretch:normal;font-size:3.66805744px;line-height:2;font-family:'Open Sans';-inkscape-font-specification:'Open Sans Bold';font-variant-ligatures:normal;font-variant-caps:normal;font-variant-numeric:normal;font-feature-settings:normal;text-align:center;letter-spacing:0px;word-spacing:0px;writing-mode:lr-tb;text-anchor:middle;fill:#ffffff;fill-opacity:1;stroke:none;stroke-width:0.26458332px;stroke-linecap:butt;stroke-linejoin:miter;stroke-opacity:1"
       x="31.475838"
       y="295.00287"
       id="text4748"><tspan
         sodipodi:role="line"
         id="tspan4746"
         x="31.475838"
         y="295.00287"
         style="font-style:normal;font-variant:normal;font-weight:bold;font-stretch:normal;font-family:'Open Sans';-inkscape-font-specification:'Open Sans Bold';fill:#ffffff;stroke-width:0.26458332px">KNOWLEDGE</tspan></text>
    <g
       id="g5320"
       transform="matrix(0.12719349,0,0,0.12719349,1.5106765,284.72846)"
       clip-path="url(#clipPath5326)">
      <ellipse
         style="fill:#0055d4;fill-opacity:1;stroke-width:1.71434581"
         id="path3523"
         cx="66.404274"
         cy="71.110023"
         rx="49.519154"
         ry="49.516777" />
      <ellipse
         ry="45.15007"
         rx="45.152241"
         cy="71.110023"
         cx="66.409409"
         id="ellipse5443"
         style="fill:#ffffff;fill-opacity:1;stroke-width:1.56316388" />
      <path
         d="m 62.89171,115.67376 c -2.844886,-0.32355 -6.196078,-0.97834 -6.36356,-1.24796 -0.101879,-0.16176 0.361205,-0.40829 1.02882,-0.53155 1.596872,-0.30812 1.623885,-0.30812 4.065887,-0.0154 1.388483,0.16947 2.18962,0.11556 2.357874,-0.15407 0.17906,-0.29273 0.693085,-0.2388 1.740429,0.18488 1.332141,0.53154 2.373309,0.55464 4.101388,0.0924 0.328021,-0.0847 0.516341,0.0693 0.452281,0.36977 -0.07641,0.36206 0.09106,0.42368 0.562647,0.23111 0.368925,-0.16178 1.176237,-0.26193 1.794456,-0.2234 l 1.123752,0.0616 -0.903015,-0.63939 -0.902243,-0.63168 0.857478,-0.31585 c 0.54644,-0.20029 1.046572,-0.16176 1.379221,0.11556 0.670701,0.55466 5.279941,0.15406 7.130738,-0.61629 0.733218,-0.30041 1.860829,-0.56234 2.50529,-0.57003 0.64446,-0.008 1.589152,-0.25422 2.106265,-0.54696 1.041942,-0.59316 1.875495,-0.70872 1.875495,-0.26963 0,0.33896 -3.67381,1.9721 -6.93084,3.08139 -4.424005,1.50988 -12.51796,2.2417 -17.982363,1.62543 z m 10.006494,-6.00099 c -1.346032,-0.55465 -2.097774,-1.88736 -1.488817,-2.64229 0.266273,-0.33123 0.22614,-0.4699 -0.13661,-0.4699 -0.361206,-0.008 -0.385905,-0.0924 -0.08259,-0.28503 0.237717,-0.14638 0.54567,-1.10929 0.685367,-2.14157 0.139697,-1.02455 0.474661,-2.62686 0.74325,-3.55128 0.269362,-0.924417 0.487011,-2.018307 0.483924,-2.434292 -0.0062,-0.785751 0.321845,-3.281668 0.704661,-5.353896 0.30718,-1.663945 -0.432211,-2.950421 -2.212002,-3.851726 -0.788787,-0.408282 -1.526638,-1.024558 -1.638549,-1.371212 -0.557245,-1.740979 -1.852341,-4.349368 -2.88502,-5.806091 -1.007211,-1.422055 -0.319528,-4.461838 1.346034,-5.946292 1.004896,-0.895141 1.177007,-1.286476 1.075901,-2.453548 -0.0656,-0.763412 -0.255468,-1.472129 -0.421407,-1.575355 -0.166711,-0.102457 -0.318757,-0.355129 -0.338052,-0.560812 -0.02007,-0.205682 -0.24698,-0.373617 -0.503992,-0.373617 -0.257784,0 -0.427582,0.205682 -0.378185,0.456815 0.117315,0.593166 -2.128648,0.178719 -2.831765,-0.522295 -0.273221,-0.272701 -0.652951,-0.496103 -0.844359,-0.496103 -0.191409,0 -0.348084,-0.222628 -0.348084,-0.49533 0,-0.801159 -1.581437,-2.019845 -2.996934,-2.308723 -0.720868,-0.147138 -1.680227,-0.606262 -2.132507,-1.019937 -0.550298,-0.503806 -1.44714,-0.785751 -2.720625,-0.854313 -1.951901,-0.105537 -3.959376,-1.059224 -3.565753,-1.693989 0.121944,-0.197208 -0.283254,-0.358211 -0.902244,-0.358211 -1.403921,0 -1.836904,-0.626288 -0.924627,-1.338858 0.381273,-0.297354 0.509394,-0.496872 0.284797,-0.442178 -0.339594,0.08243 -1.779789,-1.377376 -2.853375,-2.892646 -0.1451,-0.205681 -0.77721,-0.96293 -1.403147,-1.682433 l -1.138418,-1.308816 0.587346,1.214835 c 0.323387,0.668658 0.73862,1.215604 0.923082,1.215604 0.184463,0 0.244663,0.235725 0.134296,0.523064 -0.11037,0.287339 -0.02084,0.633994 0.199125,0.769574 0.219967,0.136351 0.40057,0.51536 0.40057,0.844298 0,0.519212 -0.09725,0.509199 -0.749427,-0.08011 -0.412145,-0.372849 -0.749426,-0.909008 -0.749426,-1.191725 0,-0.282716 -0.257783,-0.613195 -0.573453,-0.734138 -0.349629,-0.134041 -0.489326,-0.481466 -0.358891,-0.89129 0.117315,-0.369765 0.03783,-0.780358 -0.175972,-0.912859 -0.214563,-0.132499 -0.390535,-0.542322 -0.390535,-0.911317 0,-0.369765 -0.405972,-1.109295 -0.902245,-1.643145 -1.376905,-1.482915 -1.755863,-3.877917 -0.933116,-5.901613 0.754828,-1.858072 0.9007,-3.331742 0.330335,-3.331742 -0.216106,0 -0.284026,-0.389023 -0.15745,-0.89437 0.12349,-0.491481 0.04244,-1.006072 -0.179831,-1.143193 -0.223823,-0.138661 -0.405199,0.01002 -0.405199,0.332789 0,0.320465 -0.175201,0.583153 -0.388991,0.583153 -0.213792,0 -0.355804,-0.379011 -0.316444,-0.841218 0.138156,-1.596925 -0.04631,-2.150032 -0.713921,-2.150032 -0.850533,0 -3.493205,1.332696 -3.879881,1.957446 -0.161308,0.259607 -0.425266,0.474533 -0.587346,0.477614 -0.162079,0.0024 -1.074357,0.542322 -2.02677,1.200197 -0.95241,0.657876 -1.830728,1.096971 -1.951902,0.976026 -0.120403,-0.120173 0.3203,-0.582379 0.980197,-1.026098 0.659896,-0.44449 1.258047,-1.137799 1.328281,-1.54223 0.07023,-0.403661 0.745568,-1.281084 1.501168,-1.948972 0.754829,-0.66789 1.055062,-1.103905 0.666072,-0.968324 -1.075901,0.373616 -0.56728,-0.708718 0.600466,-1.277234 0.52946,-0.257293 1.06278,-0.846608 1.186268,-1.308814 0.296376,-1.110838 2.884249,-2.892646 4.22488,-2.909594 0.585032,-0.007 2.075393,-0.228022 3.311831,-0.489939 1.236436,-0.261918 2.868811,-0.434474 3.627499,-0.383632 1.133786,0.07703 1.370731,-0.02773 1.328281,-0.587002 -0.04167,-0.552338 -0.1752,-0.603951 -0.706975,-0.271933 -0.361208,0.224942 -0.771809,0.292731 -0.913821,0.151759 -0.35812,-0.35744 0.569593,-1.397405 1.246469,-1.397405 0.325704,0 0.471576,-0.21955 0.351945,-0.529999 -0.134294,-0.349736 0.267818,-0.73799 1.177779,-1.137799 0.759461,-0.333559 1.044257,-0.529996 0.632112,-0.436017 -0.988687,0.224173 -3.206092,0.99991 -4.022666,1.405881 -0.357346,0.17795 -0.989458,0.324315 -1.40469,0.324315 -0.414461,0 -0.754058,0.147908 -0.754058,0.328938 0,0.325085 -2.670457,1.395094 -4.495783,1.801066 -0.81117,0.18026 -0.761003,0.08782 0.375099,-0.690999 4.055852,-2.783256 7.662513,-4.315472 13.220305,-5.618125 2.849517,-0.667889 4.623904,-0.810404 10.193274,-0.820418 6.720135,-0.01155 11.76236,0.590855 10.655586,1.273379 -0.277078,0.171018 -0.646003,0.224171 -0.818117,0.117863 -0.172884,-0.106308 -2.064586,-0.244199 -4.204039,-0.305826 -3.265523,-0.09475 -3.857499,-0.02619 -3.68307,0.426001 0.113454,0.296583 0.418319,0.458355 0.676875,0.359751 0.642917,-0.246511 3.668406,1.328845 5.625712,2.929622 0.88758,0.726435 1.755864,1.320371 1.92875,1.320371 0.173656,0 0.534091,0.349737 0.801907,0.777277 0.425268,0.680216 0.394395,0.80039 -0.24775,0.968325 -0.96476,0.251903 -1.227948,1.771793 -0.609729,3.519706 0.271678,0.768804 0.412147,1.479061 0.312583,1.578437 -0.342683,0.342032 -2.556228,-1.00299 -3.99951,-2.428899 -0.794964,-0.785752 -1.625429,-1.31729 -1.846168,-1.180938 -0.220736,0.136352 -0.292513,0.07241 -0.158992,-0.142515 0.132753,-0.214155 -0.01774,-0.603949 -0.334193,-0.865866 -0.315669,-0.261919 -0.487782,-0.701015 -0.382043,-0.976798 0.108053,-0.281946 -0.05403,-0.500725 -0.369697,-0.500725 -0.308724,0 -0.658353,-0.252672 -0.777212,-0.561582 -0.118858,-0.308136 -0.395166,-0.560811 -0.614359,-0.560811 -0.219193,0 -0.672245,-0.24651 -1.006438,-0.548485 -0.448421,-0.405202 -0.899157,-0.462977 -1.715731,-0.219549 -0.608956,0.181803 -0.882948,0.344346 -0.609728,0.362063 0.808084,0.05238 3.490118,2.982007 3.374346,3.6861 -0.05865,0.35513 0.0046,0.822729 0.139697,1.038426 0.135839,0.214927 0.09494,0.635535 -0.09185,0.934427 -0.288656,0.461438 -0.579627,0.416758 -1.941869,-0.299663 -0.882177,-0.462978 -1.888616,-0.841216 -2.236701,-0.841216 -0.848989,0.0015 -1.24184,-0.697163 -0.543353,-0.965243 0.306409,-0.117092 0.65295,-0.463748 0.771036,-0.769574 0.160536,-0.417526 0.02779,-0.497644 -0.53332,-0.319694 -0.549528,0.174097 -0.746338,0.06547 -0.746338,-0.412134 0,-0.35667 -0.111141,-0.537701 -0.246979,-0.40212 -0.135066,0.13558 -0.430669,0.09397 -0.655265,-0.09245 -0.282483,-0.234185 -0.407514,0.06471 -0.404428,0.966782 0.0031,0.853541 0.232315,1.43284 0.662984,1.673959 0.362749,0.201831 0.5804,0.495333 0.483924,0.650942 -0.09648,0.155609 0.279394,0.217237 0.835097,0.137121 0.681506,-0.09938 1.559053,0.223401 2.695927,0.989893 1.299724,0.875882 1.713413,1.010693 1.806802,0.587774 0.185235,-0.835825 0.535636,-0.679445 2.130963,0.951375 0.807312,0.82581 1.631603,1.445938 1.832274,1.378918 0.422951,-0.140204 1.40006,0.770345 2.302305,2.14387 0.631339,0.962161 1.547476,1.371984 1.099826,0.49302 -0.131208,-0.257295 0.111913,-0.0701 0.539494,0.415216 0.428353,0.485318 0.775667,1.1586 0.77258,1.49524 -0.0054,0.532308 -0.05403,0.539242 -0.368924,0.05238 -0.323388,-0.498412 -0.367381,-0.498412 -0.399025,0 -0.02393,0.385175 -0.09417,0.414448 -0.223824,0.09321 -0.302549,-0.747235 -1.925662,-0.583922 -1.864689,0.187195 0.03318,0.414444 -0.257013,0.697932 -0.791106,0.773425 -0.463084,0.06625 -0.842813,0.298895 -0.842813,0.516902 0,0.24728 -0.564192,0.322004 -1.498079,0.196437 -1.224089,-0.163311 -1.500397,-0.08705 -1.507342,0.418298 -0.0046,0.340492 -0.338053,1.039196 -0.740937,1.553786 -0.402884,0.513819 -0.736306,1.165532 -0.740936,1.448247 -0.007,0.434476 -0.10728,0.434476 -0.656809,0 -0.602782,-0.476072 -0.601239,-0.438326 0.01544,0.525376 0.731675,1.143963 0.60587,1.522203 -0.942378,2.822544 -1.056605,0.887438 -1.401605,2.418883 -0.649091,2.883402 0.550299,0.339722 1.154626,2.026776 0.882948,2.465872 -0.324931,0.524607 -1.309757,-0.403661 -1.884755,-1.775644 -0.355033,-0.84815 -0.811171,-1.230241 -1.674824,-1.402798 -1.839992,-0.367454 -2.590961,-0.283486 -2.590961,0.28965 0,0.338182 -0.262416,0.456814 -0.734762,0.33356 -0.848217,-0.22109 -3.126596,1.07463 -3.948572,2.245554 -0.72164,1.028412 -0.712379,2.260964 0.02934,3.82014 0.689996,1.451331 1.248785,1.737129 2.789316,1.429761 0.771807,-0.154069 1.194759,-0.503034 1.348348,-1.111608 0.122718,-0.487628 0.415234,-0.899762 0.650635,-0.91594 0.235402,-0.01542 0.72164,-0.08473 1.081303,-0.153298 0.977882,-0.187195 1.134558,0.395957 0.457683,1.701693 -0.332649,0.641696 -0.509392,1.262594 -0.392851,1.378916 0.116543,0.116321 0.01777,0.443719 -0.218421,0.727977 -0.355804,0.428311 -0.186777,0.490709 0.984055,0.361291 2.320056,-0.254984 2.778511,0.01155 2.756901,1.601546 -0.03705,2.683112 0.835868,3.800883 2.341667,2.996642 0.497043,-0.265768 0.948552,-0.264997 1.44714,7.72e-4 0.963989,0.515359 1.008753,0.506117 1.827642,-0.371308 0.388991,-0.416755 1.028049,-0.823498 1.419355,-0.902843 0.391308,-0.07858 1.033452,-0.271162 1.427846,-0.426002 0.503219,-0.198749 0.636742,-0.152528 0.446877,0.15407 -0.148959,0.241118 -0.09263,0.437555 0.125805,0.437555 0.217649,0 0.39671,-0.15792 0.39671,-0.351277 0,-0.193356 0.451507,-0.117862 1.00335,0.167937 0.551843,0.285796 1.167747,0.417525 1.369188,0.2935 0.200671,-0.124026 0.257012,-0.05007 0.124261,0.164084 -0.132749,0.213385 0.136611,0.489939 0.598152,0.613194 1.178551,0.31507 1.477242,0.288108 1.228719,-0.113242 -0.118087,-0.191815 -0.01775,-0.46991 0.223052,-0.618585 0.273992,-0.169477 0.338824,-0.108619 0.171342,0.161001 -0.248522,0.40135 0.27322,0.579299 1.556736,0.532308 0.257785,-0.01002 0.471575,0.258067 0.474664,0.594707 0.01004,0.858164 2.563176,2.871847 4.001054,3.154562 1.451,0.285798 2.732201,1.31729 2.732201,2.193943 0,0.352819 0.185234,0.753397 0.40134,0.888207 0.262417,0.161002 0.169799,0.524606 -0.270131,1.050751 -0.370468,0.442179 -0.432214,0.595477 -0.138926,0.341262 0.424495,-0.375927 0.972479,-0.217236 2.901999,0.841217 1.312074,0.717192 2.685894,1.304194 3.056361,1.304194 0.378187,0 0.97248,0.325086 1.335228,0.722583 0.362751,0.397499 0.8953,0.631684 1.180869,0.520754 0.385903,-0.145596 0.524828,0.1117 0.524828,0.929806 0,0.797307 -0.486238,1.706313 -1.667107,3.082151 -0.910732,1.070779 -1.775159,2.472807 -1.914084,3.112193 -0.385903,1.771793 -2.068445,3.905648 -3.442265,4.367856 -0.663754,0.223399 -1.211738,0.647089 -1.211738,0.932117 0,0.285027 -0.470805,0.824269 -1.034225,1.186331 -0.563419,0.362063 -1.335229,1.032261 -1.705696,1.494469 -1.839219,2.272519 -3.843606,3.867132 -4.67793,3.720762 -0.646776,-0.11556 -0.831237,0.008 -0.749427,0.48532 0.117315,0.69331 -0.689996,1.87964 -1.272712,1.87964 -0.194495,0 -1.269623,0.79345 -2.389517,1.75639 -1.35221,1.16322 -1.884758,1.84883 -1.58684,2.026 0.314899,0.2003 0.175202,0.50844 -0.468487,1.05538 -0.859022,0.72412 -0.87523,0.80116 -0.260871,1.27878 0.360435,0.28502 0.655265,0.60087 0.655265,0.70871 0,0.46991 -1.414724,0.48533 -2.543109,0.0232 z m -1.50734,-64.312246 c -0.270133,-0.107848 -0.593521,-0.09475 -0.717782,0.03004 -0.124261,0.124025 0.09648,0.212615 0.491642,0.195667 0.436072,-0.01771 0.52483,-0.106307 0.22614,-0.225712 z m 2.53925,-1.695531 c 0.007,-0.147906 -0.240034,-0.171785 -0.548756,-0.05393 -0.328791,0.126336 -0.564193,0.0046 -0.568052,-0.29196 -0.0046,-0.413677 -0.06714,-0.409826 -0.339595,0.01926 -0.202214,0.318924 -0.172884,0.878964 0.07563,1.422827 l 0.40906,0.895912 0.479291,-0.862016 c 0.263188,-0.473763 0.484696,-0.98219 0.492415,-1.130096 z m -11.975379,1.051522 c 0,-0.07472 -0.385132,-0.388253 -0.855937,-0.696392 -0.767948,-0.502265 -0.936203,-0.495331 -1.630059,0.06547 -0.751741,0.607803 -0.728586,0.627061 0.856708,0.695621 0.89607,0.03928 1.629288,0.01002 1.629288,-0.06472 z m -0.900702,-1.925092 c -0.679962,-0.496102 -0.681507,-0.531538 -0.0355,-0.779589 0.372011,-0.142513 1.308987,-0.09014 2.082339,0.115551 1.192443,0.318153 1.373047,0.28965 1.190129,-0.186422 -0.139698,-0.362833 -0.06174,-0.466058 0.219965,-0.291962 0.23926,0.147906 0.731674,0.09629 1.093652,-0.114009 0.598152,-0.348197 0.585803,-0.384403 -0.137381,-0.394418 -0.610501,-0.0086 -0.796507,-0.244969 -0.796507,-1.010693 0,-0.549256 -0.31567,-1.22947 -0.702347,-1.511415 -0.385904,-0.281947 -0.659895,-0.590085 -0.608183,-0.684067 0.259328,-0.472993 0.03165,-0.918252 -0.468488,-0.918252 -0.309496,0 -0.561876,-0.182572 -0.561876,-0.405201 0,-0.22263 -0.210704,-0.329708 -0.46849,-0.237266 -0.257783,0.09167 -0.767175,0.01386 -1.133014,-0.174098 -0.515567,-0.264999 -0.879861,-0.08628 -1.626199,0.799618 -0.528689,0.627061 -1.097511,1.056913 -1.26268,0.954458 -0.165937,-0.101687 -0.39748,0.06394 -0.514795,0.368994 -0.116543,0.304286 -0.09262,0.516901 0.0548,0.47068 0.146642,-0.04545 0.73862,0.392877 1.31439,0.972946 0.655265,0.660957 1.270397,0.970636 1.644724,0.827352 0.772579,-0.295813 2.066904,0.110929 1.786737,0.562352 -0.118087,0.191044 -0.467717,0.346654 -0.77644,0.346654 -0.329562,0 -0.451508,-0.177949 -0.294832,-0.431393 0.167484,-0.269621 0.102652,-0.329707 -0.171341,-0.161002 -0.240804,0.148676 -0.341139,0.427542 -0.223053,0.618587 0.118859,0.191816 0.03706,0.348196 -0.181374,0.348196 -0.217651,0 -0.396709,-0.168707 -0.396709,-0.374388 0,-0.657874 -1.40392,-0.399039 -1.585294,0.291962 -0.206075,0.785751 0.666841,1.780266 1.037309,1.182478 0.165938,-0.268851 0.385133,-0.268851 0.710064,0 0.257784,0.214157 0.5804,0.278094 0.715466,0.143284 0.135839,-0.135581 0.246979,-0.02234 0.246979,0.251904 0,0.274243 0.125805,0.372846 0.280166,0.218776 0.154361,-0.153298 -0.04012,-0.51382 -0.432213,-0.799617 z m 2.773881,-2.014452 c 0,-0.193357 0.166711,-0.454503 0.370467,-0.580069 0.212247,-0.13096 0.275536,0.01926 0.147415,0.352047 -0.249294,0.647861 -0.517882,0.766493 -0.517882,0.228022 z m -4.704945,-0.944443 c -0.399796,-0.301975 -0.530232,-0.554649 -0.289428,-0.560811 0.711608,-0.02003 1.623114,0.415986 1.623114,0.775738 0,0.489938 -0.507851,0.408283 -1.333686,-0.214927 z m 12.572759,3.646813 c 0,-0.04391 -0.319529,-0.251133 -0.710064,-0.459896 -0.506306,-0.270391 -0.81966,-0.247281 -1.092108,0.08088 -0.287115,0.345115 -0.111142,0.459124 0.710063,0.459124 0.600467,0 1.092109,-0.0362 1.092109,-0.08011 z M 66.076191,42.62503 c 0,-0.205683 -0.263187,-0.374389 -0.584259,-0.374389 -0.321072,0 -0.480064,0.168706 -0.352716,0.374389 0.127348,0.205681 0.390535,0.373616 0.584259,0.373616 0.193723,0 0.352716,-0.167935 0.352716,-0.373616 z m 1.311303,0 c -0.127349,-0.205683 -0.306408,-0.374389 -0.396709,-0.374389 -0.09106,0 -0.165939,0.168706 -0.165939,0.374389 0,0.205681 0.179058,0.373616 0.39748,0.373616 0.217651,0 0.292516,-0.167935 0.165168,-0.373616 z m -12.17605,-1.881954 c -0.474662,-0.317383 -0.402884,-0.51536 0.468488,-1.285706 0.566507,-0.499954 1.030364,-1.118541 1.030364,-1.373524 0,-0.254214 -0.239261,-0.136351 -0.531003,0.261917 -0.292517,0.399038 -0.657581,0.599328 -0.811943,0.44603 -0.154362,-0.154069 -0.08412,-0.280407 0.156677,-0.280407 0.240032,0 0.436844,-0.251902 0.436844,-0.56081 0,-0.725664 -0.708522,-0.727205 -0.987143,-0.0024 -0.118088,0.307368 -0.368925,0.464519 -0.556475,0.348196 -0.18832,-0.11555 -0.244662,-0.366683 -0.125805,-0.558499 0.118087,-0.191046 0.04631,-0.348196 -0.158992,-0.348196 -0.206073,0 -0.480836,0.171017 -0.6105,0.37978 -0.128892,0.209533 -0.409829,0.272702 -0.623621,0.140973 -0.250837,-0.154839 -0.208389,-0.354359 0.11963,-0.561581 0.413689,-0.261919 0.403656,-0.320464 -0.05403,-0.314302 -0.711608,0.01002 -2.607169,1.072321 -1.944958,1.09004 0.270133,0.007 0.395939,0.165624 0.280938,0.352045 -0.11577,0.186424 0.169798,0.260378 0.633656,0.163314 l 0.842814,-0.174869 -0.862882,0.514591 -0.863654,0.514591 1.040398,0.473762 c 0.75097,0.341264 1.07976,0.356671 1.180868,0.05393 0.101107,-0.302748 0.291743,-0.294273 0.683821,0.03004 0.437616,0.362832 0.448421,0.509967 0.05712,0.75802 -0.316442,0.200288 -0.09416,0.307366 0.637514,0.307366 0.87523,0 0.999491,-0.08243 0.561876,-0.374387 z m -1.419355,-1.335779 c -0.535635,-0.577758 -0.173657,-0.688687 0.616675,-0.188734 0.279393,0.17641 0.363521,0.409053 0.187548,0.516132 -0.176743,0.106308 -0.538722,-0.04083 -0.804223,-0.327398 z m 14.706036,-0.09165 c -0.210704,-0.221865 -0.923854,0.340487 -0.923854,0.728741 0,0.20106 0.236173,0.149446 0.524057,-0.115552 0.288657,-0.265769 0.468488,-0.541552 0.399797,-0.613194 z m -10.664076,0.544629 c 0,-0.08088 -0.261644,-0.247281 -0.581171,-0.369766 -0.333422,-0.127107 -0.483925,-0.06472 -0.352717,0.147136 0.219965,0.355129 0.933888,0.525374 0.933888,0.22263 z m -5.699804,-3.793949 c 0.324159,-0.281176 0.138154,-0.381321 -0.671474,-0.362062 -0.615131,0.01464 -1.413953,0.352047 -1.775159,0.750314 -0.643688,0.708719 -0.640602,0.70949 0.148187,0.05701 0.838183,-0.692541 1.522007,-0.308139 1.062008,0.597787 -0.130435,0.257296 -0.0062,0.214928 0.276308,-0.0932 0.281711,-0.308908 0.713922,-0.73568 0.96013,-0.949836 z m 3.077199,0.553877 c 0,-0.218007 -0.168254,-0.29196 -0.374327,-0.164853 -0.206073,0.127107 -0.374327,0.305057 -0.374327,0.395958 0,0.09014 0.168254,0.164853 0.374327,0.164853 0.206073,0 0.374327,-0.178719 0.374327,-0.395958 z m -1.973514,-2.8549 c -0.364293,-0.09475 -0.870598,-0.08859 -1.123753,0.01386 -0.253924,0.102457 0.044,0.180261 0.662212,0.172557 0.618219,-0.0077 0.825835,-0.09166 0.461541,-0.186423 z m 2.920523,-0.415988 c -0.115771,-0.115553 -0.417549,-7.71e-4 -0.672245,0.254984 -0.366609,0.368995 -0.324159,0.412134 0.209932,0.209533 0.369697,-0.140203 0.577313,-0.349737 0.462313,-0.464517 z m 4.298202,-0.46837 c 0,-0.193358 -0.14047,-0.352049 -0.312584,-0.352049 -0.17134,0 -0.311809,0.244971 -0.311809,0.544634 0,0.299665 0.140469,0.457586 0.311809,0.352049 0.172114,-0.106308 0.312584,-0.351278 0.312584,-0.544634 z m -1.502712,-0.733369 c -0.223052,-0.415986 -0.280938,-0.962932 -0.12889,-1.215604 0.174426,-0.288879 0.0386,-0.266539 -0.366611,0.06163 -0.602782,0.488398 -0.603554,0.564663 -0.01389,1.214834 0.820433,0.905155 1.014928,0.881274 0.509393,-0.06086 z m -1.900192,0.247276 c -0.08568,-0.07396 -0.662211,-0.247281 -1.28043,-0.385172 -0.820432,-0.183342 -0.971706,-0.148676 -0.561877,0.128648 0.506306,0.341262 2.218177,0.580068 1.842307,0.256524 z M 53.713364,31.37337 c 0.49936,-0.352818 0.49936,-0.379009 0,-0.231873 -0.309495,0.09014 -0.899157,-0.0086 -1.311301,-0.219549 -0.66993,-0.344343 -0.694629,-0.318923 -0.235403,0.237266 0.598925,0.724126 0.786473,0.750318 1.546704,0.214156 z m 1.873179,-0.515361 c 0,-0.347425 -0.218422,-0.465287 -0.593521,-0.322003 -0.477749,0.183342 -0.496272,0.288879 -0.09339,0.543863 0.665299,0.420609 0.686909,0.413676 0.68691,-0.22186 z m 9.889951,-0.198749 c 1.471841,0 -0.03473,-0.819646 -1.658615,-0.902072 -0.978653,-0.05008 -1.760494,-0.322004 -2.046063,-0.711029 -0.667615,-0.911318 -0.940835,-0.778819 -0.940835,0.456815 0,0.890519 0.131208,1.052291 0.726272,0.89668 0.399025,-0.103996 1.108316,0.07857 1.576804,0.405973 0.561876,0.392877 0.97711,0.46914 1.221773,0.22417 0.204529,-0.20337 0.70852,-0.370537 1.120664,-0.370537 z m -8.391871,0 c 0,-0.205681 -0.178287,-0.373615 -0.39671,-0.373615 -0.217648,0 -0.292515,0.167934 -0.165166,0.373615 0.127349,0.205685 0.306408,0.374388 0.396709,0.374388 0.09106,0 0.165167,-0.168703 0.165167,-0.374388 z m 10.185556,-3.62062 c -0.270905,-0.107848 -0.593521,-0.09475 -0.717783,0.02928 -0.125031,0.124795 0.09648,0.212614 0.491642,0.196439 0.436073,-0.01772 0.524831,-0.106308 0.226141,-0.225712 z m 9.930087,81.90308 c -0.399797,-0.39289 0.11114,-0.8782 0.931573,-0.8782 0.644459,0 0.695398,0.0924 0.307177,0.55466 -0.503989,0.60856 -0.861337,0.701 -1.23875,0.32354 z M 37.042302,99.851645 C 36.011939,98.6499 35.101205,97.73319 35.01785,97.810225 c -0.08259,0.07706 -0.550298,-0.392873 -1.039627,-1.055369 -0.908418,-1.232552 -2.171096,-2.11845 -3.045555,-2.14156 -0.270133,-0.0077 -0.390535,0.146365 -0.26859,0.346656 0.132752,0.215697 -0.23077,0.20029 -0.902243,-0.03082 -0.878318,-0.308138 -1.384624,-0.93982 -2.305392,-2.888793 -1.897105,-4.005794 -1.920259,-4.098236 -1.050432,-4.568145 0.437615,-0.231104 0.678421,-0.639386 0.561878,-0.939821 -0.111913,-0.29273 -0.04091,-0.531538 0.158219,-0.531538 0.199901,0 0.363522,-0.261916 0.363522,-0.585462 0,-0.392876 0.277852,-0.546945 0.842816,-0.469911 0.584259,0.08473 0.844359,-0.06934 0.847444,-0.508427 0.0024,-0.345116 0.128893,-0.751856 0.280939,-0.903614 0.152046,-0.151759 0.276307,-0.09245 0.276307,0.130958 0,0.2234 0.505535,0.517672 1.123754,0.653252 0.618219,0.135581 1.123754,0.458356 1.123754,0.720273 0,0.254213 0.463855,0.701015 1.030363,0.986041 0.566507,0.277325 1.122981,0.562352 1.236438,0.62398 0.114227,0.06163 0.137381,-0.477614 0.05326,-1.201738 -0.189093,-1.612332 0.517883,-1.770253 0.864425,-0.192586 0.135839,0.616276 0.388991,1.117 0.562649,1.117 0.173657,0 0.522514,0.631682 0.774894,1.402029 0.252383,0.778046 0.813488,1.771793 1.246472,2.210888 1.128384,1.155518 1.724219,1.925863 1.724219,2.234001 0,0.146365 0.265502,0.562352 0.590434,0.91671 0.788787,0.87049 0.974794,3.674545 0.307953,4.622072 -0.287887,0.415984 -0.52406,1.047661 -0.52406,1.409725 0,0.392888 -0.38436,0.747248 -0.954726,0.893594 -0.943921,0.23883 -0.946236,0.24653 -0.18755,0.77807 0.749427,0.52383 1.047345,1.26336 0.487011,1.21714 -0.154361,-0.0154 -1.123753,-1.00915 -2.154118,-2.203185 z m 2.939048,-5.831514 c -0.121946,-0.315842 -0.30255,-0.493021 -0.40057,-0.392875 -0.09802,0.09245 -0.06714,0.354358 0.06869,0.577758 0.368924,0.593165 0.585031,0.477613 0.331878,-0.184883 z m 3.450754,7.341389 c -0.223051,-0.35436 2.649619,-1.895054 3.562668,-1.90276 0.449964,-0.0078 0.446106,-0.06922 -0.0247,-0.369763 -0.443017,-0.285028 -0.45305,-0.362063 -0.04708,-0.369759 0.372011,-0.0075 0.453051,-0.315844 0.290199,-1.124707 -0.126577,-0.639385 -0.0656,-1.124704 0.140469,-1.124704 0.201442,0 0.365838,0.169476 0.365838,0.37747 0,0.20029 0.351944,0.724123 0.783385,1.155516 l 0.783385,0.778048 -0.877546,0.616274 c -0.48238,0.338949 -0.960901,0.623975 -1.064323,0.623975 -0.102651,0 -0.719325,0.37748 -1.369188,0.83968 -1.241839,0.8859 -2.190393,1.07078 -2.543109,0.50073 z m 3.612837,-9.082368 c -0.246979,-0.246511 -0.449967,-0.577759 -0.449967,-0.747234 0,-0.546946 0.564193,-0.308139 1.037312,0.454503 0.512481,0.816564 0.128892,1.009151 -0.587345,0.292731 z m 58.928349,-0.392876 c 0.14663,-0.462207 0.42449,-2.688505 0.61744,-4.953319 0.20067,-2.43352 0.57884,-4.538873 0.92617,-5.159 0.49395,-0.882043 0.5094,-1.338859 0.13892,-2.887253 -0.24697,-1.022247 -0.32415,-2.508242 -0.18524,-3.345608 0.23155,-1.359658 0.17753,-1.506794 -0.52482,-1.506794 -0.44766,0 -0.78725,-0.241117 -0.78725,-0.56081 0,-0.706407 -0.71777,-0.701015 -1.6671,0.01386 -0.40133,0.302747 -1.0265,0.456815 -1.38926,0.341263 -0.36274,-0.114781 -0.98791,-0.03544 -1.38153,0.17718 -0.94162,0.501495 -2.554684,-0.706406 -3.287906,-2.462792 -0.28557,-0.684838 -0.733219,-1.20328 -0.987915,-1.152437 -0.331878,0.06547 -0.463084,-0.617817 -0.463084,-2.396543 0,-1.368133 0.131206,-2.405788 0.293286,-2.306413 0.16208,0.100145 0.262415,-0.37901 0.216106,-1.063845 -0.0386,-0.684838 0.246979,-1.834963 0.640602,-2.554465 0.393622,-0.719502 0.71778,-1.561489 0.71778,-1.869628 0.0075,-0.308137 0.177522,-0.537699 0.378179,-0.508426 0.517119,0.07241 2.531542,-1.393554 2.269132,-1.652391 -0.11578,-0.114781 0.0694,-0.516901 0.41677,-0.8936 0.33959,-0.376699 0.48623,-0.684836 0.32417,-0.684836 -0.15437,0 -0.0541,-0.294272 0.22382,-0.654023 0.4708,-0.593165 0.45537,-0.606262 -0.13894,-0.141743 -0.36273,0.282716 -0.67919,0.409052 -0.70233,0.280404 -0.0309,-0.127876 -0.0695,-0.442948 -0.10033,-0.699472 -0.0309,-0.257297 -0.37048,-0.412904 -0.75638,-0.345886 -0.62517,0.10862 -0.67147,-0.04004 -0.43221,-1.308046 0.15435,-0.787292 0.26241,-1.826487 0.24697,-2.310263 -0.0541,-1.368903 0.29329,-1.595385 1.48187,-0.979879 1.02651,0.529996 1.10369,0.522293 1.10369,-0.115551 0,-0.3767 -0.42449,-1.254892 -0.93388,-1.952055 -1.11914,-1.507564 -1.11914,-1.529135 -0.28558,-1.266447 0.59429,0.186425 0.60202,0.15869 0.0617,-0.29196 -0.65604,-0.540012 -0.69462,-0.642469 -0.75637,-1.899672 -0.0385,-0.633222 -0.0849,-0.679444 -0.2161,-0.187191 -0.0926,0.35975 -0.39364,0.65402 -0.66377,0.65402 -0.6869,0 -1.018789,-1.492928 -0.385902,-1.736357 0.277862,-0.107078 0.416772,-0.435243 0.308722,-0.728746 -0.15437,-0.388253 -0.0232,-0.464519 0.46309,-0.278095 0.51712,0.20029 0.60973,0.116323 0.41678,-0.389023 -0.15437,-0.406742 -0.10034,-0.55542 0.14662,-0.40135 0.21611,0.134039 0.30103,0.49071 0.18526,0.792684 -0.11577,0.301204 0.20839,1.29187 0.71778,2.200876 0.50938,0.909007 0.83354,1.949744 0.73321,2.311805 -0.10805,0.374387 0,0.306598 0.23926,-0.157151 0.36275,-0.67482 0.29328,-1.05075 -0.40134,-2.170061 -0.46308,-0.744154 -0.76409,-1.425909 -0.67919,-1.514497 0.22383,-0.22032 2.40805,2.909592 2.72448,3.894862 0.13893,0.436016 0.37047,0.792686 0.52483,0.792686 0.57115,0 4.54596,8.828153 4.54596,10.102303 0,0.327397 -0.27014,0.217237 -0.76409,-0.309678 -0.68691,-0.735681 -1.4896,-1.086187 -1.4896,-0.653253 0,0.258065 1.55906,2.826396 1.71342,2.826396 0.0772,0 0.0309,-0.276554 -0.0926,-0.613195 -0.19295,-0.503035 -0.11575,-0.543863 0.44766,-0.228793 0.37819,0.211845 0.7255,0.697933 0.76408,1.080795 0.0384,0.382861 0.17754,1.200198 0.30873,1.817243 0.13121,0.617047 0.48625,2.843343 0.78726,4.947926 0.59427,4.135212 0.30099,9.467539 -0.77182,14.198998 -0.29329,1.276461 -0.53255,2.874926 -0.53255,3.55206 0,2.05913 -0.73322,4.100545 -1.54363,4.316242 -0.40905,0.107847 -1.1577,1.009152 -1.65937,2.0106 -0.96476,1.895048 -1.58221,2.441994 -1.10368,0.978339 z m 2.50065,-35.880356 c -0.26242,-0.26885 -0.43993,-0.29042 -0.43993,-0.05623 0,0.499184 0.43993,0.941362 0.69464,0.691769 0.10805,-0.106309 -0.008,-0.392876 -0.25471,-0.635534 z m -0.9802,-0.01309 c -0.31644,-1.425138 -1.59763,-3.638339 -2.11475,-3.641422 -0.67919,-0.0046 -1.62852,1.556869 -1.38926,2.287927 0.0926,0.272701 0.49396,0.513049 0.88757,0.533848 1.94497,0.101686 2.40805,0.187965 2.36174,0.446031 -0.0694,0.432933 0.0309,0.841216 0.20067,0.841216 0.0849,0 0.10806,-0.210305 0.0541,-0.4676 z M 54.837117,90.268551 c 0,-0.323546 0.199898,-0.523833 0.444562,-0.4468 0.694627,0.231104 0.810398,1.039966 0.148959,1.039966 -0.326475,0 -0.593521,-0.269621 -0.593521,-0.593166 z m 1.315162,-0.523833 c -0.129665,-0.207995 0.02701,-0.37747 0.348858,-0.37747 0.657581,0 0.754828,0.2234 0.234629,0.539241 -0.191409,0.123255 -0.454596,0.04622 -0.583487,-0.161771 z m -7.84003,-0.993747 c -0.313354,-0.816565 0.10265,-1.194033 0.545669,-0.49302 0.443018,0.69331 0.452279,1.109297 0.02547,1.109297 -0.184463,0 -0.441474,-0.277324 -0.571139,-0.616277 z m -3.215353,-3.859428 c 0,-0.20029 -0.253154,-0.266539 -0.561877,-0.146366 -0.683051,0.261918 -0.744795,-0.372075 -0.08953,-0.914399 0.350402,-0.29042 0.583488,-0.157149 0.901473,0.514591 0.235403,0.499953 0.275536,0.908237 0.08954,0.908237 -0.186778,0 -0.339595,-0.161773 -0.339595,-0.362063 z M 37.78324,84.408536 c -0.407516,-0.22417 -0.960902,-0.714879 -1.230264,-1.090807 -0.521742,-0.727206 -1.571401,-0.933658 -1.571401,-0.30891 0,0.205684 -0.337281,0.373619 -0.748654,0.373619 -0.412146,0 -0.749426,-0.167935 -0.749426,-0.373619 0,-0.205681 -0.33728,-0.374386 -0.749426,-0.374386 -0.412146,0 -0.749425,-0.167935 -0.749425,-0.373617 0,-0.205683 0.169796,-0.373618 0.378184,-0.373618 0.739394,0 -0.51634,-1.423597 -1.791366,-2.030628 -0.852849,-0.405202 -1.210196,-0.792687 -1.069726,-1.159371 0.125804,-0.326625 -0.007,-0.549254 -0.326475,-0.549254 -0.324932,0 -0.453052,0.222629 -0.322617,0.56081 0.156677,0.408283 -0.04477,0.560812 -0.739393,0.560812 -0.524829,0 -1.05892,-0.168706 -1.186268,-0.374389 -0.127348,-0.204911 0.115771,-0.373617 0.540266,-0.373617 0.424494,0 0.792647,-0.167935 0.818115,-0.373616 0.02547,-0.205683 0.06792,-0.528458 0.09339,-0.717192 0.07641,-0.555419 0.608956,-0.945214 0.608956,-0.44526 0,0.251904 0.149731,0.365914 0.331878,0.253444 0.182918,-0.112471 0.541037,0.04546 0.795734,0.352048 0.254697,0.305827 0.324159,0.55696 0.154362,0.55696 -0.169026,0 -0.112685,0.194897 0.125805,0.432932 0.328789,0.327399 0.566506,0.322006 0.98174,-0.02157 0.43993,-0.364374 0.910733,-0.271162 2.381029,0.47299 1.007981,0.5092 2.05301,1.192494 2.323144,1.516809 0.270131,0.324315 0.955497,0.590085 1.522775,0.590085 1.042715,0 2.074622,-0.795765 1.620028,-1.249499 -0.135067,-0.13558 -0.05943,-0.246511 0.168253,-0.246511 0.799595,0 0.865969,0.745695 0.136611,1.526825 -0.493187,0.528456 -0.983284,0.709488 -1.485732,0.550025 -1.31053,-0.415215 -1.390026,0.589314 -0.135066,1.707855 1.225632,1.093119 1.150766,1.679352 -0.125032,0.980648 z m 4.461051,-1.09466 c -0.173656,-0.281174 -0.0656,-0.355127 0.310267,-0.211074 0.317985,0.121714 0.747884,0.05161 0.955499,-0.155609 0.254698,-0.254214 0.460769,-0.244199 0.629796,0.0285 0.138925,0.224172 0.199899,0.419067 0.135838,0.434474 -1.188583,0.285798 -1.812977,0.255755 -2.0314,-0.09629 z M 25.378735,82.203039 c -0.178288,-0.286568 -0.781843,-0.811173 -1.341404,-1.166302 -1.432477,-0.909006 -1.968883,-1.993652 -1.141505,-2.310262 0.350402,-0.134812 0.515569,-0.123256 0.366609,0.02542 -0.378956,0.37901 0.870601,1.673959 1.337545,1.385851 0.216107,-0.133271 0.26859,-0.05238 0.121946,0.184881 -0.157448,0.254215 0.115771,0.514592 0.691539,0.658646 1.026508,0.257295 1.117581,0.439867 0.615132,1.23101 -0.27399,0.432164 -0.375871,0.430624 -0.649862,-0.0092 z m 1.214827,-0.100145 c 0.112683,-0.29273 0.463084,-0.630911 0.778754,-0.751855 0.412145,-0.157922 0.510166,-0.05161 0.34577,0.375157 -0.125805,0.327397 -0.228456,0.666348 -0.228456,0.751857 0,0.08628 -0.247751,0.15638 -0.550298,0.15638 -0.321845,0 -0.465401,-0.220318 -0.34577,-0.531539 z M 40.97621,81.887198 c -0.505533,-0.942902 -0.08336,-0.942902 1.123753,0 0.92617,0.723354 0.927715,0.731057 0.10651,0.739532 -0.456139,0.0046 -1.010297,-0.328167 -1.230263,-0.739532 z M 28.987711,81.722344 c 0,-0.09091 0.169025,-0.269621 0.374327,-0.396728 0.206073,-0.126335 0.375098,-0.05238 0.375098,0.165624 0,0.217238 -0.169025,0.395958 -0.375098,0.395958 -0.205302,0 -0.374327,-0.07472 -0.374327,-0.164854 z m 1.342175,-0.533079 c -0.16131,-0.260376 -0.192181,-0.574677 -0.06869,-0.697932 0.335739,-0.3351 0.700802,0.157152 0.520199,0.699473 -0.127348,0.37978 -0.215334,0.37978 -0.451507,-0.0015 z m -5.207392,-1.415893 c -0.140469,-0.140203 -0.275534,-1.0261 -0.300233,-1.968231 -0.03704,-1.443627 -0.08103,-1.53992 -0.280938,-0.613195 -0.129664,0.604721 -0.362751,1.067699 -0.517111,1.028411 -0.155134,-0.04006 -0.430669,-0.07241 -0.61436,-0.07241 -0.761003,0 -0.802682,-2.554465 -0.07101,-4.35399 0.718554,-1.768713 0.81889,-1.740209 0.967848,0.278094 0.10651,1.435924 0.540267,1.922781 1.54053,1.732506 0.587347,-0.112472 0.892982,0.0037 0.892982,0.338182 0,0.280404 -0.37973,0.519983 -0.842814,0.533078 l -0.843587,0.02388 0.843587,0.338182 c 0.463084,0.185653 0.839726,0.553878 0.836641,0.817336 -0.0038,0.368996 -0.0795,0.362832 -0.327248,-0.02773 -0.177515,-0.278866 -0.416777,-0.35513 -0.531775,-0.169477 -0.114999,0.186424 -0.0548,0.583152 0.135066,0.881275 0.189092,0.298894 0.333421,0.795767 0.320299,1.103904 -0.01929,0.439096 -0.06792,0.450653 -0.226911,0.05161 -0.143556,-0.35898 -0.280939,-0.385173 -0.464628,-0.08782 -0.143556,0.231873 -0.375871,0.306598 -0.516341,0.166394 z M 62.39235,78.521561 c 0.188321,-0.564663 0.791103,-0.622438 0.967848,-0.09321 0.08568,0.256525 -0.125034,0.466829 -0.468488,0.466829 -0.343455,0 -0.568052,-0.167936 -0.49936,-0.373616 z M 30.890218,77.991564 c -0.01621,-0.393646 0.07255,-0.614735 0.196812,-0.49071 0.125034,0.124796 0.138153,0.446799 0.0301,0.717191 -0.11963,0.298124 -0.208387,0.209534 -0.226912,-0.226481 z m -9.233143,-2.180846 c -0.429125,-3.5043 -0.4353,-3.663762 -0.148188,-3.84094 0.146645,-0.09014 0.382046,0.884354 0.523287,2.16544 0.142013,1.281853 0.350401,2.708532 0.463085,3.171509 0.112684,0.462208 0.03473,0.841218 -0.173656,0.841218 -0.207619,0 -0.507079,-1.051521 -0.664528,-2.337227 z m 5.803999,2.243244 c -0.281711,-0.945983 -0.275535,-1.963609 0.01467,-2.459712 0.279394,-0.477613 0.368152,-0.249591 0.376642,0.964472 0.0062,0.873572 -0.07255,1.589223 -0.175972,1.589223 -0.102651,0 -0.199899,-0.04236 -0.215335,-0.09397 z M 44.34747,74.961027 c 0,-0.31276 -0.421407,-0.76033 -0.936204,-0.994515 -0.81503,-0.370536 -1.29741,-1.053831 -0.744795,-1.053831 0.34577,0 1.861603,0.925954 2.143312,1.308814 0.399796,0.542324 0.348086,1.308817 -0.08799,1.308817 -0.206073,0 -0.374327,-0.255755 -0.374328,-0.569285 z M 25.616453,72.539062 c -0.27245,-0.506886 -0.276309,-0.748004 -0.01312,-0.748004 0.213019,0 0.387448,-0.261917 0.387448,-0.583151 0,-0.320463 0.168254,-0.478384 0.374326,-0.351278 0.480837,0.295813 0.492415,2.430439 0.01312,2.430439 -0.198355,0 -0.54181,-0.336642 -0.761774,-0.748006 z m -1.867777,-1.193263 c 0.003,-0.268852 0.169025,-0.741842 0.368924,-1.050751 0.295602,-0.455274 0.364293,-0.407512 0.368925,0.258837 0.003,0.45065 -0.162852,0.922872 -0.368925,1.049979 -0.206072,0.127106 -0.372012,0.01077 -0.368924,-0.258065 z m -2.301533,-1.143963 c -0.148959,-3.73078 1.176237,-12.283921 1.944957,-12.557393 0.192953,-0.06856 0.351173,-0.502265 0.351173,-0.9637 0,-1.013005 1.742743,-5.443258 2.414217,-6.138109 0.398254,-0.411365 0.520198,-0.392105 0.714694,0.11247 0.148959,0.388253 0.0849,0.517673 -0.176743,0.355899 -0.271678,-0.167165 -0.32802,0.0062 -0.16671,0.512281 0.162851,0.513048 -0.0015,0.992974 -0.497819,1.45441 -0.788016,0.732598 -1.538985,2.3873 -1.538985,3.391828 0,0.507658 0.09106,0.488399 0.5503,-0.117863 0.302549,-0.399038 0.555702,-1.188642 0.561876,-1.754074 0.007,-0.565433 0.180603,-1.028411 0.386677,-1.028411 0.677648,0 0.391306,2.562939 -0.468488,4.195299 -0.721641,1.370444 -0.859796,1.479833 -0.962446,0.758789 -0.0656,-0.462206 -0.257012,-0.841216 -0.424494,-0.841216 -0.730903,0 -1.089793,4.617447 -0.392079,5.04807 0.622849,0.384403 0.457683,1.794904 -0.182146,1.549934 -0.825063,-0.316612 -1.209425,0.765722 -1.241068,3.498135 -0.04323,3.692264 -0.04939,3.739255 -0.449965,3.739255 -0.206072,0 -0.396709,-0.546944 -0.422951,-1.215604 z m 3.504781,-0.05932 c 0.115001,-0.600869 0.02238,-0.842757 -0.279394,-0.727206 -0.594293,0.227252 -1.10986,-2.828707 -0.568822,-3.368718 0.268588,-0.26808 0.388219,-0.05316 0.388219,0.694851 0,0.661728 0.386675,1.485225 0.994089,2.117678 0.829696,0.864328 0.914593,1.130096 0.516341,1.610021 -0.713924,0.858165 -1.245699,0.69331 -1.050433,-0.326626 z m 44.046334,-6.278311 c 0.349628,-0.348966 0.549527,-0.348966 0.899156,0 0.349629,0.348966 0.249295,0.44834 -0.449965,0.44834 -0.699257,0 -0.798821,-0.09937 -0.449191,-0.44834 z m 2.322371,0.05315 c 0,-0.238036 0.23926,-0.341261 0.531005,-0.228791 0.291742,0.1117 0.62825,-0.0493 0.746338,-0.358211 0.131207,-0.339722 0.402112,-0.445259 0.68691,-0.268079 0.259327,0.161001 0.834324,0.24574 1.278114,0.188733 0.44379,-0.05701 0.91768,0.07396 1.051975,0.291962 0.137381,0.221087 -0.05404,0.405971 -0.432213,0.419066 -0.372783,0.01309 -1.393885,0.105538 -2.269888,0.205683 -1.061236,0.121714 -1.592241,0.03775 -1.592241,-0.250363 z m 5.170344,-0.05315 c 0.34963,-0.348966 0.548756,-0.348966 0.898385,0 0.349629,0.348966 0.250067,0.44834 -0.449192,0.44834 -0.699259,0 -0.799593,-0.09937 -0.449193,-0.44834 z m -8.644254,-2.013687 c -0.571909,-0.308907 -1.230262,-0.444488 -1.462576,-0.301205 -0.259328,0.160234 -0.3203,0.09397 -0.156678,-0.170246 0.169798,-0.274242 -0.02162,-0.431392 -0.526374,-0.431392 -0.436071,0 -0.711606,0.131729 -0.611271,0.293502 0.100334,0.161771 -0.142784,0.294271 -0.540266,0.294271 -0.996404,0 -0.903787,-0.520754 0.179831,-1.013774 0.727815,-0.331247 1.342946,-0.239576 3.184482,0.472992 2.244419,0.86895 2.918978,1.462885 1.627743,1.433612 -0.361206,-0.0086 -1.123752,-0.268081 -1.694891,-0.57776 z m 33.441691,-4.99414 c 0,-0.218006 0.16979,-0.395957 0.37817,-0.395957 0.2084,0 0.37048,0.07396 0.37048,0.164854 0,0.0909 -0.16208,0.26885 -0.37048,0.395956 -0.20838,0.127109 -0.37817,0.05316 -0.37817,-0.164853 z m 0.74865,-6.917697 c 0,-0.09014 0.16979,-0.268851 0.37819,-0.395958 0.20839,-0.127107 0.37046,-0.05238 0.37046,0.164854 0,0.218007 -0.16207,0.395958 -0.37046,0.395958 -0.2084,0 -0.37819,-0.07396 -0.37819,-0.164854 z M 27.863959,48.091396 c 0,-0.308138 0.168253,-0.664807 0.374327,-0.791915 0.206072,-0.127107 0.375099,0.02158 0.375099,0.329709 0,0.308908 -0.169027,0.664808 -0.375099,0.791915 -0.206074,0.127106 -0.374327,-0.0208 -0.374327,-0.329709 z m 1.498079,-0.02234 c 0,-0.09014 0.169026,-0.26885 0.375098,-0.395957 0.206074,-0.127106 0.374329,-0.05238 0.374329,0.164854 0,0.218007 -0.168255,0.395957 -0.374329,0.395957 -0.206072,0 -0.375098,-0.07396 -0.375098,-0.164854 z m 2.248278,-2.05605 c 0,-0.218008 0.168254,-0.395958 0.374328,-0.395958 0.206071,0 0.375099,0.07396 0.375099,0.164854 0,0.09091 -0.169028,0.26885 -0.375099,0.395957 -0.206074,0.127107 -0.374328,0.05316 -0.374328,-0.164853 z m 0.553386,-3.401073 c -0.126576,-0.204913 -0.429897,-0.253444 -0.673017,-0.107849 -0.25238,0.150989 -0.221509,-0.007 0.07178,-0.367454 0.534863,-0.657874 1.740427,-0.852772 2.0615,-0.333559 0.101878,0.164082 -0.132752,0.497642 -0.522515,0.740301 -0.456911,0.284257 -0.788788,0.30891 -0.937748,0.06856 z m 49.530031,-5.263767 c -0.372783,-0.216467 -0.929257,-0.297354 -1.237208,-0.18026 -0.314898,0.120943 -0.458455,0.05316 -0.329562,-0.155611 0.125805,-0.20337 0.02238,-0.369764 -0.229999,-0.369764 -0.830465,0 0.01698,-0.494563 1.032679,-0.60241 1.166203,-0.124797 3.252402,0.848149 2.931329,1.366592 -0.288656,0.466058 -1.311303,0.438325 -2.167239,-0.05854 z"
         style="opacity:1;fill:#0055d4;fill-opacity:1;stroke-width:0.77107632"
         id="path3525"
         inkscape:connector-curvature="0" />
    </g>
  </g>
</svg>
