<?xml version="1.0" encoding="UTF-8" standalone="no"?>
<!-- Created with Inkscape (http://www.inkscape.org/) -->

<svg
   xmlns:dc="http://purl.org/dc/elements/1.1/"
   xmlns:cc="http://creativecommons.org/ns#"
   xmlns:rdf="http://www.w3.org/1999/02/22-rdf-syntax-ns#"
   xmlns:svg="http://www.w3.org/2000/svg"
   xmlns="http://www.w3.org/2000/svg"
   xmlns:xlink="http://www.w3.org/1999/xlink"
   xmlns:sodipodi="http://sodipodi.sourceforge.net/DTD/sodipodi-0.dtd"
   xmlns:inkscape="http://www.inkscape.org/namespaces/inkscape"
   width="180"
   height="36"
   viewBox="0 0 47.624999 9.5250003"
   version="1.1"
   id="svg8"
   inkscape:version="0.92.1 r15371"
   sodipodi:docname="costs-money.svg">
  <defs
     id="defs2">
    <clipPath
       clipPathUnits="userSpaceOnUse"
       id="clipPath5108">
      <rect
         style="color:#000000;clip-rule:nonzero;display:inline;overflow:visible;visibility:visible;opacity:1;isolation:auto;mix-blend-mode:normal;color-interpolation:sRGB;color-interpolation-filters:linearRGB;solid-color:#000000;solid-opacity:1;fill:#ffffff;fill-opacity:1;fill-rule:evenodd;stroke:none;stroke-width:0.52916664;stroke-linecap:butt;stroke-linejoin:miter;stroke-miterlimit:4;stroke-dasharray:none;stroke-dashoffset:0;stroke-opacity:1;color-rendering:auto;image-rendering:auto;shape-rendering:auto;text-rendering:auto;enable-background:accumulate"
         id="rect5110"
         width="13.229167"
         height="8.9958334"
         x="17.4625"
         y="156.04062" />
    </clipPath>
    <clipPath
       clipPathUnits="userSpaceOnUse"
       id="clipPath5239">
      <rect
         y="15.760699"
         x="-231.24432"
         height="34"
         width="49.999996"
         id="rect5241"
         style="color:#000000;clip-rule:nonzero;display:inline;overflow:visible;visibility:visible;opacity:1;isolation:auto;mix-blend-mode:normal;color-interpolation:sRGB;color-interpolation-filters:linearRGB;solid-color:#000000;solid-opacity:1;fill:#ffffff;fill-opacity:1;fill-rule:evenodd;stroke:none;stroke-width:1.99999988;stroke-linecap:butt;stroke-linejoin:miter;stroke-miterlimit:4;stroke-dasharray:none;stroke-dashoffset:0;stroke-opacity:1;color-rendering:auto;image-rendering:auto;shape-rendering:auto;text-rendering:auto;enable-background:accumulate" />
    </clipPath>
    <clipPath
       clipPathUnits="userSpaceOnUse"
       id="clipPath5018">
      <rect
         style="color:#000000;clip-rule:nonzero;display:inline;overflow:visible;visibility:visible;opacity:1;isolation:auto;mix-blend-mode:normal;color-interpolation:sRGB;color-interpolation-filters:linearRGB;solid-color:#000000;solid-opacity:1;fill:#ffffff;fill-opacity:1;fill-rule:evenodd;stroke:none;stroke-width:0.52916664;stroke-linecap:butt;stroke-linejoin:miter;stroke-miterlimit:4;stroke-dasharray:none;stroke-dashoffset:0;stroke-opacity:1;color-rendering:auto;image-rendering:auto;shape-rendering:auto;text-rendering:auto;enable-background:accumulate"
         id="rect5020"
         width="72.363419"
         height="49.194481"
         x="-442.39182"
         y="-152.21417"
         transform="matrix(0.76595196,0.64289781,-0.64293016,0.76592481,0,0)" />
    </clipPath>
    <clipPath
       clipPathUnits="userSpaceOnUse"
       id="clipPath5326">
      <rect
         style="color:#000000;clip-rule:nonzero;display:inline;overflow:visible;visibility:visible;opacity:1;isolation:auto;mix-blend-mode:normal;color-interpolation:sRGB;color-interpolation-filters:linearRGB;solid-color:#000000;solid-opacity:1;fill:#ffffff;fill-opacity:1;fill-rule:evenodd;stroke:none;stroke-width:4.16032791;stroke-linecap:butt;stroke-linejoin:miter;stroke-miterlimit:4;stroke-dasharray:none;stroke-dashoffset:0;stroke-opacity:1;color-rendering:auto;image-rendering:auto;shape-rendering:auto;text-rendering:auto;enable-background:accumulate"
         id="rect5328"
         width="124.80984"
         height="70.725578"
         x="13.720113"
         y="21.59317" />
    </clipPath>
    <clipPath
       clipPathUnits="userSpaceOnUse"
       id="clipPath5407">
      <rect
         style="color:#000000;clip-rule:nonzero;display:inline;overflow:visible;visibility:visible;opacity:1;isolation:auto;mix-blend-mode:normal;color-interpolation:sRGB;color-interpolation-filters:linearRGB;solid-color:#000000;solid-opacity:1;fill:#ffffff;fill-opacity:1;fill-rule:evenodd;stroke:none;stroke-width:0.61937374;stroke-linecap:butt;stroke-linejoin:miter;stroke-miterlimit:4;stroke-dasharray:none;stroke-dashoffset:0;stroke-opacity:1;color-rendering:auto;image-rendering:auto;shape-rendering:auto;text-rendering:auto;enable-background:accumulate"
         id="rect5409"
         width="18.123959"
         height="8.9958334"
         x="87.973961"
         y="200.60277" />
    </clipPath>
    <clipPath
       clipPathUnits="userSpaceOnUse"
       id="clipPath5078">
      <rect
         style="color:#000000;clip-rule:nonzero;display:inline;overflow:visible;visibility:visible;opacity:1;isolation:auto;mix-blend-mode:normal;color-interpolation:sRGB;color-interpolation-filters:linearRGB;solid-color:#000000;solid-opacity:1;fill:#ffffff;fill-opacity:1;fill-rule:evenodd;stroke:none;stroke-width:0.59769404;stroke-linecap:butt;stroke-linejoin:miter;stroke-miterlimit:4;stroke-dasharray:none;stroke-dashoffset:0;stroke-opacity:1;color-rendering:auto;image-rendering:auto;shape-rendering:auto;text-rendering:auto;enable-background:accumulate"
         id="rect5080"
         width="16.877396"
         height="8.9958334"
         x="16.206114"
         y="213.41493" />
    </clipPath>
    <clipPath
       clipPathUnits="userSpaceOnUse"
       id="clipPath5438">
      <rect
         style="color:#000000;clip-rule:nonzero;display:inline;overflow:visible;visibility:visible;opacity:1;isolation:auto;mix-blend-mode:normal;color-interpolation:sRGB;color-interpolation-filters:linearRGB;solid-color:#000000;solid-opacity:1;fill:#ffffff;fill-opacity:1;fill-rule:evenodd;stroke:none;stroke-width:0.52916664;stroke-linecap:butt;stroke-linejoin:miter;stroke-miterlimit:4;stroke-dasharray:none;stroke-dashoffset:0;stroke-opacity:1;color-rendering:auto;image-rendering:auto;shape-rendering:auto;text-rendering:auto;enable-background:accumulate"
         id="rect5440"
         width="13.229167"
         height="8.9958334"
         x="17.352474"
         y="230.00876" />
    </clipPath>
    <clipPath
       clipPathUnits="userSpaceOnUse"
       id="clipPath4913">
      <rect
         style="color:#000000;clip-rule:nonzero;display:inline;overflow:visible;visibility:visible;opacity:1;isolation:auto;mix-blend-mode:normal;color-interpolation:sRGB;color-interpolation-filters:linearRGB;solid-color:#000000;solid-opacity:1;fill:#ffffff;fill-opacity:1;fill-rule:evenodd;stroke:none;stroke-width:1.05833328;stroke-linecap:butt;stroke-linejoin:miter;stroke-miterlimit:4;stroke-dasharray:none;stroke-dashoffset:0;stroke-opacity:1;color-rendering:auto;image-rendering:auto;shape-rendering:auto;text-rendering:auto;enable-background:accumulate"
         id="rect4915"
         width="13.229167"
         height="8.9958334"
         x="18.1476"
         y="235.74222" />
    </clipPath>
  </defs>
  <sodipodi:namedview
     id="base"
     pagecolor="#ffffff"
     bordercolor="#666666"
     borderopacity="1.0"
     inkscape:pageopacity="0.0"
     inkscape:pageshadow="2"
     inkscape:zoom="2.8"
     inkscape:cx="137.09732"
     inkscape:cy="57.482934"
     inkscape:document-units="px"
     inkscape:current-layer="layer1"
     showgrid="false"
     units="px"
     inkscape:window-width="1680"
     inkscape:window-height="987"
     inkscape:window-x="-8"
     inkscape:window-y="-8"
     inkscape:window-maximized="1" />
  <metadata
     id="metadata5">
    <rdf:RDF>
      <cc:Work
         rdf:about="">
        <dc:format>image/svg+xml</dc:format>
        <dc:type
           rdf:resource="http://purl.org/dc/dcmitype/StillImage" />
        <dc:title></dc:title>
      </cc:Work>
    </rdf:RDF>
  </metadata>
  <g
     inkscape:label="Layer 1"
     inkscape:groupmode="layer"
     id="layer1"
     transform="translate(0,-287.47498)">
    <rect
       style="color:#000000;clip-rule:nonzero;display:inline;overflow:visible;visibility:visible;opacity:1;isolation:auto;mix-blend-mode:normal;color-interpolation:sRGB;color-interpolation-filters:linearRGB;solid-color:#000000;solid-opacity:1;fill:#784421;fill-opacity:1;fill-rule:evenodd;stroke:none;stroke-width:0.99999994;stroke-linecap:butt;stroke-linejoin:miter;stroke-miterlimit:4;stroke-dasharray:none;stroke-dashoffset:0;stroke-opacity:1;color-rendering:auto;image-rendering:auto;shape-rendering:auto;text-rendering:auto;enable-background:accumulate"
       id="rect4768"
       width="47.625"
       height="6.614583"
       x="-7.1054274e-015"
       y="290.38541"
       rx="1.3229166"
       ry="1.3229166" />
    <text
       xml:space="preserve"
       style="font-style:normal;font-variant:normal;font-weight:bold;font-stretch:normal;font-size:3.66805744px;line-height:2;font-family:'Open Sans';-inkscape-font-specification:'Open Sans Bold';font-variant-ligatures:normal;font-variant-caps:normal;font-variant-numeric:normal;font-feature-settings:normal;text-align:center;letter-spacing:0px;word-spacing:0px;writing-mode:lr-tb;text-anchor:middle;fill:#ffffff;fill-opacity:1;stroke:none;stroke-width:0.26458332px;stroke-linecap:butt;stroke-linejoin:miter;stroke-opacity:1"
       x="31.38229"
       y="295.00287"
       id="text4772"><tspan
         sodipodi:role="line"
         id="tspan4770"
         x="31.38229"
         y="295.00287"
         style="font-style:normal;font-variant:normal;font-weight:bold;font-stretch:normal;font-family:'Open Sans';-inkscape-font-specification:'Open Sans Bold';fill:#ffffff;stroke-width:0.26458332px">COSTS MONEY</tspan></text>
    <g
       id="g4911"
       transform="translate(-15.037266,51.73279)"
       clip-path="url(#clipPath4913)">
      <path
         sodipodi:type="inkscape:offset"
         inkscape:radius="1.8261596"
         inkscape:original="M 102 892.57031 C 99.335222 896.49881 96.316535 900.2037 92.986328 903.6543 C 93.176451 901.88354 93.535673 899.71678 94.248047 897.00977 C 96.505585 888.43111 71.824219 892.49421 71.824219 908.14648 C 71.824219 909.87728 74.004903 909.95282 77.917969 905.13672 C 77.917969 905.13672 76.339023 911.90941 81.380859 908.97461 C 81.380859 908.97461 80.648113 913.25599 83.791016 911.9043 C 80.390167 914.54746 76.770706 916.9676 72.951172 919.13281 C 77.692003 923.42212 82.432997 927.78775 87.173828 932.15234 C 98.988276 925.45498 108.92133 916.34885 116.2207 905.58789 C 111.47988 901.22333 106.74083 896.93491 102 892.57031 z "
         style="fill:#784421;fill-opacity:1;stroke-width:1.00000012"
         id="path4917"
         d="m 102.08008,890.74609 a 1.8263422,1.8263422 0 0 0 -1.5918,0.79883 c -1.39089,2.0505 -2.89544,4.02845 -4.478514,5.95117 0.0023,-0.009 0.0016,-0.0127 0.0039,-0.0215 0.381886,-1.45117 0.201902,-2.97284 -0.56836,-4.11328 -0.770261,-1.14044 -1.962367,-1.8143 -3.238281,-2.18555 -2.551827,-0.7425 -5.67891,-0.45633 -8.884765,0.57813 -3.205855,1.03446 -6.476265,2.87164 -9.013672,5.59765 -2.537408,2.72602 -4.310547,6.40193 -4.310547,10.79492 0,0.81618 0.319077,1.86478 1.222656,2.46094 0.903579,0.59616 1.958053,0.50701 2.792969,0.21094 0.763608,-0.27079 1.516257,-0.76453 2.298828,-1.4043 0.303259,0.75846 0.768042,1.51599 1.728516,1.89649 0.529268,0.20967 1.070358,0.16627 1.613281,0.11523 0.06328,0.25737 0.190585,0.54378 0.328125,0.82813 -2.568787,1.85015 -5.136279,3.70638 -7.931641,5.29101 a 1.8263422,1.8263422 0 0 0 -0.324219,2.94141 c 4.732855,4.28209 9.470016,8.64509 14.210938,13.00976 a 1.8263422,1.8263422 0 0 0 2.136719,0.24414 c 12.050221,-6.83101 22.195451,-16.12513 29.658201,-27.12695 a 1.8263422,1.8263422 0 0 0 -0.27539,-2.36914 c -4.74844,-4.37157 -9.48749,-8.65999 -14.2207,-13.01758 a 1.8263422,1.8263422 0 0 0 -1.15625,-0.48047 z"
         transform="matrix(0.26458333,0,0,0.26458333,-0.72760417,0.07199194)" />
      <path
         id="path4774"
         d="m 30.0227,239.99402 c -1.234434,-1.11497 -2.468868,-2.24986 -3.703302,-3.36483 -1.811831,2.74761 -4.878007,5.19657 -7.7849,6.96858 -0.07964,0.37829 -0.159282,0.73668 -0.258833,1.09506 1.274254,1.1548 2.548509,2.3295 3.822764,3.48429 3.006444,-1.65255 6.192081,-4.00195 8.123374,-6.66992 -0.05973,-0.49776 -0.139372,-0.99552 -0.199103,-1.51318"
         inkscape:connector-curvature="0"
         style="fill:#ffffff;fill-opacity:1;stroke-width:0.26458335" />
      <path
         id="path4776"
         d="m 22.337352,246.70377 c -1.254345,-1.1548 -2.508689,-2.30959 -3.763034,-3.44447 3.125906,-1.77201 5.754057,-4.18115 7.685349,-7.02832 1.254344,1.1548 2.508689,2.28968 3.763033,3.44447 -1.931292,2.84717 -4.559442,5.25631 -7.685348,7.02832"
         inkscape:connector-curvature="0"
         style="fill:#ffffff;fill-opacity:1;stroke-width:0.26458335" />
      <g
         transform="matrix(0.1991023,0,0,0.1991023,17.87746,235.83278)"
         id="g4786"
         style="fill:#784421;fill-opacity:1;stroke-width:1.32888138">
        <path
           id="path4778"
           d="M 20.8,50.8 C 16.6,47 12.4,43.1 8.2,39.3 8.5,39.1 8.7,39 9,38.8 9.8,38.3 10,37.4 9.3,36.7 9.1,36.5 8.9,36.3 8.7,36.1 21.4,28.3 32.4,18.3 41,6.7 c 0.2,0.2 0.4,0.4 0.6,0.6 0.7,0.6 1.7,0.5 2.3,-0.2 0.2,-0.2 0.3,-0.5 0.5,-0.7 4.2,3.8 8.4,7.7 12.6,11.5 -0.2,0.2 -0.3,0.5 -0.5,0.7 -0.6,0.8 -0.5,1.9 0.2,2.6 0.2,0.2 0.4,0.4 0.6,0.6 -8.6,11.5 -19.6,21.5 -32.3,29.3 -0.2,-0.2 -0.4,-0.4 -0.6,-0.6 -0.7,-0.6 -1.9,-0.7 -2.8,-0.2 -0.3,0.2 -0.5,0.3 -0.8,0.5 M 10.9,39.4 c 3.4,3.1 6.8,6.2 10.3,9.4 1.3,-0.4 2.8,-0.3 4,0.3 C 36.8,41.7 46.9,32.5 55,21.8 54.3,20.7 54.2,19.3 54.7,18.1 51.3,15 47.9,11.9 44.4,8.7 43.5,9.5 42.2,9.6 41.1,9 33,19.8 22.9,29 11.3,36.4 c 0.6,1 0.5,2.2 -0.4,3"
           inkscape:connector-curvature="0"
           style="fill:#784421;fill-opacity:1;stroke-width:1.32888138" />
        <path
           id="path4780"
           d="m 20,37.3 c 1.1,-0.4 2.3,-0.3 3.1,0.4 -0.5,0.4 -1.1,0.8 -1.6,1.2 -0.2,-0.2 -0.7,-0.2 -0.9,0 -0.3,0.2 -0.4,0.5 -0.1,0.7 0.2,0.2 0.7,0.2 1,0 1.2,-0.8 2.9,-0.9 3.8,0 0.7,0.7 0.8,1.7 0.1,2.5 0.2,0.2 0.4,0.3 0.6,0.5 -0.5,0.3 -1,0.7 -1.5,1 -0.2,-0.2 -0.4,-0.4 -0.6,-0.5 -1.1,0.3 -2.3,0.2 -3,-0.5 0.6,-0.4 1.1,-0.7 1.7,-1.1 0.2,0.2 0.7,0.2 1,0 0.3,-0.2 0.3,-0.5 0.1,-0.7 -0.2,-0.2 -0.6,-0.2 -0.9,0 -0.7,0.5 -1.6,0.7 -2.4,0.6 -0.6,-0.1 -1.1,-0.3 -1.5,-0.6 -0.7,-0.7 -0.7,-1.6 -0.1,-2.4 -0.2,-0.1 -0.3,-0.3 -0.5,-0.5 0.5,-0.3 1,-0.7 1.5,-1 -0.1,0.1 0.1,0.2 0.2,0.4"
           inkscape:connector-curvature="0"
           style="fill:#784421;fill-opacity:1;stroke-width:1.32888138" />
        <path
           id="path4782"
           d="m 43.2,15.9 c 0.9,-0.6 2,-0.6 2.7,0.1 -0.4,0.5 -0.8,1 -1.2,1.5 -0.2,-0.2 -0.6,-0.2 -0.8,0.1 -0.2,0.3 -0.2,0.7 0,0.9 0.2,0.2 0.6,0.2 0.8,-0.1 0.9,-1.1 2.4,-1.3 3.3,-0.5 0.7,0.7 0.9,1.8 0.5,2.8 0.2,0.2 0.4,0.3 0.6,0.5 -0.4,0.5 -0.7,0.9 -1.1,1.4 -0.2,-0.2 -0.4,-0.4 -0.6,-0.5 -0.9,0.5 -1.9,0.5 -2.6,-0.2 0.4,-0.5 0.9,-1 1.3,-1.5 0.2,0.2 0.6,0.2 0.8,-0.1 0.2,-0.3 0.2,-0.7 0,-0.9 -0.2,-0.2 -0.6,-0.2 -0.8,0.1 -0.5,0.6 -1.3,1 -2,1 -0.5,0 -1,-0.2 -1.4,-0.5 C 42,19.3 41.8,18.3 42.2,17.3 42,17.2 41.9,17 41.7,16.8 c 0.4,-0.4 0.8,-0.9 1.1,-1.4 0,0.2 0.2,0.3 0.4,0.5"
           inkscape:connector-curvature="0"
           style="fill:#784421;fill-opacity:1;stroke-width:1.32888138" />
        <path
           id="path4784"
           d="m 40.2,35.5 c -3.2,2.9 -8.6,2.8 -11.7,0 -3.1,-2.9 -2.9,-7.4 0.3,-10.3 3.2,-2.9 8.2,-3.2 11.3,-0.3 3.2,2.8 3.3,7.7 0.1,10.6"
           inkscape:connector-curvature="0"
           style="fill:#784421;fill-opacity:1;stroke-width:1.32888138" />
      </g>
      <path
         id="path4788"
         d="m 22.21789,240.71079 3.763034,3.44447 c 0.438025,-0.35839 0.836229,-0.73668 1.234434,-1.13489 l -3.743123,-3.44447 c -0.398205,0.3783 -0.81632,0.75659 -1.254345,1.13489"
         inkscape:connector-curvature="0"
         style="fill:#784421;fill-opacity:1;stroke-width:0.26458335" />
      <path
         id="path4790"
         d="m 26.000834,245.66843 c 0.418115,-0.31856 0.836229,-0.65703 1.234434,-0.99551 v -1.67246 c -0.398205,0.39821 -0.816319,0.7765 -1.234434,1.13489 v 1.53308"
         inkscape:connector-curvature="0"
         style="fill:#dbb471;stroke-width:0.26458335" />
      <path
         id="0"
         d="m 20.286598,240.75061 c 0.219012,-0.0796 0.398204,-0.19911 0.577396,-0.33848 0.179193,-0.13937 0.338474,-0.27874 0.517666,-0.43802 0.179193,-0.13937 0.358385,-0.29866 0.557487,-0.39821 0.199102,-0.11946 0.457935,-0.17919 0.676948,-0.13937 -0.219013,0.0398 -0.418115,0.13937 -0.597307,0.27874 -0.179192,0.11947 -0.338474,0.27875 -0.517666,0.41812 -0.179192,0.13937 -0.358384,0.29865 -0.557487,0.41811 -0.199102,0.11947 -0.623652,0.29412 -0.760813,0.20642"
         inkscape:connector-curvature="0"
         style="fill:#784421;fill-opacity:1;stroke-width:0.26458335"
         sodipodi:nodetypes="ccccccscc" />
      <path
         id="path4793"
         d="m 25.801732,242.42307 c 0,0 0.975601,0.27874 3.245367,-0.31857 2.269766,-0.5973 1.194614,5.93325 -2.946714,5.93325 -0.457935,0 -0.477846,-0.5774 0.796409,-1.61273 0,0 -1.791921,0.41812 -1.015422,-0.91587 0,0 -1.274254,0.21901 -0.696858,-0.79641 0,0 0.258833,-0.75659 0.01991,-1.61273 0.01991,0 0.159281,-0.43802 0.597307,-0.67694"
         inkscape:connector-curvature="0"
         style="fill:#ffffff;fill-opacity:1;stroke-width:0.26458335" />
      <g
         transform="matrix(0.1991023,0,0,0.1991023,17.87746,235.83278)"
         id="g4801"
         style="fill:#784421;fill-opacity:1;stroke-width:1.32888138">
        <path
           id="path4795"
           d="m 61.5,34.7 c 0.2,8.8 -6.8,23.4 -20.7,23.4 -0.1,0 -0.1,0 -0.2,0 -1.3,2.1 -0.7,3.3 0.7,3.3 C 57.1,61.3 64,42.5 61.5,34.7"
           inkscape:connector-curvature="0"
           style="fill:#784421;fill-opacity:1;stroke-width:1.32888138" />
        <path
           id="path4797"
           d="m 54.3,39.5 c -3,10.8 -15,11.7 -15,11.7 -0.5,2.3 0.5,3.3 1.8,3.3 4.4,0.1 12.6,-7.2 13.2,-15"
           inkscape:connector-curvature="0"
           style="fill:#784421;fill-opacity:1;stroke-width:1.32888138" />
        <path
           id="path4799"
           d="m 45.9,39.5 c -7.1,10 -9.6,6.3 -9.6,6.3 -1.8,4 2.9,4 3.7,3.1 2.3,-2.5 6,-7.7 5.9,-9.4"
           inkscape:connector-curvature="0"
           style="fill:#784421;fill-opacity:1;stroke-width:1.32888138" />
      </g>
      <path
         style="fill:#784421;fill-opacity:1;stroke-width:0.26458335"
         inkscape:connector-curvature="0"
         d="m 25.941103,247.46035 c 0.238923,-0.31856 0.537576,-0.57739 0.83623,-0.83623 0.298653,-0.25883 0.597307,-0.51766 0.89596,-0.7964 0.278743,-0.27875 0.557487,-0.59731 0.756589,-0.9557 0.199102,-0.35838 0.298653,-0.77649 0.258833,-1.1747 -0.03982,0.39821 -0.179192,0.7765 -0.398205,1.09506 -0.219012,0.31857 -0.477845,0.61722 -0.756588,0.89596 -0.278744,0.27875 -0.577397,0.53758 -0.85614,0.83623 -0.298654,0.25884 -0.557487,0.5774 -0.736679,0.93578"
         id="path4803" />
      <path
         style="fill:#784421;fill-opacity:1;stroke-width:0.26458335"
         inkscape:connector-curvature="0"
         d="m 25.70218,246.02682 c 0.07964,-0.21901 0.199103,-0.39821 0.338474,-0.5774 0.139372,-0.17919 0.278744,-0.33847 0.438025,-0.51766 0.139372,-0.1792 0.298654,-0.35839 0.398205,-0.55749 0.119461,-0.1991 0.179192,-0.45794 0.139372,-0.67695 -0.03982,0.21901 -0.139372,0.41812 -0.278744,0.59731 -0.119461,0.17919 -0.278743,0.33847 -0.418114,0.51766 -0.139372,0.1792 -0.298654,0.35839 -0.418115,0.55749 -0.119462,0.1991 -0.199103,0.43803 -0.199103,0.65704"
         id="path4805" />
      <path
         id="path4809"
         d="m 23.890349,240.65106 c 0,0 -0.278743,-0.97561 0.318564,-3.24537 0.597307,-2.26977 -5.933248,-1.19462 -5.933248,2.94671 0,0.45794 0.577396,0.47785 1.612728,-0.79641 0,0 -0.418115,1.79192 0.915871,1.01542 0,0 -0.219013,1.27426 0.796409,0.69686 0,0 0.756589,-0.25883 1.612729,-0.0199 0,-0.0199 0.438025,-0.15928 0.676947,-0.5973"
         inkscape:connector-curvature="0"
         style="fill:#ffffff;fill-opacity:1;stroke-width:0.26458335" />
      <g
         transform="matrix(0.1991023,0,0,0.1991023,17.87746,235.83278)"
         id="g4817"
         style="fill:#784421;fill-opacity:1;stroke-width:1.32888138">
        <path
           id="path4811"
           d="M 28.6,2.5 C 18.471119,1.7186144 3.5804258,10.130551 3.5804258,24.030551 v 0.2 C 1.7740699,25.782924 1.6476271,24.276186 1.6476271,22.876186 1.6476271,7.0761864 20.8,0 28.6,2.5"
           inkscape:connector-curvature="0"
           style="fill:#784421;fill-opacity:1;stroke-width:1.32888138"
           sodipodi:nodetypes="cscsc" />
        <path
           id="path4813"
           d="M 23.8,9.7 C 13,12.7 11.578781,24.736753 11.578781,24.736753 9.2787811,25.236753 8.8,24.2 8.8,22.9 8.7,18.5 16,10.3 23.8,9.7"
           inkscape:connector-curvature="0"
           style="fill:#784421;fill-opacity:1;stroke-width:1.32888138"
           sodipodi:nodetypes="cccc" />
        <path
           id="path4815"
           d="m 23.8,18.1 c -10,7.1 -6.211907,9.717458 -6.211907,9.717458 C 13.588093,29.617458 13.5,24.8 14.4,24 c 2.5,-2.3 7.7,-6 9.4,-5.9"
           inkscape:connector-curvature="0"
           style="fill:#784421;fill-opacity:1;stroke-width:1.32888138"
           sodipodi:nodetypes="cccc" />
      </g>
      <path
         id="path4819"
         d="m 18.870601,240.5263 c 0.318564,-0.23892 0.559857,-0.55219 0.81869,-0.85085 0.258833,-0.29865 0.517666,-0.5973 0.796409,-0.89596 0.278743,-0.27874 0.597307,-0.55748 0.955691,-0.75658 0.358384,-0.19911 0.776499,-0.29866 1.174704,-0.25884 -0.398205,0.0398 -0.776499,0.17919 -1.095063,0.39821 -0.318564,0.21901 -0.617217,0.47784 -0.89596,0.75659 -0.278743,0.27874 -0.537576,0.57739 -0.83623,0.85614 -0.278743,0.29865 -0.522711,0.64678 -0.881095,0.82597"
         inkscape:connector-curvature="0"
         style="fill:#784421;fill-opacity:1;stroke-width:0.26458335"
         sodipodi:nodetypes="ccccccccc" />
      <use
         id="use4821"
         xlink:href="#0"
         x="0"
         y="0"
         width="100%"
         height="100%"
         style="fill:#784421;fill-opacity:1;stroke-width:1.32888138"
         transform="translate(-5.0272418e-8,4.3812848e-6)" />
    </g>
  </g>
</svg>
