<?xml version="1.0" encoding="UTF-8" standalone="no"?>
<!-- Created with Inkscape (http://www.inkscape.org/) -->

<svg
   xmlns:dc="http://purl.org/dc/elements/1.1/"
   xmlns:cc="http://creativecommons.org/ns#"
   xmlns:rdf="http://www.w3.org/1999/02/22-rdf-syntax-ns#"
   xmlns:svg="http://www.w3.org/2000/svg"
   xmlns="http://www.w3.org/2000/svg"
   xmlns:xlink="http://www.w3.org/1999/xlink"
   xmlns:sodipodi="http://sodipodi.sourceforge.net/DTD/sodipodi-0.dtd"
   xmlns:inkscape="http://www.inkscape.org/namespaces/inkscape"
   width="180"
   height="36"
   viewBox="0 0 47.624999 9.5250003"
   version="1.1"
   id="svg8"
   inkscape:version="0.92.1 r15371"
   sodipodi:docname="good-read.svg">
  <defs
     id="defs2">
    <filter
       inkscape:collect="always"
       id="filter3393">
      <feGaussianBlur
         inkscape:collect="always"
         stdDeviation="1.8779569"
         id="feGaussianBlur3395" />
    </filter>
    <linearGradient
       inkscape:collect="always"
       x1="397.19"
       y1="436.15"
       gradientTransform="translate(-129.51 418.05)"
       x2="972.31"
       gradientUnits="userSpaceOnUse"
       y2="85.838"
       id="linearGradient3548">
      <stop
         offset="0"
         style="stop-color:#5a8128"
         id="stop3544" />
      <stop
         offset="1"
         style="stop-color:#3d4c1e"
         id="stop3546" />
    </linearGradient>
    <filter
       inkscape:collect="always"
       id="filter3562">
      <feGaussianBlur
         inkscape:collect="always"
         stdDeviation="13.76578"
         id="feGaussianBlur3564" />
    </filter>
    <filter
       inkscape:collect="always"
       x="-.021934"
       y="-.10036"
       width="1.0439"
       height="1.2007"
       id="filter3697">
      <feGaussianBlur
         inkscape:collect="always"
         stdDeviation="7.8688405"
         id="feGaussianBlur3699" />
    </filter>
    <clipPath
       clipPathUnits="userSpaceOnUse"
       id="clipPath4952">
      <rect
         style="color:#000000;clip-rule:nonzero;display:inline;overflow:visible;visibility:visible;opacity:1;isolation:auto;mix-blend-mode:normal;color-interpolation:sRGB;color-interpolation-filters:linearRGB;solid-color:#000000;solid-opacity:1;fill:#ffffff;fill-opacity:1;fill-rule:evenodd;stroke:none;stroke-width:1.99999988;stroke-linecap:butt;stroke-linejoin:miter;stroke-miterlimit:4;stroke-dasharray:none;stroke-dashoffset:0;stroke-opacity:1;color-rendering:auto;image-rendering:auto;shape-rendering:auto;text-rendering:auto;enable-background:accumulate"
         id="rect4954"
         width="54.0406"
         height="34"
         x="-235.28493"
         y="15.760691" />
    </clipPath>
  </defs>
  <sodipodi:namedview
     id="base"
     pagecolor="#ffffff"
     bordercolor="#666666"
     borderopacity="1.0"
     inkscape:pageopacity="0.0"
     inkscape:pageshadow="2"
     inkscape:zoom="1.4"
     inkscape:cx="-7.61058"
     inkscape:cy="-36.365015"
     inkscape:document-units="px"
     inkscape:current-layer="g5143"
     showgrid="false"
     units="px"
     inkscape:window-width="1680"
     inkscape:window-height="987"
     inkscape:window-x="-8"
     inkscape:window-y="-8"
     inkscape:window-maximized="1">
    <inkscape:grid
       type="xygrid"
       id="grid4956" />
  </sodipodi:namedview>
  <metadata
     id="metadata5">
    <rdf:RDF>
      <cc:Work
         rdf:about="">
        <dc:format>image/svg+xml</dc:format>
        <dc:type
           rdf:resource="http://purl.org/dc/dcmitype/StillImage" />
        <dc:title></dc:title>
      </cc:Work>
    </rdf:RDF>
  </metadata>
  <g
     inkscape:label="Layer 1"
     inkscape:groupmode="layer"
     id="layer1"
     transform="translate(0,-287.47498)">
    <rect
       style="color:#000000;clip-rule:nonzero;display:inline;overflow:visible;visibility:visible;opacity:1;isolation:auto;mix-blend-mode:normal;color-interpolation:sRGB;color-interpolation-filters:linearRGB;solid-color:#000000;solid-opacity:1;fill:#2c89a0;fill-opacity:1;fill-rule:evenodd;stroke:none;stroke-width:0.99999994;stroke-linecap:butt;stroke-linejoin:miter;stroke-miterlimit:4;stroke-dasharray:none;stroke-dashoffset:0;stroke-opacity:1;color-rendering:auto;image-rendering:auto;shape-rendering:auto;text-rendering:auto;enable-background:accumulate"
       id="rect4750"
       width="47.625"
       height="6.614583"
       x="-3.5527137e-015"
       y="290.38541"
       rx="1.3229166"
       ry="1.3229166" />
    <text
       xml:space="preserve"
       style="font-style:normal;font-variant:normal;font-weight:bold;font-stretch:normal;font-size:3.66805744px;line-height:2;font-family:'Open Sans';-inkscape-font-specification:'Open Sans Bold';font-variant-ligatures:normal;font-variant-caps:normal;font-variant-numeric:normal;font-feature-settings:normal;text-align:center;letter-spacing:0px;word-spacing:0px;writing-mode:lr-tb;text-anchor:middle;fill:#ffffff;fill-opacity:1;stroke:none;stroke-width:0.26458332px;stroke-linecap:butt;stroke-linejoin:miter;stroke-opacity:1"
       x="30.447332"
       y="295.00287"
       id="text4754"><tspan
         sodipodi:role="line"
         id="tspan4752"
         x="30.447332"
         y="295.00287"
         style="font-style:normal;font-variant:normal;font-weight:bold;font-stretch:normal;font-family:'Open Sans';-inkscape-font-specification:'Open Sans Bold';fill:#ffffff;stroke-width:0.26458332px">GOOD READ</tspan></text>
    <g
       id="g5143"
       transform="matrix(0.26458333,0,0,0.26458333,64.531284,283.30499)"
       style="fill:#2c89a0;fill-opacity:1"
       clip-path="url(#clipPath4952)"
       mask="none">
      <path
         sodipodi:type="inkscape:offset"
         inkscape:radius="3.6639788"
         inkscape:original="M -188.57227 19.416016 C -189.33353 19.877743 -189.41111 20.082822 -190.26758 20.378906 C -190.90229 20.596946 -191.98725 20.654963 -193.27539 21.111328 C -195.60588 21.937281 -197.34768 23.068437 -198.97461 24.175781 C -204.24288 27.762848 -206.75562 30.283936 -207.52734 31.556641 C -208.74299 33.072955 -210.88534 34.351847 -212.66602 35.033203 C -214.10567 35.256305 -217.34803 36.628634 -222.63672 40.183594 C -222.84038 40.320547 -223.04565 40.458785 -223.25195 40.599609 C -224.69394 41.590304 -226.17789 42.712903 -227.63281 44.353516 C -228.55152 45.390417 -229.0336 46.393036 -229.48047 46.90625 C -230.08367 47.598738 -230.29888 47.59074 -231.01172 48.126953 C -231.08032 48.177833 -231.06918 48.276273 -231.01758 48.357422 L -230.16406 49.697266 C -230.11016 49.781976 -230.04005 49.83012 -229.9668 49.810547 C -229.45323 49.67794 -228.46115 49.320208 -228.34375 49.535156 C -227.08515 51.832012 -224.92483 54.070116 -223.71484 55.160156 C -222.80956 55.975001 -222.04276 56.311286 -221.17383 55.880859 C -217.52467 54.070845 -213.75765 51.074888 -210.48242 48.34375 C -209.46785 47.497593 -208.01565 46.62601 -208.02734 45.238281 C -208.05724 41.739041 -208.81279 39.931912 -209.57617 37.818359 C -209.78483 37.240324 -209.99044 36.727678 -209.95117 36.226562 C -209.91247 35.724564 -209.48358 35.188696 -209.0957 34.935547 L -209.09375 34.9375 C -208.65169 34.593115 -208.11471 34.485121 -207.54492 34.599609 C -207.07053 34.694049 -206.71077 35.160022 -206.2793 35.587891 C -204.70347 37.150175 -203.39198 38.583308 -200.29102 40.003906 C -199.06046 40.568249 -197.71171 39.542252 -196.55469 38.919922 C -192.82094 36.909334 -188.65201 34.539367 -185.58984 31.808594 C -184.85975 31.158366 -184.85593 30.300057 -185.2207 29.119141 C -185.70921 27.540142 -186.83951 24.604442 -188.38281 22.5 C -188.52627 22.303421 -187.81387 21.508833 -187.49023 21.076172 C -187.44503 21.014242 -187.45782 20.928465 -187.51172 20.84375 L -188.36523 19.501953 C -188.41633 19.421693 -188.4991 19.372244 -188.57227 19.416016 z M -191.20898 21.550781 C -190.79383 21.499251 -190.51213 21.645649 -190.11328 21.900391 C -188.60104 22.865695 -186.65162 26.592433 -185.83789 29.582031 C -185.70827 30.05679 -185.79971 30.350368 -185.96289 30.757812 C -186.58368 32.307757 -197.98183 38.886328 -199.24219 39.232422 C -199.63983 39.341952 -200.07182 39.208427 -200.48242 38.978516 C -202.08373 38.081724 -205.73183 35.472745 -206.30078 33.363281 C -206.43005 32.885893 -206.33949 32.592098 -206.17578 32.185547 C -205.6546 30.894371 -201.74378 27.285766 -197.75586 24.621094 C -195.36288 23.022644 -192.94181 21.76376 -191.20898 21.550781 z M -212.64258 36.560547 C -212.21535 36.566447 -211.91917 36.597863 -211.54492 36.910156 C -209.89514 38.288789 -209.02542 42.777204 -208.86523 44.648438 C -208.82433 45.128383 -208.87713 45.59136 -209.13281 45.923828 C -209.9424 46.97666 -220.3338 55.141161 -221.96094 55.111328 C -222.38855 55.103228 -222.68504 55.071125 -223.05664 54.759766 C -225.3925 52.800095 -227.93088 49.474471 -228.1875 47.660156 C -228.2552 47.181875 -228.27342 46.854999 -228.0625 46.482422 C -227.18187 44.928709 -225.09942 43.1387 -222.72461 41.511719 C -218.76751 38.800208 -213.99911 36.53905 -212.64258 36.560547 z "
         xlink:href="#path3257"
         style="color:#000000;fill:#2c89a0;fill-opacity:1;fill-rule:evenodd;stroke-width:1"
         id="path4947"
         inkscape:href="#path3257"
         d="m -188.60547,15.785156 c -0.64103,0.0152 -1.30738,0.163122 -1.84765,0.486328 a 3.6643452,3.6643452 0 0 0 -0.0195,0.01172 c -0.5391,0.326981 -0.88934,0.591899 -0.92773,0.617188 -0.0384,0.02529 0.14918,-0.05823 -0.0645,0.01563 0.37845,-0.131649 -1.23142,0.103847 -3.03321,0.742187 a 3.6643452,3.6643452 0 0 0 -0.002,0 c -2.78148,0.985788 -4.86406,2.349547 -6.53711,3.488281 -5.48043,3.731521 -8.13533,6.056262 -9.62305,8.509766 l 0.27344,-0.390625 c -0.53046,0.661665 -2.32033,1.860685 -3.58789,2.345703 l 0.74805,-0.199219 c -2.86393,0.443822 -5.95329,2.032268 -11.45508,5.730469 -0.20505,0.137886 -0.41786,0.282243 -0.63672,0.431641 a 3.6643452,3.6643452 0 0 0 -0.008,0.0059 c -1.53976,1.057864 -3.32383,2.396633 -5.04883,4.341797 a 3.6643452,3.6643452 0 0 0 0,0.002 c -1.27426,1.438191 -2.11722,2.861082 -1.86914,2.576172 -0.15526,0.178243 -0.0126,0.0399 -0.0508,0.06641 -0.0375,0.02604 -0.41263,0.253151 -0.9043,0.621094 -1.01571,0.756338 -1.53834,2.173086 -1.52344,3.101562 0.0149,0.929831 0.29159,1.529241 0.61328,2.035157 a 3.6643452,3.6643452 0 0 0 0.002,0.002 l 0.85156,1.33789 c 0.24444,0.384166 0.59097,0.844148 1.28906,1.265626 0.46654,0.281669 1.16333,0.424925 1.88282,0.455078 1.3798,1.90072 2.85166,3.539207 3.91601,4.498046 a 3.6643452,3.6643452 0 0 0 0.002,0 c 0.64869,0.583886 1.4183,1.211981 2.61914,1.595704 1.20085,0.383722 2.8413,0.259515 4,-0.314454 a 3.6643452,3.6643452 0 0 0 0.002,0 c 4.19177,-2.079153 8.08389,-5.233793 11.4082,-8.005859 a 3.6643452,3.6643452 0 0 0 0.002,0 c 0.32215,-0.268673 1.04918,-0.751161 1.87891,-1.595703 0.82973,-0.844542 1.90924,-2.377213 1.89258,-4.355469 -0.0126,-1.469125 -0.24387,-2.57574 -0.45508,-3.707031 0.90257,0.624227 1.74866,1.260517 3,1.833984 1.84109,0.844337 3.73177,0.411947 4.82813,-0.04297 1.09635,-0.454916 1.81006,-0.949924 2.17187,-1.144532 3.78886,-2.040261 8.15724,-4.473076 11.66602,-7.601562 l 0.002,-0.002 c 0.95963,-0.855723 1.67037,-2.274179 1.79883,-3.496094 0.12854,-1.222744 -0.11182,-2.176701 -0.36914,-3.009766 -0.42987,-1.389444 -1.30549,-3.453166 -2.46485,-5.533203 0.6109,-1.438626 0.20482,-2.936674 -0.23437,-3.626953 l -0.85352,-1.341797 a 3.6643452,3.6643452 0 0 0 -0.002,-0.002 c -0.3238,-0.508571 -0.75644,-1.029138 -1.63477,-1.439453 -0.43916,-0.205157 -1.05428,-0.323797 -1.69531,-0.308594 z m -3.05078,9.84961 c 0.22672,0.284222 0.32616,0.367732 0.72656,1.101562 0.44332,0.812479 0.76015,1.752376 1.08594,2.65625 -0.1545,0.116663 -0.22472,0.183332 -0.4082,0.314453 -1.05305,0.752548 -2.52628,1.700446 -4.01953,2.611328 -1.49326,0.910883 -3.01835,1.793959 -4.21485,2.451172 -0.37597,0.206514 -0.63675,0.338175 -0.93164,0.492188 -0.60158,-0.388847 -1.26473,-0.800893 -1.95703,-1.402344 -0.56007,-0.486573 -0.59073,-0.55665 -0.82031,-0.855469 0.37157,-0.395922 0.80681,-0.842091 1.39062,-1.371094 1.39884,-1.26751 3.26527,-2.749602 5.08399,-3.964843 1.78897,-1.19499 3.20776,-1.731073 4.06445,-2.033203 z m -21.88867,14.996093 c 0.19054,0.361561 0.19176,0.339708 0.3789,0.984375 0.27854,0.959469 0.40103,1.850702 0.50391,2.589844 -0.27308,0.235056 -0.53549,0.462315 -0.91016,0.769531 -1.06206,0.87086 -2.45589,1.96339 -3.86132,3.013672 -1.40544,1.050283 -2.83738,2.065452 -3.92579,2.761719 -0.1268,0.08112 -0.17823,0.102037 -0.29492,0.173828 -0.62851,-0.634995 -1.28663,-1.245848 -1.79687,-1.939453 -0.5425,-0.737452 -0.62476,-0.998005 -0.76953,-1.277344 0.59618,-0.704174 1.73705,-1.918587 3.5664,-3.171875 1.80421,-1.236291 3.86656,-2.412445 5.54688,-3.228515 0.62118,-0.301686 1.09548,-0.488461 1.5625,-0.675782 z" />
      <path
         sodipodi:type="inkscape:offset"
         inkscape:radius="1.647278"
         inkscape:original="M -188.57227 19.416016 C -189.33353 19.877743 -189.41111 20.082822 -190.26758 20.378906 C -190.90229 20.596946 -191.98725 20.654963 -193.27539 21.111328 C -195.60588 21.937281 -197.34768 23.068437 -198.97461 24.175781 C -204.24288 27.762848 -206.75562 30.283936 -207.52734 31.556641 C -208.74299 33.072955 -210.88534 34.351847 -212.66602 35.033203 C -214.10567 35.256305 -217.34803 36.628634 -222.63672 40.183594 C -222.84038 40.320547 -223.04565 40.458785 -223.25195 40.599609 C -224.69394 41.590304 -226.17789 42.712903 -227.63281 44.353516 C -228.55152 45.390417 -229.0336 46.393036 -229.48047 46.90625 C -230.08367 47.598738 -230.29888 47.59074 -231.01172 48.126953 C -231.08032 48.177833 -231.06918 48.276273 -231.01758 48.357422 L -230.16406 49.697266 C -230.11016 49.781976 -230.04005 49.83012 -229.9668 49.810547 C -229.45323 49.67794 -228.46115 49.320208 -228.34375 49.535156 C -227.08515 51.832012 -224.92483 54.070116 -223.71484 55.160156 C -222.80956 55.975001 -222.04276 56.311286 -221.17383 55.880859 C -217.52467 54.070845 -213.75765 51.074888 -210.48242 48.34375 C -209.46785 47.497593 -208.01565 46.62601 -208.02734 45.238281 C -208.05724 41.739041 -208.81279 39.931912 -209.57617 37.818359 C -209.78483 37.240324 -209.99044 36.727678 -209.95117 36.226562 C -209.91247 35.724564 -209.48358 35.188696 -209.0957 34.935547 L -209.09375 34.9375 C -208.65169 34.593115 -208.11471 34.485121 -207.54492 34.599609 C -207.07053 34.694049 -206.71077 35.160022 -206.2793 35.587891 C -204.70347 37.150175 -203.39198 38.583308 -200.29102 40.003906 C -199.06046 40.568249 -197.71171 39.542252 -196.55469 38.919922 C -192.82094 36.909334 -188.65201 34.539367 -185.58984 31.808594 C -184.85975 31.158366 -184.85593 30.300057 -185.2207 29.119141 C -185.70921 27.540142 -186.83951 24.604442 -188.38281 22.5 C -188.52627 22.303421 -187.81387 21.508833 -187.49023 21.076172 C -187.44503 21.014242 -187.45782 20.928465 -187.51172 20.84375 L -188.36523 19.501953 C -188.41633 19.421693 -188.4991 19.372244 -188.57227 19.416016 z M -191.20898 21.550781 C -190.79383 21.499251 -190.51213 21.645649 -190.11328 21.900391 C -188.60104 22.865695 -186.65162 26.592433 -185.83789 29.582031 C -185.70827 30.05679 -185.79971 30.350368 -185.96289 30.757812 C -186.58368 32.307757 -197.98183 38.886328 -199.24219 39.232422 C -199.63983 39.341952 -200.07182 39.208427 -200.48242 38.978516 C -202.08373 38.081724 -205.73183 35.472745 -206.30078 33.363281 C -206.43005 32.885893 -206.33949 32.592098 -206.17578 32.185547 C -205.6546 30.894371 -201.74378 27.285766 -197.75586 24.621094 C -195.36288 23.022644 -192.94181 21.76376 -191.20898 21.550781 z M -212.64258 36.560547 C -212.21535 36.566447 -211.91917 36.597863 -211.54492 36.910156 C -209.89514 38.288789 -209.02542 42.777204 -208.86523 44.648438 C -208.82433 45.128383 -208.87713 45.59136 -209.13281 45.923828 C -209.9424 46.97666 -220.3338 55.141161 -221.96094 55.111328 C -222.38855 55.103228 -222.68504 55.071125 -223.05664 54.759766 C -225.3925 52.800095 -227.93088 49.474471 -228.1875 47.660156 C -228.2552 47.181875 -228.27342 46.854999 -228.0625 46.482422 C -227.18187 44.928709 -225.09942 43.1387 -222.72461 41.511719 C -218.76751 38.800208 -213.99911 36.53905 -212.64258 36.560547 z "
         xlink:href="#path3257"
         style="color:#000000;fill:#ffffff;fill-opacity:1;fill-rule:evenodd;stroke-width:1"
         id="path4949"
         inkscape:href="#path3257"
         d="m -187.76367,17.919922 c -0.41483,-0.193787 -1.14836,-0.220634 -1.6543,0.08203 a 1.6474427,1.6474427 0 0 0 -0.008,0.0059 c -0.45188,0.274077 -0.726,0.484445 -0.86524,0.576172 -0.13923,0.09173 -0.18387,0.123594 -0.51562,0.238282 -0.17702,0.05995 -1.50046,0.198146 -3.01953,0.736328 -2.53325,0.897812 -4.42851,2.134402 -6.07617,3.255859 -5.36366,3.652012 -7.93959,6.085095 -9.03321,7.888672 l 0.12305,-0.177734 c -0.9076,1.132074 -2.89142,2.375665 -4.44141,2.96875 l 0.33594,-0.08789 c -2.07999,0.322335 -5.25417,1.790797 -10.63867,5.410156 -0.20428,0.137373 -0.41305,0.277197 -0.625,0.421875 a 1.6474427,1.6474427 0 0 0 -0.004,0.0039 c -1.48594,1.020893 -3.10334,2.240043 -4.67968,4.017578 a 1.6474427,1.6474427 0 0 0 0,0.002 c -1.07856,1.217316 -1.723,2.408112 -1.85743,2.5625 -0.2358,0.270713 -0.28455,0.303086 -0.42187,0.398437 -0.13582,0.09431 -0.43181,0.270268 -0.84766,0.582032 -0.47684,0.353669 -0.72192,1.012455 -0.71484,1.453124 0.007,0.44067 0.14,0.734589 0.29883,0.984376 a 1.6474427,1.6474427 0 0 0 0.002,0 l 0.85352,1.339843 c 0.12468,0.195811 0.29717,0.420812 0.6289,0.621094 0.33225,0.200597 0.89413,0.329799 1.38281,0.199219 0.16314,-0.04244 0.28051,-0.07745 0.42969,-0.121094 1.39292,2.161681 3.15126,4.074987 4.29297,5.103516 a 1.6474427,1.6474427 0 0 0 0.002,0 c 0.54078,0.486758 1.1173,0.926635 1.88477,1.171875 0.76747,0.245239 1.72821,0.177286 2.48828,-0.199219 a 1.6474427,1.6474427 0 0 0 0.002,0 c 3.89312,-1.931016 7.71638,-4.998508 11.01368,-7.748047 0.42405,-0.35366 1.09056,-0.807615 1.73242,-1.460937 0.64186,-0.653323 1.32516,-1.652518 1.31445,-2.923829 -0.0319,-3.730505 -0.8993,-5.896244 -1.64648,-7.964843 v -0.002 c -0.21316,-0.591114 -0.2678,-0.889115 -0.27344,-0.876953 a 1.6474427,1.6474427 0 0 0 0.10547,-0.06641 1.6474427,1.6474427 0 0 0 0.11328,-0.07813 c 0.0636,-0.04953 0.0352,-0.05718 0.21289,-0.02148 a 1.6474427,1.6474427 0 0 0 0.002,0 c -0.38681,-0.07701 -0.10325,0.01641 0.42774,0.542968 1.54237,1.529116 3.13972,3.22229 6.46093,4.744141 1.16639,0.534914 2.37208,0.275476 3.21485,-0.07422 0.84277,-0.349694 1.50915,-0.797878 1.99023,-1.05664 3.75885,-2.024105 8.01619,-4.424014 11.2793,-7.333985 0.63207,-0.563586 1.05333,-1.407905 1.13672,-2.201171 0.0834,-0.793822 -0.073,-1.503594 -0.28906,-2.203126 -0.46282,-1.495932 -1.47019,-3.947847 -2.85938,-6.140624 0.11464,-0.144195 0.21302,-0.267974 0.33398,-0.429688 a 1.6474427,1.6474427 0 0 0 0.0117,-0.01563 c 0.55945,-0.766517 0.29995,-1.677853 0.0391,-2.087891 l -0.85352,-1.341796 a 1.6474427,1.6474427 0 0 0 -0.002,0 c -0.15964,-0.250736 -0.37229,-0.503479 -0.78711,-0.697266 z m -3.24414,5.265625 a 1.6474427,1.6474427 0 0 0 0.002,0 c -0.0537,0.0067 -0.33774,-0.11594 0.006,0.103515 0.21632,0.138081 1.1258,1.17378 1.83984,2.482422 0.71404,1.308643 1.36755,2.903622 1.73243,4.244141 0.0323,0.118416 0.0761,-0.22218 -0.0645,0.128906 0.17108,-0.427145 0.0484,-0.09604 -0.25586,0.171875 -0.30428,0.267911 -0.77179,0.630879 -1.33203,1.03125 -1.12048,0.800743 -2.62035,1.765997 -4.14062,2.69336 -1.52028,0.927362 -3.06594,1.821038 -4.29492,2.496093 -0.6145,0.337528 -1.15172,0.619493 -1.55469,0.820313 -0.40298,0.20082 -0.78669,0.336335 -0.60742,0.287109 a 1.6474427,1.6474427 0 0 0 -0.002,0 c 0.2273,-0.06261 0.22004,0.0186 0.002,-0.103515 -0.67177,-0.376216 -1.94346,-1.221642 -3.02149,-2.158204 -1.07803,-0.936561 -1.91329,-2.084296 -2.01172,-2.449218 -0.0336,-0.123952 -0.0711,0.195516 0.0625,-0.13086 v -0.002 c -0.0368,0.09163 0.22931,-0.369974 0.67578,-0.86914 0.44711,-0.499867 1.07387,-1.123679 1.8125,-1.792969 1.47694,-1.338275 3.40362,-2.868924 5.31836,-4.148438 2.29843,-1.53529 4.69684,-2.664923 5.83399,-2.804687 z m -21.5918,14.990234 c 0.25973,0.218137 0.96545,1.481588 1.37109,2.878907 0.40598,1.398459 0.65463,2.939665 0.72266,3.734374 0.0231,0.271133 -0.0616,0.297328 0.0664,0.13086 0.10424,-0.135558 -0.16416,0.169001 -0.50391,0.470703 -0.33975,0.301702 -0.80638,0.695548 -1.35156,1.142578 -1.09036,0.89406 -2.50101,2.001196 -3.93164,3.070313 -1.43064,1.069116 -2.88648,2.104626 -4.04492,2.845703 -0.57923,0.370538 -1.08748,0.667339 -1.44532,0.847656 -0.35783,0.180317 -0.71596,0.158781 -0.21484,0.167969 -0.31878,-0.0015 0.0154,0.101713 -0.0664,0.0332 -1.04151,-0.873778 -2.1974,-2.123795 -3.07617,-3.318359 -0.87877,-1.194565 -1.44004,-2.450389 -1.48242,-2.75 -0.0589,-0.415767 -0.0597,-0.157037 -0.0723,-0.134766 0.59894,-1.056717 2.55546,-2.861472 4.83594,-4.423828 1.90017,-1.302046 4.02751,-2.515792 5.80469,-3.378906 0.88859,-0.431558 1.69091,-0.775455 2.31055,-0.998047 0.61963,-0.222593 1.14338,-0.284992 1.00976,-0.28711 a 1.6474427,1.6474427 0 0 0 0.002,0 c 0.35701,0.0049 -0.0213,-0.104447 0.0664,-0.03125 z" />
      <path
         id="path3257"
         sodipodi:nodetypes="csssccssssssszccssssssssccssscccsccssssssssccssssssssc"
         style="color:#000000;fill:#ffffff;fill-opacity:1;fill-rule:evenodd;stroke-width:1"
         d="m -223.25112,40.599327 c -1.44199,0.990695 -2.92652,2.113359 -4.38144,3.753972 -0.91871,1.036901 -1.40056,2.040316 -1.84743,2.55353 -0.6032,0.692488 -0.81909,0.683548 -1.53193,1.219761 -0.0686,0.05088 -0.0576,0.150118 -0.006,0.231267 l 0.85294,1.340317 c 0.0539,0.08471 0.12555,0.131531 0.1988,0.111958 0.51357,-0.132607 1.50519,-0.490509 1.62259,-0.275561 1.2586,2.296856 3.41933,4.536151 4.62932,5.626191 0.90528,0.814845 1.67242,1.151234 2.54135,0.720807 3.64916,-1.810014 7.41505,-4.807526 10.69028,-7.538664 1.01457,-0.846157 2.46604,-1.716121 2.45435,-3.10385 -0.0299,-3.49924 -0.78384,-5.307737 -1.54722,-7.42129 -0.20866,-0.578035 -0.41407,-1.090012 -0.3748,-1.591128 0.0387,-0.501998 0.46743,-1.038912 0.85531,-1.292061 l 0.001,0.0027 c 0.44206,-0.344385 0.97848,-0.452321 1.54827,-0.337833 0.47439,0.09444 0.83549,0.560867 1.26696,0.988736 1.57583,1.562284 2.88603,2.995801 5.98699,4.416399 1.23056,0.564343 2.58083,-0.463041 3.73785,-1.085371 3.73375,-2.010588 7.90106,-4.378949 10.96323,-7.109722 0.73009,-0.650228 0.73546,-1.509262 0.37069,-2.690178 -0.48851,-1.578999 -1.61962,-4.514127 -3.16292,-6.618569 -0.14346,-0.196579 0.56878,-0.991917 0.89242,-1.424578 0.0452,-0.06193 0.0331,-0.148436 -0.0208,-0.233151 l -0.8535,-1.341208 c -0.0511,-0.08026 -0.13475,-0.129972 -0.20792,-0.0862 -0.76126,0.461727 -0.83907,0.668168 -1.69554,0.964252 -0.63471,0.21804 -1.71925,0.274411 -3.00739,0.730776 -2.33049,0.825953 -4.07222,1.958156 -5.69915,3.0655 -5.26827,3.587067 -7.78051,6.107697 -8.55223,7.380402 -1.21565,1.516314 -3.35732,2.794511 -5.138,3.475867 -1.43965,0.223102 -4.68301,1.59646 -9.9717,5.15142 -0.20366,0.136953 -0.40886,0.274706 -0.61516,0.41553 z m 0.5266,0.912442 c 3.9571,-2.711511 8.72556,-4.972197 10.08209,-4.9507 0.42723,0.0059 0.72293,0.03764 1.09718,0.349933 1.64978,1.378633 2.51924,5.866861 2.67943,7.738094 0.0409,0.479946 -0.0121,0.941601 -0.26778,1.274069 -0.80959,1.052832 -11.19963,9.217205 -12.82677,9.187372 -0.42761,-0.0081 -0.72482,-0.039 -1.09642,-0.350359 -2.33586,-1.959671 -4.87437,-5.286451 -5.13099,-7.100766 -0.0677,-0.478281 -0.0866,-0.804652 0.12432,-1.177229 0.88063,-1.553713 2.96413,-3.343433 5.33894,-4.970414 z m 24.968,-16.891267 c 2.39298,-1.59845 4.81471,-2.856677 6.54754,-3.069656 0.41515,-0.05153 0.69757,0.09562 1.09642,0.350362 1.51224,0.965304 3.46148,4.690563 4.27521,7.680161 0.12962,0.474759 0.0383,0.768892 -0.12488,1.176337 -0.62079,1.549945 -12.0204,8.12787 -13.28076,8.473964 -0.39764,0.10953 -0.82855,-0.02403 -1.23915,-0.253941 -1.60131,-0.896792 -5.24925,-3.505664 -5.8182,-5.615128 -0.12927,-0.477388 -0.0394,-0.770672 0.12431,-1.177223 0.52118,-1.291176 4.43159,-4.900204 8.41951,-7.564876 z"
         inkscape:connector-curvature="0" />
    </g>
    <g
       id="g4871"
       transform="matrix(0.26458333,0,0,0.26458333,-107.17834,277.51944)">
      <g
         transform="translate(129.51,-418.05)"
         inkscape:label="Hintergrund"
         style="display:none"
         id="layer1-9">
        <path
           d="M -341.75,451.31 504.1,411.23 c 54.85,-5.22 119.26,0.71 144.42,13.31 L 1078,639.5 c 25.1,12.59 1.2,26.94 -53.6,32.16 l -818.56,77.9 C 150.99,754.78 86.58,748.84 61.42,736.25 L -395.34,483.47 c -25.16,-12.6 -1.26,-26.94 53.59,-32.16 z"
           style="color:#000000;fill:#000000;fill-rule:evenodd;filter:url(#filter3562)"
           sodipodi:nodetypes="ccccccccc"
           id="path3550"
           inkscape:connector-curvature="0" />
        <path
           d="M -341.75,449.31 504.1,409.23 c 54.85,-5.22 119.26,0.71 144.42,13.31 L 1078,637.5 c 25.1,12.59 1.2,26.94 -53.6,32.16 l -818.56,77.9 C 150.99,752.78 86.58,746.84 61.42,734.25 L -395.34,481.47 c -25.16,-12.6 -1.26,-26.94 53.59,-32.16 z"
           style="color:#000000;fill:url(#linearGradient3548);fill-rule:evenodd"
           sodipodi:nodetypes="ccccccccc"
           id="rect2832"
           inkscape:connector-curvature="0" />
      </g>
      <g
         transform="translate(129.51,-418.05)"
         inkscape:label="Schatten"
         style="display:none"
         id="layer10">
        <path
           d="m -124,492.36 c 4,-6 42.719,-13.51 58,-4 68,42.34 162,86.67 230,129 0,0 45.51,-30.29 102,-32 75.5,-2.25 113,16 113,16 44.68,-39.28 68.67,-26.66 108,-7 0,0 38.5,-30 92,-34 53.5,-4 99,7 133.5,29 -10.76,-18.45 -162.65,-113.11 -171.5,-121 -3.9,-3.48 -48.83,-2.66 -50,-12.5 5.83,-4.16 46.99,0.29 52,4 26.55,19.68 176.55,104.87 194,131 -9.55,22.14 -71.67,28.17 -109,23.5 -46.67,0 -74.33,3 -121,3 -25.33,-6 -57.88,-28.49 -80,-27 -22.17,1.5 -55,28 -69,38 -14,10 -132,12 -132,12 -26,0.67 -44,1.34 -70,2 -74.333,-48.33 -156.67,-96.66 -231,-145 -12.824,-8.34 -46,4 -49,-5 z"
           style="fill:#000000;fill-opacity:0.07220202;fill-rule:evenodd;filter:url(#filter3697)"
           sodipodi:nodetypes="cscsccscscsccczsccsc"
           id="path3476"
           inkscape:connector-curvature="0" />
      </g>
      <g
         transform="translate(129.51,-418.05)"
         inkscape:label="Glashalter_Lichteffekt1"
         style="display:none"
         id="layer6">
        <path
           d="m 601.75,468.17 c -1.82,-0.01 -3.65,0 -5.47,0.03 -32.07,0.83 -64.11,3.71 -95.89,7.81 -22.55,3.33 -45.42,6.66 -66.64,15.12 -23.05,6.56 -47.5,6.93 -71.2,4.32 -18.11,-4.97 -37.13,-5.36 -55.83,-6.01 -34,-0.49 -68.04,1.01 -101.89,4.24 -25.09,2.77 -50.15,7.88 -73.28,18.32 -8.67,4.01 -18.14,5.55 -27.62,5.69 -1.53,0.31 -4.943,-0.55 -4.119,2.2 0.176,4.89 -0.313,10.01 0.172,14.79 0.307,0.1 0.627,0.18 0.937,0.27 -0.37,-4.57 0.06,-9.41 -0.11,-14.06 -0.821,-2.75 2.59,-1.89 4.12,-2.2 9.49,-0.14 18.95,-1.68 27.62,-5.68 23.13,-10.45 48.19,-15.56 73.28,-18.33 33.85,-3.23 67.89,-4.73 101.89,-4.24 18.7,0.65 37.72,1.04 55.83,6.01 23.7,2.62 48.15,2.24 71.2,-4.32 21.22,-8.45 44.09,-11.79 66.64,-15.12 31.78,-4.1 63.83,-6.98 95.89,-7.81 14.55,-0.21 29.15,0.57 43.53,2.63 12.29,1.39 23.87,6.19 36,8.29 6.87,1.3 14.02,-0.17 20.88,-0.11 -0.02,-0.32 -0.02,-0.66 -0.03,-0.98 -7.16,-0.23 -14.66,1.45 -21.85,0.09 -12.13,-2.1 -23.71,-6.9 -36,-8.29 -12.58,-1.81 -25.33,-2.63 -38.06,-2.66 z m 62.74,18.24 c 3.8,4.15 5.71,10.12 6.73,15.52 2.95,19.04 -0.07,38.52 -4.63,57.06 -2.05,6.75 -3.42,13.95 -7.12,20 -4.39,5.83 -11.61,8.24 -18.58,9.17 -27.15,4.13 -54.73,4.73 -82.15,5.68 -28.72,0.6 -57.49,1.22 -86.18,-0.36 -4.67,0.1 -9.08,-1.82 -12.43,-4.96 3.44,3.73 8.28,6.07 13.43,5.97 28.7,1.58 57.46,0.95 86.18,0.36 27.42,-0.96 55.01,-1.56 82.15,-5.69 6.97,-0.93 14.19,-3.33 18.58,-9.17 3.7,-6.05 5.07,-13.25 7.12,-20 4.56,-18.54 7.58,-38.02 4.63,-57.06 -1.1,-5.85 -3.25,-12.38 -7.73,-16.52 z m -304.13,24.4 c 1.26,1.4 2.25,3.05 2.85,5.01 3.45,11.54 0,23.78 -3.32,34.94 -5.27,15.5 -12,30.66 -21.1,44.31 -3.55,5.14 -9.61,7.73 -15.67,8.49 -35.51,6.19 -71.36,10.09 -107.24,13.48 -21.08,1.64 -42.26,3.83 -63.42,2.55 -4.53,-0.18 -9.29,-1.86 -12.69,-4.9 3.43,3.67 8.69,5.7 13.69,5.9 21.16,1.28 42.34,-0.91 63.42,-2.55 35.88,-3.39 71.73,-7.29 107.24,-13.47 6.06,-0.76 12.12,-3.36 15.67,-8.5 9.1,-13.65 15.83,-28.81 21.1,-44.31 3.32,-11.16 6.77,-23.4 3.32,-34.94 -0.75,-2.45 -2.11,-4.41 -3.85,-6.01 z m 57.45,4.65 c 1.43,1.55 2.51,3.41 3.1,5.59 5.02,18.58 9.68,37.62 20.24,54 4.61,7.03 9.19,14.21 15.23,20.09 -5.55,-5.68 -9.88,-12.45 -14.23,-19.09 -10.56,-16.38 -15.22,-35.41 -20.24,-54 -0.72,-2.67 -2.18,-4.86 -4.1,-6.59 z m -299.37,24.83 c 0.91,1.99 -0.37,4.61 0.01,6.77 -0.28,21.95 4.23,43.83 11.47,64.39 1.26,3.65 3.39,7.2 6.25,9.89 -2.36,-2.54 -4.14,-5.68 -5.24,-8.89 -7.25,-20.56 -11.76,-42.44 -11.48,-64.39 -0.42,-2.39 1.22,-5.37 -0.39,-7.41 -0.2,-0.13 -0.41,-0.25 -0.62,-0.36 z"
           style="color:#000000;display:inline;fill:#ffffff;fill-rule:evenodd;filter:url(#filter3393)"
           id="path3386"
           inkscape:connector-curvature="0" />
      </g>
      <g
         transform="translate(129.51,-418.05)"
         inkscape:label="Kopieen"
         style="display:none"
         id="layer4">
        <path
           d="m 184.46,211.99 c 21.05,-11.78 164.16,-24.05 212.99,-4 4.39,1.8 6.25,4.46 8.57,8.57 8.8,15.58 4.67,55.11 -6,82.86 -1.7,4.42 -4.43,6.24 -8.57,8.57 -15.75,8.86 -168.48,-0.03 -182.99,-4 -4.58,-1.25 -7.98,-4.59 -10.57,-8.57 -10.1,-15.52 -29.58,-55.3 -22,-74.86 1.71,-4.43 4.43,-6.26 8.57,-8.57 z"
           style="color:#000000;display:inline;fill:#44aa00;fill-rule:evenodd"
           sodipodi:nodetypes="cssssssss"
           id="rect2176"
           inkscape:connector-curvature="0" />
        <path
           d="m 564.28,190.96 c -74,0.18 -114.34,6.62 -129.84,12.5 -14.27,5.42 -21.15,2.59 -36.44,2.47 v 15.72 c 5.39,-0.32 13.68,1.73 17.28,5.56 3.6,3.83 4.7,8.81 6.26,14.46 5.7,20.61 9.58,38.81 31.11,66.4 8.54,10.94 28.19,10.04 43.41,11.3 49.13,4.04 104.75,7.55 151.79,2.39 11.2,-1.23 16.63,-7.92 20.41,-19.11 5.07,-14.96 12.27,-45.97 10.27,-70.66 -0.18,-2.3 11.78,-4.74 17.64,-6.42 0.83,-0.24 1.25,-1.01 1.25,-1.96 v -13.03 c 0,-0.91 -0.53,-1.74 -1.52,-1.78 -10.33,-0.41 -12.39,0.81 -22.62,-1.42 -7.59,-1.65 -18.56,-6.98 -34.04,-10.23 -27.99,-5.89 -52.11,-6.25 -74.96,-6.19 z m 9.16,9.94 c 33.42,0.16 65,3.14 83.31,10.65 4.39,1.81 6.24,4.46 8.56,8.57 8.8,15.58 4.67,55.12 -6,82.87 -1.69,4.42 -4.42,6.24 -8.56,8.56 -15.75,8.86 -168.49,-0.03 -183,-4 -4.58,-1.25 -7.97,-4.58 -10.56,-8.56 -10.1,-15.52 -29.58,-55.31 -22,-74.87 1.71,-4.43 4.42,-6.25 8.56,-8.57 13.16,-7.36 73.99,-14.92 129.69,-14.65 z"
           style="color:#000000;display:inline;fill:#000000;fill-rule:evenodd"
           sodipodi:nodetypes="csccsssssssssssssccssssssssc"
           id="path3088"
           inkscape:connector-curvature="0" />
        <path
           d="m 223.94,319.53 c -20.31,0.11 -41.86,1.04 -66.35,6.19 -15.47,3.25 -26.45,8.57 -34.03,10.22 -10.23,2.23 -12.29,1.02 -22.62,1.44 -0.993,0.04 -1.503,0.87 -1.502,1.78 v 13.03 c 0,0.95 0.416,1.7 1.252,1.93 5.86,1.69 17.81,4.14 17.62,6.44 -1.99,24.69 5.22,55.7 10.28,70.66 3.79,11.19 9.21,17.89 20.41,19.12 47.05,5.17 102.65,1.64 151.78,-2.4 15.22,-1.25 34.87,-0.37 43.41,-11.32 21.53,-27.58 25.42,-45.76 31.12,-66.37 1.56,-5.64 2.74,-10.74 6.25,-14.47 3.51,-3.73 11.06,-5.66 16.44,-5.59 v 0.03 c 6.48,-0.36 12.41,1.65 17.28,5.56 4.06,3.26 4.69,8.83 6.25,14.47 5.7,20.61 9.6,38.79 31.13,66.37 8.54,10.95 28.18,10.07 43.4,11.32 49.13,4.04 104.74,7.57 151.78,2.4 11.21,-1.23 16.62,-7.93 20.41,-19.12 5.06,-14.96 12.28,-45.97 10.28,-70.66 -0.18,-2.3 11.76,-4.75 17.63,-6.44 0.83,-0.23 1.25,-0.98 1.25,-1.93 v -13.03 c 0,-0.91 -0.51,-1.74 -1.5,-1.78 -10.34,-0.42 -12.39,0.79 -22.63,-1.44 -7.58,-1.65 -18.56,-6.97 -34.03,-10.22 -27.99,-5.88 -52.12,-6.24 -74.97,-6.19 -74,0.18 -114.34,6.62 -129.84,12.5 -21.37,5.44 -50.33,4.1 -72.03,0 -15.5,-5.88 -55.85,-12.32 -129.85,-12.5 -2.85,-0.01 -5.72,-0.01 -8.62,0 z m -0.53,9.94 c 55.69,-0.27 116.52,7.29 129.68,14.65 4.15,2.32 6.85,4.14 8.57,8.57 7.57,19.56 -11.9,59.35 -22,74.87 -2.59,3.98 -5.99,7.31 -10.57,8.56 -14.5,3.97 -167.24,12.86 -183,4 -4.14,-2.32 -6.86,-4.14 -8.56,-8.56 -10.67,-27.75 -14.8,-67.29 -6,-82.87 2.32,-4.11 4.17,-6.76 8.56,-8.57 18.32,-7.51 49.9,-10.49 83.32,-10.65 z m 350.03,0 c 33.42,0.16 65,3.14 83.31,10.65 4.39,1.81 6.24,4.46 8.56,8.57 8.8,15.58 4.67,55.12 -6,82.87 -1.69,4.42 -4.42,6.24 -8.56,8.56 -15.75,8.86 -168.49,-0.03 -183,-4 -4.58,-1.25 -7.97,-4.58 -10.56,-8.56 -10.1,-15.52 -29.58,-55.31 -22,-74.87 1.71,-4.43 4.42,-6.25 8.56,-8.57 13.16,-7.36 73.99,-14.92 129.69,-14.65 z"
           style="color:#000000;display:inline;fill:#000000;fill-rule:evenodd"
           sodipodi:nodetypes="csssccssssssszccssssssssccssscccsccssssssssccssssssssc"
           id="path2201"
           inkscape:connector-curvature="0" />
        <path
           d="M 131.94,621.35 V 471.4 l 563.58,15.19 v 110.35 z"
           style="display:inline;fill:none;stroke:#000000;stroke-width:0.24315999pt"
           sodipodi:nodetypes="ccccc"
           id="path3165"
           inkscape:connector-curvature="0" />
      </g>
    </g>
  </g>
</svg>
