<?xml version="1.0" encoding="UTF-8" standalone="no"?>
<!-- Created with Inkscape (http://www.inkscape.org/) -->

<svg
   xmlns:dc="http://purl.org/dc/elements/1.1/"
   xmlns:cc="http://creativecommons.org/ns#"
   xmlns:rdf="http://www.w3.org/1999/02/22-rdf-syntax-ns#"
   xmlns:svg="http://www.w3.org/2000/svg"
   xmlns="http://www.w3.org/2000/svg"
   xmlns:sodipodi="http://sodipodi.sourceforge.net/DTD/sodipodi-0.dtd"
   xmlns:inkscape="http://www.inkscape.org/namespaces/inkscape"
   width="180"
   height="36"
   viewBox="0 0 47.624999 9.5250003"
   version="1.1"
   id="svg8"
   inkscape:version="0.92.1 r15371"
   sodipodi:docname="instructions.svg">
  <defs
     id="defs2">
    <clipPath
       clipPathUnits="userSpaceOnUse"
       id="clipPath5108">
      <rect
         style="color:#000000;clip-rule:nonzero;display:inline;overflow:visible;visibility:visible;opacity:1;isolation:auto;mix-blend-mode:normal;color-interpolation:sRGB;color-interpolation-filters:linearRGB;solid-color:#000000;solid-opacity:1;fill:#ffffff;fill-opacity:1;fill-rule:evenodd;stroke:none;stroke-width:0.52916664;stroke-linecap:butt;stroke-linejoin:miter;stroke-miterlimit:4;stroke-dasharray:none;stroke-dashoffset:0;stroke-opacity:1;color-rendering:auto;image-rendering:auto;shape-rendering:auto;text-rendering:auto;enable-background:accumulate"
         id="rect5110"
         width="13.229167"
         height="8.9958334"
         x="17.4625"
         y="156.04062" />
    </clipPath>
    <clipPath
       clipPathUnits="userSpaceOnUse"
       id="clipPath5239">
      <rect
         y="15.760699"
         x="-231.24432"
         height="34"
         width="49.999996"
         id="rect5241"
         style="color:#000000;clip-rule:nonzero;display:inline;overflow:visible;visibility:visible;opacity:1;isolation:auto;mix-blend-mode:normal;color-interpolation:sRGB;color-interpolation-filters:linearRGB;solid-color:#000000;solid-opacity:1;fill:#ffffff;fill-opacity:1;fill-rule:evenodd;stroke:none;stroke-width:1.99999988;stroke-linecap:butt;stroke-linejoin:miter;stroke-miterlimit:4;stroke-dasharray:none;stroke-dashoffset:0;stroke-opacity:1;color-rendering:auto;image-rendering:auto;shape-rendering:auto;text-rendering:auto;enable-background:accumulate" />
    </clipPath>
    <clipPath
       clipPathUnits="userSpaceOnUse"
       id="clipPath5018">
      <rect
         style="color:#000000;clip-rule:nonzero;display:inline;overflow:visible;visibility:visible;opacity:1;isolation:auto;mix-blend-mode:normal;color-interpolation:sRGB;color-interpolation-filters:linearRGB;solid-color:#000000;solid-opacity:1;fill:#ffffff;fill-opacity:1;fill-rule:evenodd;stroke:none;stroke-width:0.52916664;stroke-linecap:butt;stroke-linejoin:miter;stroke-miterlimit:4;stroke-dasharray:none;stroke-dashoffset:0;stroke-opacity:1;color-rendering:auto;image-rendering:auto;shape-rendering:auto;text-rendering:auto;enable-background:accumulate"
         id="rect5020"
         width="72.363419"
         height="49.194481"
         x="-442.39182"
         y="-152.21417"
         transform="matrix(0.76595196,0.64289781,-0.64293016,0.76592481,0,0)" />
    </clipPath>
    <clipPath
       clipPathUnits="userSpaceOnUse"
       id="clipPath5326">
      <rect
         style="color:#000000;clip-rule:nonzero;display:inline;overflow:visible;visibility:visible;opacity:1;isolation:auto;mix-blend-mode:normal;color-interpolation:sRGB;color-interpolation-filters:linearRGB;solid-color:#000000;solid-opacity:1;fill:#ffffff;fill-opacity:1;fill-rule:evenodd;stroke:none;stroke-width:4.16032791;stroke-linecap:butt;stroke-linejoin:miter;stroke-miterlimit:4;stroke-dasharray:none;stroke-dashoffset:0;stroke-opacity:1;color-rendering:auto;image-rendering:auto;shape-rendering:auto;text-rendering:auto;enable-background:accumulate"
         id="rect5328"
         width="124.80984"
         height="70.725578"
         x="13.720113"
         y="21.59317" />
    </clipPath>
    <clipPath
       clipPathUnits="userSpaceOnUse"
       id="clipPath5407">
      <rect
         style="color:#000000;clip-rule:nonzero;display:inline;overflow:visible;visibility:visible;opacity:1;isolation:auto;mix-blend-mode:normal;color-interpolation:sRGB;color-interpolation-filters:linearRGB;solid-color:#000000;solid-opacity:1;fill:#ffffff;fill-opacity:1;fill-rule:evenodd;stroke:none;stroke-width:0.61937374;stroke-linecap:butt;stroke-linejoin:miter;stroke-miterlimit:4;stroke-dasharray:none;stroke-dashoffset:0;stroke-opacity:1;color-rendering:auto;image-rendering:auto;shape-rendering:auto;text-rendering:auto;enable-background:accumulate"
         id="rect5409"
         width="18.123959"
         height="8.9958334"
         x="87.973961"
         y="200.60277" />
    </clipPath>
    <clipPath
       clipPathUnits="userSpaceOnUse"
       id="clipPath5078">
      <rect
         style="color:#000000;clip-rule:nonzero;display:inline;overflow:visible;visibility:visible;opacity:1;isolation:auto;mix-blend-mode:normal;color-interpolation:sRGB;color-interpolation-filters:linearRGB;solid-color:#000000;solid-opacity:1;fill:#ffffff;fill-opacity:1;fill-rule:evenodd;stroke:none;stroke-width:0.59769404;stroke-linecap:butt;stroke-linejoin:miter;stroke-miterlimit:4;stroke-dasharray:none;stroke-dashoffset:0;stroke-opacity:1;color-rendering:auto;image-rendering:auto;shape-rendering:auto;text-rendering:auto;enable-background:accumulate"
         id="rect5080"
         width="16.877396"
         height="8.9958334"
         x="16.206114"
         y="213.41493" />
    </clipPath>
    <clipPath
       clipPathUnits="userSpaceOnUse"
       id="clipPath5438">
      <rect
         style="color:#000000;clip-rule:nonzero;display:inline;overflow:visible;visibility:visible;opacity:1;isolation:auto;mix-blend-mode:normal;color-interpolation:sRGB;color-interpolation-filters:linearRGB;solid-color:#000000;solid-opacity:1;fill:#ffffff;fill-opacity:1;fill-rule:evenodd;stroke:none;stroke-width:0.52916664;stroke-linecap:butt;stroke-linejoin:miter;stroke-miterlimit:4;stroke-dasharray:none;stroke-dashoffset:0;stroke-opacity:1;color-rendering:auto;image-rendering:auto;shape-rendering:auto;text-rendering:auto;enable-background:accumulate"
         id="rect5440"
         width="13.229167"
         height="8.9958334"
         x="17.352474"
         y="230.00876" />
    </clipPath>
  </defs>
  <sodipodi:namedview
     id="base"
     pagecolor="#ffffff"
     bordercolor="#666666"
     borderopacity="1.0"
     inkscape:pageopacity="0.0"
     inkscape:pageshadow="2"
     inkscape:zoom="2.8"
     inkscape:cx="137.09732"
     inkscape:cy="57.482934"
     inkscape:document-units="px"
     inkscape:current-layer="layer1"
     showgrid="false"
     units="px"
     inkscape:window-width="1680"
     inkscape:window-height="987"
     inkscape:window-x="-8"
     inkscape:window-y="-8"
     inkscape:window-maximized="1" />
  <metadata
     id="metadata5">
    <rdf:RDF>
      <cc:Work
         rdf:about="">
        <dc:format>image/svg+xml</dc:format>
        <dc:type
           rdf:resource="http://purl.org/dc/dcmitype/StillImage" />
        <dc:title></dc:title>
      </cc:Work>
    </rdf:RDF>
  </metadata>
  <g
     inkscape:label="Layer 1"
     inkscape:groupmode="layer"
     id="layer1"
     transform="translate(0,-287.47498)">
    <rect
       style="color:#000000;clip-rule:nonzero;display:inline;overflow:visible;visibility:visible;opacity:1;isolation:auto;mix-blend-mode:normal;color-interpolation:sRGB;color-interpolation-filters:linearRGB;solid-color:#000000;solid-opacity:1;fill:#d92626;fill-opacity:1;fill-rule:evenodd;stroke:none;stroke-width:0.99999994;stroke-linecap:butt;stroke-linejoin:miter;stroke-miterlimit:4;stroke-dasharray:none;stroke-dashoffset:0;stroke-opacity:1;color-rendering:auto;image-rendering:auto;shape-rendering:auto;text-rendering:auto;enable-background:accumulate"
       id="rect4762"
       width="47.625"
       height="6.614583"
       x="0"
       y="290.38541"
       rx="1.3229166"
       ry="1.3229166" />
    <text
       xml:space="preserve"
       style="font-style:normal;font-variant:normal;font-weight:bold;font-stretch:normal;font-size:3.66805744px;line-height:2;font-family:'Open Sans';-inkscape-font-specification:'Open Sans Bold';font-variant-ligatures:normal;font-variant-caps:normal;font-variant-numeric:normal;font-feature-settings:normal;text-align:center;letter-spacing:0px;word-spacing:0px;writing-mode:lr-tb;text-anchor:middle;fill:#ffffff;fill-opacity:1;stroke:none;stroke-width:0.26458332px;stroke-linecap:butt;stroke-linejoin:miter;stroke-opacity:1"
       x="30.556583"
       y="295.00284"
       id="text4766"><tspan
         sodipodi:role="line"
         id="tspan4764"
         x="30.556583"
         y="295.00284"
         style="font-style:normal;font-variant:normal;font-weight:bold;font-stretch:normal;font-family:'Open Sans';-inkscape-font-specification:'Open Sans Bold';fill:#ffffff;stroke-width:0.26458332px">INSTRUCTIONS</tspan></text>
    <g
       id="g5430"
       transform="translate(-14.619642,57.466217)"
       clip-path="url(#clipPath5438)">
      <path
         d="m -975.31836,429.18555 c -0.31109,-0.0417 -0.63491,-0.0237 -0.95508,0.0645 -1.28097,0.35264 -2.04005,1.692 -1.6875,2.97266 0.0301,0.10928 0.10465,0.18969 0.14844,0.29101 -0.24574,-0.0783 -0.49661,-0.16271 -0.74805,-0.0937 a 0.53469425,0.53469425 0 0 0 -0.002,0 l -4.40625,1.21289 c -0.38838,0.10692 -0.69881,0.36954 -0.85352,0.6836 -0.1547,0.31406 -0.16931,0.65767 -0.084,0.96679 0.0853,0.30913 0.27462,0.59674 0.56836,0.78711 0.29374,0.19037 0.6956,0.25731 1.08398,0.15039 l 1.82422,-0.50195 -1.71093,3.00977 -3.38672,0.93359 c -0.45997,0.11968 -0.81933,0.41964 -1,0.78125 -0.18068,0.36161 -0.1988,0.76252 -0.0996,1.12305 0.0992,0.36052 0.31795,0.6958 0.6582,0.91406 0.34025,0.21825 0.80336,0.29081 1.25977,0.1582 l 4.00195,-1.10351 c 0.39392,-0.10752 0.73206,-0.36594 0.93555,-0.72266 a 0.53469425,0.53469425 0 0 0 0,-0.002 l 0.70507,-1.24024 0.58399,0.33008 -1.71289,3.01367 c -0.23187,0.40893 -0.26981,0.87071 -0.14063,1.25 0.12919,0.37929 0.39985,0.67234 0.72266,0.85547 0.32281,0.18313 0.71168,0.26347 1.10351,0.17969 0.39184,-0.0838 0.76813,-0.35279 1,-0.76172 l 2.47461,-4.35352 c 0.41771,-0.73563 0.15488,-1.6855 -0.58007,-2.10351 l -0.84375,-0.47852 0.53906,-0.94726 0.35156,0.20117 c 0.31018,0.1764 0.67708,0.22105 1.01953,0.12695 l 2.17188,-0.59765 c 0.38833,-0.10691 0.69859,-0.36974 0.85351,-0.6836 0.15492,-0.31386 0.16895,-0.65759 0.084,-0.96679 -0.085,-0.3092 -0.27275,-0.59659 -0.56641,-0.78711 -0.29314,-0.1902 -0.69433,-0.2565 -1.08203,-0.15039 h -0.002 l -1.63672,0.44921 -0.40039,-0.22656 c 0.0466,-0.01 0.0922,0.003 0.13867,-0.01 1.28098,-0.35264 2.04005,-1.692 1.6875,-2.97266 -0.26449,-0.96072 -1.08432,-1.627 -2.01758,-1.75195 z"
         id="circle11059-4-2"
         style="color:#000000;clip-rule:nonzero;display:inline;overflow:visible;visibility:visible;opacity:1;isolation:auto;mix-blend-mode:normal;color-interpolation:sRGB;color-interpolation-filters:linearRGB;solid-color:#000000;solid-opacity:1;fill:#d92626;fill-opacity:1;fill-rule:nonzero;stroke:none;stroke-width:1.5;stroke-linecap:round;stroke-linejoin:round;stroke-miterlimit:4;stroke-dasharray:none;stroke-dashoffset:0;stroke-opacity:1;color-rendering:auto;image-rendering:auto;shape-rendering:auto;text-rendering:auto;enable-background:accumulate"
         inkscape:original="M -976.13086 429.76562 C -977.13321 430.04156 -977.72125 431.07772 -977.44531 432.08008 C -977.16937 433.08245 -976.13321 433.67047 -975.13086 433.39453 C -974.12849 433.11859 -973.54047 432.08245 -973.81641 431.08008 C -974.09236 430.07772 -975.12849 429.48969 -976.13086 429.76562 z M -978.41992 432.93555 L -982.82617 434.14844 C -983.86431 434.43423 -983.43462 435.99088 -982.39648 435.70508 L -979.32617 434.85938 L -981.78516 439.18555 L -985.39258 440.17969 C -986.71247 440.52311 -986.1671 442.50554 -984.85742 442.125 L -980.84766 441.01953 C -980.58937 440.94903 -980.36897 440.7794 -980.23633 440.54688 L -979.26758 438.8418 L -977.75391 439.69922 L -979.73047 443.17773 C -980.39422 444.34832 -978.63836 445.34441 -977.97461 444.17383 L -975.5 439.82031 C -975.22508 439.33614 -975.395 438.72054 -975.87891 438.44531 L -977.1875 437.70312 L -976.12109 435.82617 L -975.30469 436.29102 C -975.11885 436.39671 -974.89759 436.42384 -974.69141 436.36719 L -972.51953 435.76953 C -971.48139 435.48374 -971.90912 433.92709 -972.94727 434.21289 L -974.79883 434.7207 L -976.1582 433.94922 L -977.80859 433.01172 C -977.99443 432.90603 -978.21375 432.879 -978.41992 432.93555 z "
         inkscape:radius="0.53464079"
         sodipodi:type="inkscape:offset"
         transform="matrix(0.94572134,0,0,0.94572134,948.32356,-175.8649)" />
      <path
         inkscape:export-ydpi="102.07"
         inkscape:export-xdpi="102.07"
         sodipodi:nodetypes="sssssssccccccccccccccccssccccs"
         d="m 27.36489,231.81687 c 0.260963,0.94796 -0.295953,1.92798 -1.243916,2.18894 -0.947943,0.26096 -1.927966,-0.29595 -2.188929,-1.24391 -0.260962,-0.94796 0.295954,-1.92797 1.243898,-2.18892 0.947963,-0.26097 1.927975,0.29593 2.188947,1.24389 z m -8.52092,2.90101 c -0.981791,0.27028 -0.576389,1.74294 0.405402,1.47266 l 2.904556,-0.7996 -2.325396,4.09203 -3.412238,0.93935 c -1.248249,0.32479 -0.73232,2.19891 0.506272,1.83903 l 3.793024,-1.04419 c 0.24427,-0.0667 0.451998,-0.22758 0.577438,-0.44747 l 0.91631,-1.61243 1.431548,0.81148 -1.868954,3.28893 c -0.627722,1.10705 1.032861,2.04868 1.660583,0.94164 l 2.339232,-4.11649 c 0.259999,-0.45789 0.0997,-1.03994 -0.357945,-1.30023 l -1.236749,-0.70285 1.00829,-1.77419 0.772551,0.43905 c 0.175753,0.1 0.383925,0.12601 0.578913,0.0724 l 2.054552,-0.56559 c 0.981791,-0.27028 0.576389,-1.74293 -0.405412,-1.47264 l -1.75037,0.48185 -1.285669,-0.73057 -1.560421,-0.88679 c -0.175754,-0.0999 -0.384059,-0.12602 -0.579038,-0.0725 z"
         style="color:#000000;clip-rule:nonzero;display:inline;overflow:visible;visibility:visible;opacity:1;isolation:auto;mix-blend-mode:normal;color-interpolation:sRGB;color-interpolation-filters:linearRGB;solid-color:#000000;solid-opacity:1;fill:#ffffff;fill-opacity:1;fill-rule:nonzero;stroke:none;stroke-width:1.41858196;stroke-linecap:round;stroke-linejoin:round;stroke-miterlimit:4;stroke-dasharray:none;stroke-dashoffset:0;stroke-opacity:1;color-rendering:auto;image-rendering:auto;shape-rendering:auto;text-rendering:auto;enable-background:accumulate"
         id="path5420"
         inkscape:connector-curvature="0" />
    </g>
  </g>
</svg>
