<?xml version="1.0" encoding="UTF-8" standalone="no"?>
<!-- Created with Inkscape (http://www.inkscape.org/) -->

<svg
   xmlns:dc="http://purl.org/dc/elements/1.1/"
   xmlns:cc="http://creativecommons.org/ns#"
   xmlns:rdf="http://www.w3.org/1999/02/22-rdf-syntax-ns#"
   xmlns:svg="http://www.w3.org/2000/svg"
   xmlns="http://www.w3.org/2000/svg"
   xmlns:sodipodi="http://sodipodi.sourceforge.net/DTD/sodipodi-0.dtd"
   xmlns:inkscape="http://www.inkscape.org/namespaces/inkscape"
   width="180"
   height="36"
   viewBox="0 0 47.624999 9.5250003"
   version="1.1"
   id="svg8"
   inkscape:version="0.92.1 r15371"
   sodipodi:docname="chapter-link.svg">
  <defs
     id="defs2">
    <clipPath
       clipPathUnits="userSpaceOnUse"
       id="clipPath5108">
      <rect
         style="color:#000000;clip-rule:nonzero;display:inline;overflow:visible;visibility:visible;opacity:1;isolation:auto;mix-blend-mode:normal;color-interpolation:sRGB;color-interpolation-filters:linearRGB;solid-color:#000000;solid-opacity:1;fill:#ffffff;fill-opacity:1;fill-rule:evenodd;stroke:none;stroke-width:0.52916664;stroke-linecap:butt;stroke-linejoin:miter;stroke-miterlimit:4;stroke-dasharray:none;stroke-dashoffset:0;stroke-opacity:1;color-rendering:auto;image-rendering:auto;shape-rendering:auto;text-rendering:auto;enable-background:accumulate"
         id="rect5110"
         width="13.229167"
         height="8.9958334"
         x="17.4625"
         y="156.04062" />
    </clipPath>
    <clipPath
       clipPathUnits="userSpaceOnUse"
       id="clipPath5239">
      <rect
         y="15.760699"
         x="-231.24432"
         height="34"
         width="49.999996"
         id="rect5241"
         style="color:#000000;clip-rule:nonzero;display:inline;overflow:visible;visibility:visible;opacity:1;isolation:auto;mix-blend-mode:normal;color-interpolation:sRGB;color-interpolation-filters:linearRGB;solid-color:#000000;solid-opacity:1;fill:#ffffff;fill-opacity:1;fill-rule:evenodd;stroke:none;stroke-width:1.99999988;stroke-linecap:butt;stroke-linejoin:miter;stroke-miterlimit:4;stroke-dasharray:none;stroke-dashoffset:0;stroke-opacity:1;color-rendering:auto;image-rendering:auto;shape-rendering:auto;text-rendering:auto;enable-background:accumulate" />
    </clipPath>
    <clipPath
       clipPathUnits="userSpaceOnUse"
       id="clipPath5018">
      <rect
         style="color:#000000;clip-rule:nonzero;display:inline;overflow:visible;visibility:visible;opacity:1;isolation:auto;mix-blend-mode:normal;color-interpolation:sRGB;color-interpolation-filters:linearRGB;solid-color:#000000;solid-opacity:1;fill:#ffffff;fill-opacity:1;fill-rule:evenodd;stroke:none;stroke-width:0.52916664;stroke-linecap:butt;stroke-linejoin:miter;stroke-miterlimit:4;stroke-dasharray:none;stroke-dashoffset:0;stroke-opacity:1;color-rendering:auto;image-rendering:auto;shape-rendering:auto;text-rendering:auto;enable-background:accumulate"
         id="rect5020"
         width="72.363419"
         height="49.194481"
         x="-442.39182"
         y="-152.21417"
         transform="matrix(0.76595196,0.64289781,-0.64293016,0.76592481,0,0)" />
    </clipPath>
  </defs>
  <sodipodi:namedview
     id="base"
     pagecolor="#ffffff"
     bordercolor="#666666"
     borderopacity="1.0"
     inkscape:pageopacity="0.0"
     inkscape:pageshadow="2"
     inkscape:zoom="3.959798"
     inkscape:cx="127.41657"
     inkscape:cy="24.522359"
     inkscape:document-units="px"
     inkscape:current-layer="layer1"
     showgrid="false"
     units="px"
     inkscape:window-width="1680"
     inkscape:window-height="987"
     inkscape:window-x="-8"
     inkscape:window-y="-8"
     inkscape:window-maximized="1" />
  <metadata
     id="metadata5">
    <rdf:RDF>
      <cc:Work
         rdf:about="">
        <dc:format>image/svg+xml</dc:format>
        <dc:type
           rdf:resource="http://purl.org/dc/dcmitype/StillImage" />
        <dc:title></dc:title>
      </cc:Work>
    </rdf:RDF>
  </metadata>
  <g
     inkscape:label="Layer 1"
     inkscape:groupmode="layer"
     id="layer1"
     transform="translate(0,-287.47498)">
    <rect
       style="color:#000000;clip-rule:nonzero;display:inline;overflow:visible;visibility:visible;opacity:1;isolation:auto;mix-blend-mode:normal;color-interpolation:sRGB;color-interpolation-filters:linearRGB;solid-color:#000000;solid-opacity:1;fill:#d4aa00;fill-opacity:1;fill-rule:evenodd;stroke:none;stroke-width:0.99999994;stroke-linecap:butt;stroke-linejoin:miter;stroke-miterlimit:4;stroke-dasharray:none;stroke-dashoffset:0;stroke-opacity:1;color-rendering:auto;image-rendering:auto;shape-rendering:auto;text-rendering:auto;enable-background:accumulate"
       id="rect4732"
       width="47.625"
       height="6.614583"
       x="0"
       y="290.38541"
       rx="1.3229166"
       ry="1.3229166" />
    <text
       xml:space="preserve"
       style="font-style:normal;font-variant:normal;font-weight:bold;font-stretch:normal;font-size:3.66805744px;line-height:2;font-family:'Open Sans';-inkscape-font-specification:'Open Sans Bold';font-variant-ligatures:normal;font-variant-caps:normal;font-variant-numeric:normal;font-feature-settings:normal;text-align:center;letter-spacing:0px;word-spacing:0px;writing-mode:lr-tb;text-anchor:middle;fill:#ffffff;fill-opacity:1;stroke:none;stroke-width:0.26458332px;stroke-linecap:butt;stroke-linejoin:miter;stroke-opacity:1"
       x="30.353306"
       y="295.00287"
       id="text4736"><tspan
         sodipodi:role="line"
         id="tspan4734"
         x="30.353306"
         y="295.00287"
         style="font-style:normal;font-variant:normal;font-weight:bold;font-stretch:normal;font-family:'Open Sans';-inkscape-font-specification:'Open Sans Bold';fill:#ffffff;stroke-width:0.26458332px">CHAPTER LINK</tspan></text>
    <g
       transform="matrix(0.14002306,-0.117562,0.11753771,0.14006401,83.020246,315.30928)"
       inkscape:label="Layer 1"
       id="layer1-6"
       style="stroke-width:1.44708228"
       inkscape:transform-center-x="-1.3378966"
       inkscape:transform-center-y="-1.7150274"
       clip-path="url(#clipPath5018)">
      <path
         inkscape:connector-curvature="0"
         d="m -204.61685,-357.30431 c 3.36662,2.45985 3.09691,6.23958 1.5915,8.39031 -2.22772,3.1601 -6.70271,4.01015 -10.14959,4.51379 -5.06691,0.53648 -10.3422,0.51922 -15.22252,-1.09614 -2.78163,-0.93167 -5.71071,-2.94339 -6.05158,-6.09778 -0.43694,-2.67393 1.08336,-5.35732 3.42795,-6.62601 4.40996,-2.66122 12.1197,-2.72151 16.06205,-2.33341 3.94234,0.38809 6.79141,0.96797 10.34219,3.24924 z m 1.2996,-9.35035 c -2.04889,-0.86432 -3.77751,-1.45467 -5.92803,-1.95361 -4.94861,-1.14811 -9.70904,-1.14859 -14.70101,-0.76941 -6.04741,0.58999 -12.46185,2.61167 -16.40626,7.50635 -3.44092,4.34161 -3.92955,10.58453 -1.89074,15.62498 2.19869,5.15909 7.41807,8.27934 12.64143,9.69456 6.09787,1.60368 12.5712,1.81939 18.79124,0.90329 5.62444,-0.9067 11.39401,-3.44265 14.63489,-8.35667 2.68417,-4.21193 3.09815,-10.37554 0.2624,-15.84677 -0.81511,-1.70917 -3.60803,-5.21248 -7.40392,-6.80272 z"
         style="fill:#ffffff;fill-opacity:1;stroke:#d4aa00;stroke-width:2.8941648;stroke-miterlimit:4;stroke-dasharray:none;stroke-opacity:1"
         sodipodi:nodetypes="cccccczccscccccccc"
         id="path1088-5-3" />
      <path
         inkscape:connector-curvature="0"
         d="m -254.98419,-369.35233 c -6.04742,0.58999 -12.46186,2.61167 -16.40626,7.50634 -3.44093,4.34161 -3.92956,10.58453 -1.89074,15.62498 2.19868,5.1591 7.41807,8.27935 12.64142,9.69457 6.09788,1.60368 12.5712,1.81939 18.79125,0.90329 5.62443,-0.9067 11.39401,-3.44267 14.63489,-8.35668 2.68417,-4.21192 3.09815,-10.37554 0.2624,-15.84676 -2.50774,0.54442 -6.05113,2.24603 -6.95709,4.62746 1.45603,1.92052 0.67364,4.24301 -0.87039,6.25985 -2.14208,2.82435 -5.98725,4.06077 -9.43414,4.56441 -5.0669,0.53648 -10.34219,0.51923 -15.22251,-1.09613 -2.78164,-0.93167 -5.71072,-2.9434 -6.05159,-6.09779 -0.43694,-2.67392 1.08337,-5.35732 3.42795,-6.62601 4.37371,-2.48057 9.5941,-2.58579 14.48881,-2.41083 2.95313,0.16719 3.65507,0.34254 5.77687,0.9054 1.83666,-3.64469 5.65995,-6.12598 7.43817,-6.92909 -7.42354,-3.13159 -13.73406,-3.24675 -20.62904,-2.72301 z"
         style="fill:#ffffff;fill-opacity:1;stroke:#d4aa00;stroke-width:2.8941648;stroke-miterlimit:4;stroke-dasharray:none;stroke-opacity:1"
         sodipodi:nodetypes="ccccccccccccccccc"
         id="path1088-5-3-7-9" />
    </g>
  </g>
</svg>
