<?xml version="1.0" encoding="UTF-8" standalone="no"?>
<!-- Created with Inkscape (http://www.inkscape.org/) -->

<svg
   xmlns:dc="http://purl.org/dc/elements/1.1/"
   xmlns:cc="http://creativecommons.org/ns#"
   xmlns:rdf="http://www.w3.org/1999/02/22-rdf-syntax-ns#"
   xmlns:svg="http://www.w3.org/2000/svg"
   xmlns="http://www.w3.org/2000/svg"
   xmlns:sodipodi="http://sodipodi.sourceforge.net/DTD/sodipodi-0.dtd"
   xmlns:inkscape="http://www.inkscape.org/namespaces/inkscape"
   width="180"
   height="36"
   viewBox="0 0 47.624999 9.5250003"
   version="1.1"
   id="svg8"
   inkscape:version="0.92.1 r15371"
   sodipodi:docname="anecdote.svg">
  <defs
     id="defs2">
    <clipPath
       clipPathUnits="userSpaceOnUse"
       id="clipPath5108">
      <rect
         style="color:#000000;clip-rule:nonzero;display:inline;overflow:visible;visibility:visible;opacity:1;isolation:auto;mix-blend-mode:normal;color-interpolation:sRGB;color-interpolation-filters:linearRGB;solid-color:#000000;solid-opacity:1;fill:#ffffff;fill-opacity:1;fill-rule:evenodd;stroke:none;stroke-width:0.52916664;stroke-linecap:butt;stroke-linejoin:miter;stroke-miterlimit:4;stroke-dasharray:none;stroke-dashoffset:0;stroke-opacity:1;color-rendering:auto;image-rendering:auto;shape-rendering:auto;text-rendering:auto;enable-background:accumulate"
         id="rect5110"
         width="13.229167"
         height="8.9958334"
         x="17.4625"
         y="156.04062" />
    </clipPath>
    <clipPath
       clipPathUnits="userSpaceOnUse"
       id="clipPath5239">
      <rect
         y="15.760699"
         x="-231.24432"
         height="34"
         width="49.999996"
         id="rect5241"
         style="color:#000000;clip-rule:nonzero;display:inline;overflow:visible;visibility:visible;opacity:1;isolation:auto;mix-blend-mode:normal;color-interpolation:sRGB;color-interpolation-filters:linearRGB;solid-color:#000000;solid-opacity:1;fill:#ffffff;fill-opacity:1;fill-rule:evenodd;stroke:none;stroke-width:1.99999988;stroke-linecap:butt;stroke-linejoin:miter;stroke-miterlimit:4;stroke-dasharray:none;stroke-dashoffset:0;stroke-opacity:1;color-rendering:auto;image-rendering:auto;shape-rendering:auto;text-rendering:auto;enable-background:accumulate" />
    </clipPath>
    <clipPath
       clipPathUnits="userSpaceOnUse"
       id="clipPath5018">
      <rect
         style="color:#000000;clip-rule:nonzero;display:inline;overflow:visible;visibility:visible;opacity:1;isolation:auto;mix-blend-mode:normal;color-interpolation:sRGB;color-interpolation-filters:linearRGB;solid-color:#000000;solid-opacity:1;fill:#ffffff;fill-opacity:1;fill-rule:evenodd;stroke:none;stroke-width:0.52916664;stroke-linecap:butt;stroke-linejoin:miter;stroke-miterlimit:4;stroke-dasharray:none;stroke-dashoffset:0;stroke-opacity:1;color-rendering:auto;image-rendering:auto;shape-rendering:auto;text-rendering:auto;enable-background:accumulate"
         id="rect5020"
         width="72.363419"
         height="49.194481"
         x="-442.39182"
         y="-152.21417"
         transform="matrix(0.76595196,0.64289781,-0.64293016,0.76592481,0,0)" />
    </clipPath>
    <clipPath
       clipPathUnits="userSpaceOnUse"
       id="clipPath5326">
      <rect
         style="color:#000000;clip-rule:nonzero;display:inline;overflow:visible;visibility:visible;opacity:1;isolation:auto;mix-blend-mode:normal;color-interpolation:sRGB;color-interpolation-filters:linearRGB;solid-color:#000000;solid-opacity:1;fill:#ffffff;fill-opacity:1;fill-rule:evenodd;stroke:none;stroke-width:4.16032791;stroke-linecap:butt;stroke-linejoin:miter;stroke-miterlimit:4;stroke-dasharray:none;stroke-dashoffset:0;stroke-opacity:1;color-rendering:auto;image-rendering:auto;shape-rendering:auto;text-rendering:auto;enable-background:accumulate"
         id="rect5328"
         width="124.80984"
         height="70.725578"
         x="13.720113"
         y="21.59317" />
    </clipPath>
    <clipPath
       clipPathUnits="userSpaceOnUse"
       id="clipPath5407">
      <rect
         style="color:#000000;clip-rule:nonzero;display:inline;overflow:visible;visibility:visible;opacity:1;isolation:auto;mix-blend-mode:normal;color-interpolation:sRGB;color-interpolation-filters:linearRGB;solid-color:#000000;solid-opacity:1;fill:#ffffff;fill-opacity:1;fill-rule:evenodd;stroke:none;stroke-width:0.61937374;stroke-linecap:butt;stroke-linejoin:miter;stroke-miterlimit:4;stroke-dasharray:none;stroke-dashoffset:0;stroke-opacity:1;color-rendering:auto;image-rendering:auto;shape-rendering:auto;text-rendering:auto;enable-background:accumulate"
         id="rect5409"
         width="18.123959"
         height="8.9958334"
         x="87.973961"
         y="200.60277" />
    </clipPath>
    <clipPath
       clipPathUnits="userSpaceOnUse"
       id="clipPath5078">
      <rect
         style="color:#000000;clip-rule:nonzero;display:inline;overflow:visible;visibility:visible;opacity:1;isolation:auto;mix-blend-mode:normal;color-interpolation:sRGB;color-interpolation-filters:linearRGB;solid-color:#000000;solid-opacity:1;fill:#ffffff;fill-opacity:1;fill-rule:evenodd;stroke:none;stroke-width:0.59769404;stroke-linecap:butt;stroke-linejoin:miter;stroke-miterlimit:4;stroke-dasharray:none;stroke-dashoffset:0;stroke-opacity:1;color-rendering:auto;image-rendering:auto;shape-rendering:auto;text-rendering:auto;enable-background:accumulate"
         id="rect5080"
         width="16.877396"
         height="8.9958334"
         x="16.206114"
         y="213.41493" />
    </clipPath>
  </defs>
  <sodipodi:namedview
     id="base"
     pagecolor="#ffffff"
     bordercolor="#666666"
     borderopacity="1.0"
     inkscape:pageopacity="0.0"
     inkscape:pageshadow="2"
     inkscape:zoom="3.959798"
     inkscape:cx="127.41657"
     inkscape:cy="24.522359"
     inkscape:document-units="px"
     inkscape:current-layer="layer1"
     showgrid="false"
     units="px"
     inkscape:window-width="1680"
     inkscape:window-height="987"
     inkscape:window-x="-8"
     inkscape:window-y="-8"
     inkscape:window-maximized="1" />
  <metadata
     id="metadata5">
    <rdf:RDF>
      <cc:Work
         rdf:about="">
        <dc:format>image/svg+xml</dc:format>
        <dc:type
           rdf:resource="http://purl.org/dc/dcmitype/StillImage" />
        <dc:title></dc:title>
      </cc:Work>
    </rdf:RDF>
  </metadata>
  <g
     inkscape:label="Layer 1"
     inkscape:groupmode="layer"
     id="layer1"
     transform="translate(0,-287.47498)">
    <rect
       ry="1.3229166"
       rx="1.3229166"
       y="290.38541"
       x="0"
       height="6.614583"
       width="47.625"
       id="rect4756"
       style="color:#000000;clip-rule:nonzero;display:inline;overflow:visible;visibility:visible;opacity:1;isolation:auto;mix-blend-mode:normal;color-interpolation:sRGB;color-interpolation-filters:linearRGB;solid-color:#000000;solid-opacity:1;fill:#5937c8;fill-opacity:1;fill-rule:evenodd;stroke:none;stroke-width:0.99999994;stroke-linecap:butt;stroke-linejoin:miter;stroke-miterlimit:4;stroke-dasharray:none;stroke-dashoffset:0;stroke-opacity:1;color-rendering:auto;image-rendering:auto;shape-rendering:auto;text-rendering:auto;enable-background:accumulate" />
    <text
       id="text4760"
       y="295.00284"
       x="32.053295"
       style="font-style:normal;font-variant:normal;font-weight:bold;font-stretch:normal;font-size:3.66805744px;line-height:2;font-family:'Open Sans';-inkscape-font-specification:'Open Sans Bold';font-variant-ligatures:normal;font-variant-caps:normal;font-variant-numeric:normal;font-feature-settings:normal;text-align:center;letter-spacing:0px;word-spacing:0px;writing-mode:lr-tb;text-anchor:middle;fill:#ffffff;fill-opacity:1;stroke:none;stroke-width:0.26458332px;stroke-linecap:butt;stroke-linejoin:miter;stroke-opacity:1"
       xml:space="preserve"><tspan
         style="font-style:normal;font-variant:normal;font-weight:bold;font-stretch:normal;font-family:'Open Sans';-inkscape-font-specification:'Open Sans Bold';fill:#ffffff;stroke-width:0.26458332px"
         y="295.00284"
         x="32.053295"
         id="tspan4758"
         sodipodi:role="line">ANECDOTE</tspan></text>
    <g
       id="g5072"
       transform="translate(-12.8423,74.060048)"
       clip-path="url(#clipPath5078)">
      <path
         inkscape:connector-curvature="0"
         id="path4523"
         d="m 30.091831,219.95127 -0.229796,-1.27359 -0.871146,-1.61294 -3.277205,-0.88551 -8.962296,5.43423 -1.383391,1.32647 -2.639863,6.38167 1.732551,1.75278 5.606624,-0.8965 2.185739,-1.34618 5.477743,-5.96177 1.725201,-1.95685 z"
         style="display:inline;opacity:1;fill:#ffffff;fill-rule:evenodd;stroke:none;stroke-width:0.06296041px;stroke-linecap:butt;stroke-linejoin:miter;stroke-opacity:1" />
      <path
         sodipodi:nodetypes="cscccccccccccccscscc"
         inkscape:connector-curvature="0"
         id="path4508"
         d="m 15.857241,221.84618 c 0,0 2.437237,-1.59951 5.364707,-3.81868 5.071231,-3.84425 9.437216,-4.11839 9.437216,-4.11839 l 0.974407,1.57307 -0.591795,3.58911 c -3.433805,4.349 -6.05612,8.6358 -9.287902,10.7024 l -4.899404,2.88135 9.054583,-8.44824 c -2.059412,-0.93559 -2.935414,-4.05318 -2.618201,-4.35387 5.615031,7.41185 1.713335,4.10739 2.539201,3.9316 2.082902,-0.59835 2.848729,-2.40631 3.664974,-3.41982 0.539404,-0.64333 1.421703,-1.5586 1.421703,-1.5586 l 0.413628,-3.22291 -0.66722,-1.512 c -1.593635,3.58401 -1.775492,5.44704 -4.168941,3.48364 0,0 -1.178631,0.55543 -1.985343,0.7263 -0.207142,0.0439 -0.995751,-0.46356 -1.638119,-0.12216 -0.854473,0.66632 0.256725,5.08566 -0.499012,5.94353 -8.538104,9.69198 -9.643603,5.21909 -9.643603,5.21909 z"
         style="display:inline;opacity:1;fill:#5937c8;fill-opacity:1;fill-rule:evenodd;stroke:none;stroke-width:0.06296041px;stroke-linecap:butt;stroke-linejoin:miter;stroke-opacity:1" />
      <path
         style="display:inline;opacity:1;fill:#ffffff;fill-rule:evenodd;stroke:#5937c8;stroke-width:0.5291667;stroke-linecap:butt;stroke-linejoin:miter;stroke-miterlimit:4;stroke-dasharray:none;stroke-opacity:1"
         d="m 29.823347,220.3704 c 0.324589,-0.37543 1.346488,-1.36922 1.593559,-1.99177 0.400452,-1.00905 0.395548,-1.43001 1.279178,-3.2105 0.229001,-0.46144 -0.931731,-1.06282 -1.218314,-0.66369 -0.947864,1.32008 -0.988983,3.75073 -2.01699,4.67606"
         id="path4521"
         inkscape:connector-curvature="0"
         sodipodi:nodetypes="csssc" />
      <path
         sodipodi:nodetypes="sssss"
         inkscape:connector-curvature="0"
         id="path4516"
         d="m 29.026952,215.77705 c 0.115992,0.51395 -0.279514,1.13779 -0.914445,1.18436 -0.642025,0.0471 -1.047882,-0.20138 -1.196404,-0.64278 -0.168012,-0.49937 0.293424,-1.0442 0.91445,-1.18436 0.62102,-0.14015 1.10491,0.23739 1.196399,0.64278 z"
         style="color:#000000;clip-rule:nonzero;display:inline;overflow:visible;visibility:visible;opacity:1;isolation:auto;mix-blend-mode:normal;color-interpolation:sRGB;color-interpolation-filters:linearRGB;solid-color:#000000;solid-opacity:1;fill:#ffffff;fill-opacity:1;fill-rule:evenodd;stroke:none;stroke-width:0.23796059;stroke-linecap:butt;stroke-linejoin:miter;stroke-miterlimit:4;stroke-dasharray:none;stroke-dashoffset:0;stroke-opacity:1;color-rendering:auto;image-rendering:auto;shape-rendering:auto;text-rendering:auto;enable-background:accumulate" />
      <path
         style="color:#000000;clip-rule:nonzero;display:inline;overflow:visible;visibility:visible;opacity:1;isolation:auto;mix-blend-mode:normal;color-interpolation:sRGB;color-interpolation-filters:linearRGB;solid-color:#000000;solid-opacity:1;fill:#5937c8;fill-opacity:1;fill-rule:evenodd;stroke:none;stroke-width:0.23796056;stroke-linecap:butt;stroke-linejoin:miter;stroke-miterlimit:4;stroke-dasharray:none;stroke-dashoffset:0;stroke-opacity:1;color-rendering:auto;image-rendering:auto;shape-rendering:auto;text-rendering:auto;enable-background:accumulate"
         d="m 28.022384,215.62506 c 0.184628,0.0422 0.304901,0.24456 0.196656,0.4304 -0.109462,0.18791 -0.266448,0.26617 -0.434497,0.24375 -0.190116,-0.0253 -0.272676,-0.23486 -0.196651,-0.4304 0.07604,-0.19554 0.288856,-0.277 0.434492,-0.24375 z"
         id="path4519"
         inkscape:connector-curvature="0"
         sodipodi:nodetypes="sssss" />
      <path
         sodipodi:nodetypes="ssssss"
         inkscape:connector-curvature="0"
         id="path4510"
         d="m 30.659164,213.90911 c -0.947864,1.32009 -1.725746,3.3088 -1.776747,5.02422 -0.007,0.2355 0.152701,0.29972 0.297478,0.34779 0.160049,0.0532 0.686769,-0.35698 0.741321,-0.66932 0.345003,-1.97551 0.660979,-2.53805 1.645789,-4.32985 0.248117,-0.45144 -0.621258,-0.77197 -0.907841,-0.37284 z"
         style="display:inline;opacity:1;fill:#ffffff;fill-rule:evenodd;stroke:#5937c8;stroke-width:0.5291667;stroke-linecap:butt;stroke-linejoin:miter;stroke-miterlimit:4;stroke-dasharray:none;stroke-opacity:1" />
      <path
         sodipodi:nodetypes="ccccscsc"
         inkscape:connector-curvature="0"
         id="path4525"
         d="m 16.433221,224.97616 c 0,0 3.679487,2.11171 4.244388,1.61747 0,0 0.377864,-1.05569 0.576052,-1.62201 0.198186,-0.56631 0.184709,-0.92944 0.235766,-1.13656 0.05105,-0.20712 -0.31708,-0.97163 -0.222934,-1.71007 0.09414,-0.73844 0.19529,-1.44586 0.19529,-1.44586 0,0 -1.424973,0.90839 -2.824961,2.07194 -1.399987,1.16354 -2.2036,2.22509 -2.2036,2.22509 z"
         style="display:inline;opacity:1;fill:#5937c8;fill-opacity:1;fill-rule:evenodd;stroke:none;stroke-width:0.06296041px;stroke-linecap:butt;stroke-linejoin:miter;stroke-opacity:1" />
      <path
         style="display:inline;opacity:1;fill:#5937c8;fill-opacity:1;fill-rule:evenodd;stroke:none;stroke-width:0.0479629px;stroke-linecap:butt;stroke-linejoin:miter;stroke-opacity:1"
         d="m 17.79446,220.02203 c 0,0 -2.949032,-0.77948 -2.217134,-1.17864 0,0 1.539128,-0.51461 2.364645,-0.78883 0.825498,-0.27422 1.350734,-0.39269 1.652006,-0.48426 0.301305,-0.0915 1.397124,-0.20249 2.468736,-0.49305 1.071622,-0.29058 2.098546,-0.57335 2.098546,-0.57335 0,0 -1.356519,0.89135 -3.081646,1.85964 -1.7251,0.96828 -3.285144,1.65852 -3.285144,1.65852 z"
         id="path5056"
         inkscape:connector-curvature="0"
         sodipodi:nodetypes="ccccscsc" />
      <path
         style="display:inline;opacity:1;fill:#ffffff;fill-rule:evenodd;stroke:none;stroke-width:0.0479629px;stroke-linecap:butt;stroke-linejoin:miter;stroke-opacity:1"
         d="m 16.431082,218.81282 c 0.215557,-0.26709 1.133825,-0.44482 1.607857,-0.61224 1.845067,-0.57939 3.50614,-0.91439 4.935365,-1.27301 0.139916,-0.005 -4.745521,2.87487 -4.929832,2.91335 -0.476745,-0.38683 -1.621316,-1.01621 -1.61339,-1.0281 z"
         id="path5058"
         inkscape:connector-curvature="0"
         sodipodi:nodetypes="ccccc" />
      <path
         style="fill:#ffffff;fill-rule:evenodd;stroke:none;stroke-width:0.26458332px;stroke-linecap:butt;stroke-linejoin:miter;stroke-opacity:1"
         d="m 27.860045,219.01584 1.901693,-2.0836 c 0,0 -0.03169,0.0164 0.127902,0.74317 0.114837,0.52293 1.199681,-1.72488 1.51475,-2.46919 l -1.121754,3.56984 -0.926042,1.19062 z"
         id="path5249"
         inkscape:connector-curvature="0"
         sodipodi:nodetypes="ccscccc" />
    </g>
  </g>
</svg>
