<?xml version="1.0" encoding="UTF-8" standalone="no"?>
<!-- Created with Inkscape (http://www.inkscape.org/) -->

<svg
   xmlns:dc="http://purl.org/dc/elements/1.1/"
   xmlns:cc="http://creativecommons.org/ns#"
   xmlns:rdf="http://www.w3.org/1999/02/22-rdf-syntax-ns#"
   xmlns:svg="http://www.w3.org/2000/svg"
   xmlns="http://www.w3.org/2000/svg"
   xmlns:sodipodi="http://sodipodi.sourceforge.net/DTD/sodipodi-0.dtd"
   xmlns:inkscape="http://www.inkscape.org/namespaces/inkscape"
   width="180"
   height="36"
   viewBox="0 0 47.624999 9.5250003"
   version="1.1"
   id="svg8"
   inkscape:version="0.92.1 r15371"
   sodipodi:docname="good-read.svg">
  <defs
     id="defs2">
    <clipPath
       clipPathUnits="userSpaceOnUse"
       id="clipPath5108">
      <rect
         style="color:#000000;clip-rule:nonzero;display:inline;overflow:visible;visibility:visible;opacity:1;isolation:auto;mix-blend-mode:normal;color-interpolation:sRGB;color-interpolation-filters:linearRGB;solid-color:#000000;solid-opacity:1;fill:#ffffff;fill-opacity:1;fill-rule:evenodd;stroke:none;stroke-width:0.52916664;stroke-linecap:butt;stroke-linejoin:miter;stroke-miterlimit:4;stroke-dasharray:none;stroke-dashoffset:0;stroke-opacity:1;color-rendering:auto;image-rendering:auto;shape-rendering:auto;text-rendering:auto;enable-background:accumulate"
         id="rect5110"
         width="13.229167"
         height="8.9958334"
         x="17.4625"
         y="156.04062" />
    </clipPath>
    <clipPath
       clipPathUnits="userSpaceOnUse"
       id="clipPath5239">
      <rect
         y="15.760699"
         x="-231.24432"
         height="34"
         width="49.999996"
         id="rect5241"
         style="color:#000000;clip-rule:nonzero;display:inline;overflow:visible;visibility:visible;opacity:1;isolation:auto;mix-blend-mode:normal;color-interpolation:sRGB;color-interpolation-filters:linearRGB;solid-color:#000000;solid-opacity:1;fill:#ffffff;fill-opacity:1;fill-rule:evenodd;stroke:none;stroke-width:1.99999988;stroke-linecap:butt;stroke-linejoin:miter;stroke-miterlimit:4;stroke-dasharray:none;stroke-dashoffset:0;stroke-opacity:1;color-rendering:auto;image-rendering:auto;shape-rendering:auto;text-rendering:auto;enable-background:accumulate" />
    </clipPath>
  </defs>
  <sodipodi:namedview
     id="base"
     pagecolor="#ffffff"
     bordercolor="#666666"
     borderopacity="1.0"
     inkscape:pageopacity="0.0"
     inkscape:pageshadow="2"
     inkscape:zoom="3.959798"
     inkscape:cx="127.41657"
     inkscape:cy="24.522359"
     inkscape:document-units="px"
     inkscape:current-layer="layer1"
     showgrid="false"
     units="px"
     inkscape:window-width="1680"
     inkscape:window-height="987"
     inkscape:window-x="-8"
     inkscape:window-y="-8"
     inkscape:window-maximized="1" />
  <metadata
     id="metadata5">
    <rdf:RDF>
      <cc:Work
         rdf:about="">
        <dc:format>image/svg+xml</dc:format>
        <dc:type
           rdf:resource="http://purl.org/dc/dcmitype/StillImage" />
        <dc:title></dc:title>
      </cc:Work>
    </rdf:RDF>
  </metadata>
  <g
     inkscape:label="Layer 1"
     inkscape:groupmode="layer"
     id="layer1"
     transform="translate(0,-287.47498)">
    <rect
       style="color:#000000;clip-rule:nonzero;display:inline;overflow:visible;visibility:visible;opacity:1;isolation:auto;mix-blend-mode:normal;color-interpolation:sRGB;color-interpolation-filters:linearRGB;solid-color:#000000;solid-opacity:1;fill:#2c89a0;fill-opacity:1;fill-rule:evenodd;stroke:none;stroke-width:0.99999994;stroke-linecap:butt;stroke-linejoin:miter;stroke-miterlimit:4;stroke-dasharray:none;stroke-dashoffset:0;stroke-opacity:1;color-rendering:auto;image-rendering:auto;shape-rendering:auto;text-rendering:auto;enable-background:accumulate"
       id="rect4750"
       width="47.625"
       height="6.614583"
       x="-3.5527137e-015"
       y="290.38541"
       rx="1.3229166"
       ry="1.3229166" />
    <text
       xml:space="preserve"
       style="font-style:normal;font-variant:normal;font-weight:bold;font-stretch:normal;font-size:3.66805744px;line-height:2;font-family:'Open Sans';-inkscape-font-specification:'Open Sans Bold';font-variant-ligatures:normal;font-variant-caps:normal;font-variant-numeric:normal;font-feature-settings:normal;text-align:center;letter-spacing:0px;word-spacing:0px;writing-mode:lr-tb;text-anchor:middle;fill:#ffffff;fill-opacity:1;stroke:none;stroke-width:0.26458332px;stroke-linecap:butt;stroke-linejoin:miter;stroke-opacity:1"
       x="30.447332"
       y="295.00287"
       id="text4754"><tspan
         sodipodi:role="line"
         id="tspan4752"
         x="30.447332"
         y="295.00287"
         style="font-style:normal;font-variant:normal;font-weight:bold;font-stretch:normal;font-family:'Open Sans';-inkscape-font-specification:'Open Sans Bold';fill:#ffffff;stroke-width:0.26458332px">GOOD READ</tspan></text>
    <g
       id="g5143"
       transform="matrix(0.26458333,0,0,0.26458333,63.896519,283.30499)"
       style="fill:#2c89a0;fill-opacity:1"
       clip-path="url(#clipPath5239)">
      <path
         style="fill:#2c89a0;fill-opacity:1;stroke-width:0.77814841"
         inkscape:connector-curvature="0"
         d="m -201.72347,32.587359 c 7.24306,4.181777 14.70726,4.679105 16.89345,1.112602 -2.9015,4.805446 -8.06617,7.478278 -13.40962,7.379412 l -14.17589,24.663422 c -2.43617,-0.07227 -4.93814,-0.690827 -7.22542,-2.011389 -2.28729,-1.320561 -4.07396,-3.178059 -5.35463,-5.2517 l 14.15576,-24.738587 c -2.7372,-4.502958 -3.02495,-10.387286 -0.31406,-15.302779 -1.90028,3.731572 2.26252,9.947099 9.43041,14.149019"
         id="path5114" />
      <path
         style="fill:#ffffff;fill-opacity:1;stroke-width:0.77814841"
         inkscape:connector-curvature="0"
         d="m -201.72347,32.587359 c 5.43229,3.136333 11.44681,2.733146 13.57798,-0.738054 -2.88136,4.88061 -7.37893,7.938606 -11.69417,8.369833 l -14.19603,24.588259 c -2.03481,0.222985 -3.98511,-0.140593 -5.70058,-1.131014 -1.71545,-0.990421 -3.00547,-2.497639 -3.82976,-4.371326 l 14.34636,-24.628539 c -1.70899,-3.972866 -1.38464,-9.376727 1.40141,-14.31236 -1.99558,3.67655 0.73766,9.066726 6.09479,12.223201"
         id="path5116" />
      <path
         style="fill:#2c89a0;fill-opacity:1;stroke-width:0.78758514"
         inkscape:connector-curvature="0"
         d="m -194.02927,19.260107 c 7.33089,4.232491 11.58494,10.675544 9.54478,14.320606 -0.0557,0.09646 -0.0557,0.09646 -0.11139,0.192917 -2.23308,3.53368 -9.86389,3.050705 -17.09831,-1.126095 -7.33089,-4.232493 -11.54418,-10.523395 -9.52439,-14.244532 0.0557,-0.09646 0.0557,-0.09646 0.11138,-0.192918 2.04017,-3.645061 9.67097,-3.162086 17.07793,1.050022"
         id="path5118" />
      <path
         inkscape:connector-curvature="0"
         id="path5145"
         d="m -187.82532,34.085905 c 4.62161,-1.952343 0.45025,-7.531611 -2.0171,-9.694712 -5.02423,-4.315528 -12.45432,-8.731263 -19.14164,-6.021945 -3.03837,3.942869 2.20145,8.485037 5.13302,10.876949 4.51935,3.23445 10.33932,6.152219 16.02572,4.839708 z"
         style="fill:#ffffff;fill-opacity:1;stroke-width:0.77814841" />
      <path
         style="fill:#ffffff;fill-opacity:1;stroke-width:0.68991446"
         inkscape:connector-curvature="0"
         d="m -197.16582,25.445165 c 3.12638,1.80502 4.91167,4.469363 3.98477,6.074805 0,0 -0.0667,0.01785 -0.0488,0.0845 -0.96261,1.47216 -4.14478,1.324869 -7.20454,-0.498007 -3.04188,-1.756236 -4.82717,-4.420579 -4.03355,-5.990307 0,0 0.0488,-0.0845 0.0488,-0.0845 0.94475,-1.538801 4.14478,-1.324869 7.25331,0.41351"
         id="path5120" />
      <path
         style="fill:#ffffff;fill-opacity:1;stroke-width:0.77814841"
         inkscape:connector-curvature="0"
         d="m -198.14695,26.392642 c 1.62016,0.935398 2.56925,2.372848 2.14919,3.210438 -0.51535,0.782567 -2.15959,0.659223 -3.77975,-0.276175 -1.62015,-0.935397 -2.56924,-2.372849 -2.12905,-3.135275 0.42005,-0.83759 2.13946,-0.734386 3.75961,0.201012"
         id="path5122" />
    </g>
  </g>
</svg>
