<?xml version="1.0" encoding="UTF-8" standalone="no"?>
<!-- Created with Inkscape (http://www.inkscape.org/) -->

<svg
   xmlns:dc="http://purl.org/dc/elements/1.1/"
   xmlns:cc="http://creativecommons.org/ns#"
   xmlns:rdf="http://www.w3.org/1999/02/22-rdf-syntax-ns#"
   xmlns:svg="http://www.w3.org/2000/svg"
   xmlns="http://www.w3.org/2000/svg"
   xmlns:sodipodi="http://sodipodi.sourceforge.net/DTD/sodipodi-0.dtd"
   xmlns:inkscape="http://www.inkscape.org/namespaces/inkscape"
   width="180"
   height="36"
   viewBox="0 0 47.624999 9.5250003"
   version="1.1"
   id="svg8"
   sodipodi:docname="stuartpb-plug.svg"
   inkscape:version="0.92.1 r15371">
  <defs
     id="defs2" />
  <sodipodi:namedview
     id="base"
     pagecolor="#ffffff"
     bordercolor="#666666"
     borderopacity="1.0"
     inkscape:pageopacity="0.0"
     inkscape:pageshadow="2"
     inkscape:zoom="2.8"
     inkscape:cx="137.09732"
     inkscape:cy="57.482934"
     inkscape:document-units="px"
     inkscape:current-layer="layer1"
     showgrid="false"
     units="px"
     inkscape:window-width="1680"
     inkscape:window-height="987"
     inkscape:window-x="-8"
     inkscape:window-y="-8"
     inkscape:window-maximized="1" />
  <metadata
     id="metadata5">
    <rdf:RDF>
      <cc:Work
         rdf:about="">
        <dc:format>image/svg+xml</dc:format>
        <dc:type
           rdf:resource="http://purl.org/dc/dcmitype/StillImage" />
        <dc:title></dc:title>
      </cc:Work>
    </rdf:RDF>
  </metadata>
  <g
     inkscape:label="Layer 1"
     inkscape:groupmode="layer"
     id="layer1"
     transform="translate(0,-287.47498)">
    <rect
       style="color:#000000;clip-rule:nonzero;display:inline;overflow:visible;visibility:visible;opacity:1;isolation:auto;mix-blend-mode:normal;color-interpolation:sRGB;color-interpolation-filters:linearRGB;solid-color:#000000;solid-opacity:1;fill:#000000;fill-opacity:1;fill-rule:evenodd;stroke:none;stroke-width:0.99999994;stroke-linecap:butt;stroke-linejoin:miter;stroke-miterlimit:4;stroke-dasharray:none;stroke-dashoffset:0;stroke-opacity:1;color-rendering:auto;image-rendering:auto;shape-rendering:auto;text-rendering:auto;enable-background:accumulate"
       id="rect4485"
       width="47.625"
       height="6.614583"
       x="0"
       y="290.38541"
       rx="1.3229166"
       ry="1.3229166" />
    <text
       xml:space="preserve"
       style="font-style:normal;font-variant:normal;font-weight:bold;font-stretch:normal;font-size:3.66805744px;line-height:2;font-family:'Open Sans';-inkscape-font-specification:'Open Sans Bold';font-variant-ligatures:normal;font-variant-caps:normal;font-variant-numeric:normal;font-feature-settings:normal;text-align:center;letter-spacing:0px;word-spacing:0px;writing-mode:lr-tb;text-anchor:middle;fill:#ffffff;fill-opacity:1;stroke:none;stroke-width:0.26458332px;stroke-linecap:butt;stroke-linejoin:miter;stroke-opacity:1"
       x="30.353308"
       y="295.00284"
       id="text4489"><tspan
         sodipodi:role="line"
         id="tspan4487"
         x="30.353308"
         y="295.00284"
         style="font-style:normal;font-variant:normal;font-weight:bold;font-stretch:normal;font-family:'Open Sans';-inkscape-font-specification:'Open Sans Bold';fill:#ffffff;stroke-width:0.26458332px">I MADE A THING</tspan></text>
    <g
       id="g4618"
       transform="matrix(0.98472596,0,0,0.98472596,-14.967726,147.54024)"
       style="stroke-width:1.01551092">
      <path
         style="color:#000000;clip-rule:nonzero;display:inline;overflow:visible;visibility:visible;opacity:1;isolation:auto;mix-blend-mode:normal;color-interpolation:sRGB;color-interpolation-filters:linearRGB;solid-color:#000000;solid-opacity:1;fill:#000000;fill-opacity:1;fill-rule:evenodd;stroke:none;stroke-width:1.07474899;stroke-linecap:butt;stroke-linejoin:miter;stroke-miterlimit:4;stroke-dasharray:none;stroke-dashoffset:0;stroke-opacity:1;color-rendering:auto;image-rendering:auto;shape-rendering:auto;text-rendering:auto;enable-background:accumulate"
         id="path4606"
         sodipodi:type="arc"
         sodipodi:cx="23.365526"
         sodipodi:cy="147.92607"
         sodipodi:rx="5.8208332"
         sodipodi:ry="5.8208332"
         sodipodi:start="2.443461"
         sodipodi:end="0.6981317"
         d="m 18.906509,151.66763 a 5.8208332,5.8208332 0 0 1 0.464519,-7.97548 5.8208332,5.8208332 0 0 1 7.988996,0 5.8208332,5.8208332 0 0 1 0.464519,7.97548"
         sodipodi:open="true" />
      <path
         sodipodi:open="true"
         d="m 19.311874,151.23298 a 5.2916665,5.2916665 0 0 1 0.42229,-7.25044 5.2916665,5.2916665 0 0 1 7.262724,0 5.2916665,5.2916665 0 0 1 0.42229,7.25044"
         sodipodi:end="0.6981317"
         sodipodi:start="2.443461"
         sodipodi:ry="5.2916665"
         sodipodi:rx="5.2916665"
         sodipodi:cy="147.83156"
         sodipodi:cx="23.365526"
         sodipodi:type="arc"
         id="path4604"
         style="color:#000000;clip-rule:nonzero;display:inline;overflow:visible;visibility:visible;opacity:1;isolation:auto;mix-blend-mode:normal;color-interpolation:sRGB;color-interpolation-filters:linearRGB;solid-color:#000000;solid-opacity:1;fill:#ffffff;fill-opacity:1;fill-rule:evenodd;stroke:none;stroke-width:1.07474899;stroke-linecap:butt;stroke-linejoin:miter;stroke-miterlimit:4;stroke-dasharray:none;stroke-dashoffset:0;stroke-opacity:1;color-rendering:auto;image-rendering:auto;shape-rendering:auto;text-rendering:auto;enable-background:accumulate" />
    </g>
    <g
       id="g4614"
       transform="translate(-19.511345,136.25117)">
      <g
         id="layer2"
         inkscape:label="design"
         style="display:inline;stroke-width:1.24444449"
         transform="matrix(0.21261161,0,0,0.21261161,22.031649,150.84976)">
        <path
           style="fill:#000000;stroke:none;stroke-width:1.24444449"
           d="m 25.4375,12.4375 c -4.596935,0.194809 -12.152266,1.530226 -13.34375,3.375 -1.815471,2.810892 -1.76163,9.490492 -1.75,10.1875 1.977117,1.086796 6.770338,3.521639 11.46875,4.8125 6.424817,1.765179 13.75,2.03125 13.75,2.03125 0,0 -5.702366,0.168541 -13.25,-1.65625 C 17.556792,30.037712 11.906069,27.163456 9.9375,26.25 8.868011,26.21158 3.6597997,26.084117 3.34375,27.4375 c -0.296694,1.270498 -0.041748,1.54784 2.34375,3.21875 1.806949,1.265668 6.306651,3.791443 9.71875,5.125 4.647628,1.816441 9.060817,2.971439 14.46875,3.84375 8.638343,1.393383 16.525777,0.894061 16.125,-5.71875 -0.125,-2.0625 -0.92211,-3.33612 -2.8125,-4.75 -1.270129,-0.949968 -2.640422,-1.381722 -2.9375,-1.46875 0.105416,2.106664 0.21875,4.375 0.21875,4.375 -0.158548,-1.20099 -0.349963,-2.921686 -0.4375,-4.4375 0,0 -0.02458,-0.325947 -0.03125,-0.40625 -0.09389,-1.130889 -0.805898,-9.418227 -1.5625,-10.6875 -1.922706,-3.225524 -7.258522,-3.272727 -10.53125,-4 -0.204545,-0.04546 -0.447088,-0.0831 -0.71875,-0.09375 -0.509366,-0.01997 -1.093295,-0.02783 -1.75,0 z m 4.8125,1.40625 c 0,0 5.90442,1.439356 5.8125,3.4375 -0.112993,2.456131 -14.788051,-0.922087 -21.1875,-1.625 6.789178,0.282803 17.527033,2.907661 19.5625,1.65625 C 36.840899,15.834883 30.25,13.84375 30.25,13.84375 Z m -8.84375,6.1875 8.125,1.03125 -0.40625,6.53125 c 1.748998,0.229708 3.78125,0.5 3.78125,0.5 0,0 -4.818129,-0.369694 -7.8125,-0.8125 -4.65854,-0.688903 -7,-2.03125 -7,-2.03125 0,0 0.421407,0.210061 2.875,1 0.01458,0.0047 0.04701,0.02645 0.0625,0.03125 z"
           id="path2998"
           inkscape:connector-curvature="0" />
      </g>
      <g
         id="layer6"
         inkscape:label="2c-pips"
         transform="matrix(0.21261161,0,0,0.21261161,20.75598,149.57409)"
         style="display:inline;stroke-width:1.24444449">
        <path
           sodipodi:nodetypes="csscscccsccccccc"
           inkscape:connector-curvature="0"
           id="path7100-2"
           d="m 27.813708,27.729426 0.01373,-0.0741 c 0.04234,-0.228999 0.100808,-0.301855 0.412067,-0.513587 0.151048,-0.102748 0.202602,-0.155796 0.215846,-0.222089 0.03421,-0.155819 -0.102982,-0.219546 -0.19556,-0.229829 -0.119891,-0.01326 -0.26294,0.04473 -0.215176,0.217957 l -0.138618,0.02583 c -0.01142,-0.158221 0.03127,-0.301289 0.164032,-0.353239 0.176853,-0.06725 0.389402,-0.01221 0.484818,0.131854 0.06413,0.0968 0.06822,0.221818 0.01917,0.314412 -0.139885,0.23525 -0.540322,0.304257 -0.601553,0.586457 l 0.430491,0.04379 0.01618,-0.158969 0.126793,0.0129 -0.02978,0.292656 z"
           style="display:inline;fill:#000000;fill-opacity:1;stroke-width:1.24444449" />
        <path
           style="display:inline;fill:#000000;fill-opacity:1;stroke-width:1.24444449"
           d="m 30.709523,30.239704 c 0.166502,-0.263333 0.296174,-0.537687 0.345015,-0.840202 0.02781,-0.110329 -0.04002,-0.119115 -0.05829,-0.0413 -0.271991,0.729003 -1.292954,0.420227 -1.185469,-0.280586 0.08719,-0.568353 0.667146,-0.633526 0.944141,-0.416608 0.109889,0.08072 0.107475,0.03882 0.05094,-0.03906 -0.389807,-0.535198 -0.05924,-1.139713 0.536143,-1.090816 0.638749,0.10349 0.736699,0.796553 0.302061,1.154062 -0.05388,0.04278 -0.17819,0.185264 -0.0035,0.09456 0.426789,-0.242306 0.948224,0.11796 0.892593,0.552835 -0.102583,0.801855 -1.088808,0.762095 -1.230091,0.06923 -0.01259,-0.07651 -0.06687,-0.119817 -0.06369,0.0083 0.0057,0.2319 0.03075,0.583198 0.172191,0.900997 z"
           id="path3259"
           inkscape:connector-curvature="0"
           sodipodi:nodetypes="cccscccccscscc" />
        <path
           style="display:inline;fill:#000000;fill-opacity:1;stroke-width:1.24444449"
           d="m 27.913,28.787409 c 0.05333,-0.08601 0.104835,-0.165868 0.138324,-0.262683 0.02504,-0.09197 -0.01021,-0.06044 -0.0345,-9.89e-4 -0.03535,0.08231 -0.11336,0.113507 -0.182202,0.107442 -0.12494,-0.01103 -0.177203,-0.115414 -0.162592,-0.220493 -0.0024,-0.112368 0.11814,-0.179449 0.202308,-0.164774 0.06329,0.01104 0.115365,0.05107 0.146283,0.08127 0.02087,0.01392 0.04396,0.02146 0.0141,-0.01197 -0.05519,-0.07417 -0.102706,-0.121297 -0.09123,-0.22284 0.01076,-0.09534 0.102508,-0.186574 0.210334,-0.172447 0.134756,0.01761 0.185723,0.126971 0.175647,0.222815 -0.0075,0.06985 -0.04895,0.130625 -0.106962,0.164975 -0.03782,0.0248 -0.03019,0.04704 0.0124,0.02426 0.04166,-0.02912 0.08874,-0.03893 0.136133,-0.03514 0.129395,0.01114 0.168541,0.127893 0.150589,0.230874 -0.0168,0.09648 -0.109739,0.18809 -0.217631,0.165667 -0.09623,-0.02107 -0.139079,-0.108008 -0.159858,-0.194895 -0.0071,-0.02672 -0.0217,-0.03522 -0.02516,0.0031 0.0034,0.189477 0.06133,0.313047 0.06185,0.31299 z"
           id="path3454"
           inkscape:connector-curvature="0"
           sodipodi:nodetypes="cccscsccssscccsccccc" />
      </g>
    </g>
  </g>
</svg>
