<?xml version="1.0" encoding="UTF-8" standalone="no"?>
<!-- Created with Inkscape (http://www.inkscape.org/) -->

<svg
   xmlns:dc="http://purl.org/dc/elements/1.1/"
   xmlns:cc="http://creativecommons.org/ns#"
   xmlns:rdf="http://www.w3.org/1999/02/22-rdf-syntax-ns#"
   xmlns:svg="http://www.w3.org/2000/svg"
   xmlns="http://www.w3.org/2000/svg"
   xmlns:sodipodi="http://sodipodi.sourceforge.net/DTD/sodipodi-0.dtd"
   xmlns:inkscape="http://www.inkscape.org/namespaces/inkscape"
   width="180"
   height="36"
   viewBox="0 0 47.624999 9.5250003"
   version="1.1"
   id="svg8"
   inkscape:version="0.92.1 r15371"
   sodipodi:docname="useful-tool.svg">
  <defs
     id="defs2">
    <clipPath
       clipPathUnits="userSpaceOnUse"
       id="clipPath5108">
      <rect
         style="color:#000000;clip-rule:nonzero;display:inline;overflow:visible;visibility:visible;opacity:1;isolation:auto;mix-blend-mode:normal;color-interpolation:sRGB;color-interpolation-filters:linearRGB;solid-color:#000000;solid-opacity:1;fill:#ffffff;fill-opacity:1;fill-rule:evenodd;stroke:none;stroke-width:0.52916664;stroke-linecap:butt;stroke-linejoin:miter;stroke-miterlimit:4;stroke-dasharray:none;stroke-dashoffset:0;stroke-opacity:1;color-rendering:auto;image-rendering:auto;shape-rendering:auto;text-rendering:auto;enable-background:accumulate"
         id="rect5110"
         width="13.229167"
         height="8.9958334"
         x="17.4625"
         y="156.04062" />
    </clipPath>
  </defs>
  <sodipodi:namedview
     id="base"
     pagecolor="#ffffff"
     bordercolor="#666666"
     borderopacity="1.0"
     inkscape:pageopacity="0.0"
     inkscape:pageshadow="2"
     inkscape:zoom="3.959798"
     inkscape:cx="127.41657"
     inkscape:cy="24.522359"
     inkscape:document-units="px"
     inkscape:current-layer="layer1"
     showgrid="false"
     units="px"
     inkscape:window-width="1680"
     inkscape:window-height="987"
     inkscape:window-x="-8"
     inkscape:window-y="-8"
     inkscape:window-maximized="1" />
  <metadata
     id="metadata5">
    <rdf:RDF>
      <cc:Work
         rdf:about="">
        <dc:format>image/svg+xml</dc:format>
        <dc:type
           rdf:resource="http://purl.org/dc/dcmitype/StillImage" />
        <dc:title></dc:title>
      </cc:Work>
    </rdf:RDF>
  </metadata>
  <g
     inkscape:label="Layer 1"
     inkscape:groupmode="layer"
     id="layer1"
     transform="translate(0,-287.47498)">
    <rect
       ry="1.3229166"
       rx="1.3229166"
       y="290.38541"
       x="0"
       height="6.614583"
       width="47.625"
       id="rect4706"
       style="color:#000000;clip-rule:nonzero;display:inline;overflow:visible;visibility:visible;opacity:1;isolation:auto;mix-blend-mode:normal;color-interpolation:sRGB;color-interpolation-filters:linearRGB;solid-color:#000000;solid-opacity:1;fill:#008000;fill-opacity:1;fill-rule:evenodd;stroke:none;stroke-width:0.99999994;stroke-linecap:butt;stroke-linejoin:miter;stroke-miterlimit:4;stroke-dasharray:none;stroke-dashoffset:0;stroke-opacity:1;color-rendering:auto;image-rendering:auto;shape-rendering:auto;text-rendering:auto;enable-background:accumulate" />
    <text
       id="text4710"
       y="295.00287"
       x="31.147057"
       style="font-style:normal;font-variant:normal;font-weight:bold;font-stretch:normal;font-size:3.66805744px;line-height:2;font-family:'Open Sans';-inkscape-font-specification:'Open Sans Bold';font-variant-ligatures:normal;font-variant-caps:normal;font-variant-numeric:normal;font-feature-settings:normal;text-align:center;letter-spacing:0px;word-spacing:0px;writing-mode:lr-tb;text-anchor:middle;fill:#ffffff;fill-opacity:1;stroke:none;stroke-width:0.26458332px;stroke-linecap:butt;stroke-linejoin:miter;stroke-opacity:1"
       xml:space="preserve"><tspan
         style="font-style:normal;font-variant:normal;font-weight:bold;font-stretch:normal;font-family:'Open Sans';-inkscape-font-specification:'Open Sans Bold';fill:#ffffff;stroke-width:0.26458332px"
         y="295.00287"
         x="31.147057"
         id="tspan4708"
         sodipodi:role="line">USEFUL TOOL</tspan></text>
    <g
       id="g5101"
       clip-path="url(#clipPath5108)"
       transform="translate(-14.574247,131.43438)">
      <path
         d="m 22.068359,155.90625 c -1.163819,-0.024 -2.343017,0.56488 -3.169921,1.67578 -0.03984,-0.0157 -0.07001,-0.0358 -0.132813,-0.0469 -0.114312,-0.0202 -0.318876,0.0307 -0.394531,0.0781 v -0.002 c -0.04113,0.0256 -0.07008,0.0496 -0.101563,0.0781 -0.03148,0.0285 -0.05828,0.0278 -0.125,0.16016 -3.16e-4,6.3e-4 -0.03141,0.0765 -0.03711,0.0996 -0.0057,0.0231 -0.0079,0.0392 -0.0098,0.0527 -0.0036,0.0271 -0.0054,0.0441 -0.0059,0.0586 -9.01e-4,0.0291 9.75e-4,0.0494 0.002,0.0703 0.002,0.0418 0.0049,0.0853 0.0098,0.13476 0.0097,0.0989 0.02558,0.22119 0.04297,0.35157 0.03477,0.26076 0.07533,0.53737 0.115235,0.71679 0.02559,0.11506 0.07621,0.42639 0.101562,0.63282 0.04229,0.34435 0.09648,0.62299 0.167969,0.85156 0.07149,0.22857 0.111212,0.42949 0.392578,0.60156 0.140683,0.086 0.387085,0.10442 0.544922,0.0293 0.157837,-0.0751 0.23541,-0.17989 0.296875,-0.27734 0.12293,-0.19492 0.189144,-0.41232 0.255859,-0.70313 0.06902,-0.30221 0.328192,-0.96693 0.529297,-1.33203 0.130823,-0.2376 0.249915,-0.35636 0.242188,-0.67969 -0.0027,-0.11206 -0.10055,-0.2214 -0.181641,-0.32617 0.04295,-0.0428 0.0417,-0.0524 0.09961,-0.0977 0.321085,-0.25093 0.880205,-0.46608 0.966796,-0.46289 0.665237,0.0245 1.171414,0.32493 1.496094,0.79688 0.324681,0.47195 0.461031,1.12641 0.291016,1.86523 -0.04274,0.18578 -0.297729,0.86989 -0.691406,1.76758 -0.393678,0.89769 -0.930872,2.04985 -1.558594,3.34375 -1.101416,2.27044 -1.369315,2.8329 -2.78125,5.81055 -2.186808,4.61184 -2.417165,5.0479 -2.458985,5.10351 -0.07821,0.10395 -0.197412,0.27551 -0.285156,0.40625 -0.06518,0.0971 -0.187666,0.23058 -0.199219,0.24024 -0.103894,0.0868 -0.281521,0.2496 -0.439453,0.40039 -0.150204,0.14337 -0.352636,0.33354 -0.445312,0.41992 -0.465724,0.43392 -0.768843,1.0649 -0.919922,1.80469 -0.05978,0.29275 -0.06634,0.48664 -0.02539,0.95703 0.01433,0.16453 0.0017,0.22216 0.0078,0.20312 0.0061,-0.019 0.03392,-0.0368 -0.04297,0.0274 -0.446088,0.3722 -0.740554,0.88475 -0.876953,1.41015 -0.136399,0.5254 -0.128709,1.09042 0.193359,1.54102 0.07961,0.11138 0.144517,0.22092 0.183594,0.29883 0.03908,0.0779 0.02522,0.1735 0.0332,0.0117 -0.0068,0.1377 0.0057,0.23546 0.02344,0.35937 0.01052,0.0735 0.01595,0.22012 0.01758,0.18555 -0.02139,0.46488 0.116675,0.94909 0.591797,1.16211 0.0178,0.009 0.111603,0.0768 0.07226,0.041 a 0.46423666,0.46423666 0 0 0 0.002,0.002 c 0.0618,0.0555 0.134452,0.11769 0.259766,0.1621 0.125314,0.0444 0.316943,0.0389 0.447266,-0.0234 0.260645,-0.1247 0.313081,-0.28042 0.40625,-0.44531 0.120672,-0.2136 0.180743,-0.47896 0.175781,-0.75977 -0.005,-0.28081 -0.05972,-0.59263 -0.152344,-1.01563 -0.01309,-0.0598 -0.011,-0.0526 0.01172,-0.084 0.02272,-0.0314 0.09778,-0.099 0.257812,-0.1582 0.79196,-0.29286 1.362675,-1.05173 1.513672,-1.91797 0.06689,-0.3836 -0.0063,-0.21825 0.220703,-0.49805 0.425936,-0.52487 0.686728,-1.19423 0.935547,-2.26172 0.01871,-0.0803 0.184963,-0.5605 0.339844,-0.95703 0.07744,-0.19826 0.153446,-0.38768 0.212891,-0.52344 0.02972,-0.0679 0.05528,-0.12276 0.07031,-0.15234 0.0075,-0.0148 0.01392,-0.0242 0.0098,-0.0176 0.0041,-0.005 0.008,-0.009 0.0098,-0.0117 0.0103,-0.0153 0.01595,-0.0212 0.01953,-0.0273 0.0072,-0.0122 0.0097,-0.0199 0.01367,-0.0273 0.008,-0.0149 0.01574,-0.0297 0.02539,-0.0488 0.01931,-0.0382 0.04546,-0.0897 0.07813,-0.15625 0.06532,-0.1331 0.156868,-0.3232 0.269531,-0.55664 0.225328,-0.46689 0.533832,-1.10843 0.869141,-1.8125 0.669124,-1.40521 1.338396,-2.78463 1.427734,-2.95313 0.131276,-0.24755 0.432514,-0.85832 0.689453,-1.39453 0.253222,-0.52845 0.601827,-1.23528 0.765626,-1.55664 0.175261,-0.34385 0.564009,-1.1502 0.876953,-1.81445 0.309282,-0.65587 0.683562,-1.41669 0.802734,-1.63672 0.203772,-0.37626 0.30906,-0.60784 0.460937,-1.01563 0.14073,-0.37954 0.201942,-0.51294 0.330079,-0.73437 0.115842,-0.20026 0.29058,-0.55099 0.419921,-0.83203 0.117695,-0.25562 0.288336,-0.591 0.333985,-0.66797 0.07857,-0.13248 0.232446,-0.3987 0.349609,-0.60938 v -0.002 c 0.15252,-0.27373 0.249514,-0.37023 0.31836,-0.44141 0.01791,0.0455 0.02767,0.0511 0.04102,0.16797 0.0222,0.19432 0.01337,0.4475 -0.02148,0.66797 -0.01943,0.1229 -0.04737,0.17042 -0.07617,0.25586 -0.0096,-0.003 -0.0072,-0.009 -0.01758,-0.0117 -0.09634,-0.0286 -0.274498,-0.0399 -0.425781,0.0547 -0.151284,0.0945 -0.209292,0.23251 -0.232422,0.32031 -0.04626,0.17561 -0.02482,0.27388 -0.0098,0.4082 0.01505,0.13433 0.04027,0.2908 0.07617,0.48633 0.03506,0.19095 0.08861,0.80538 0.08789,1.05664 -6.3e-4,0.22382 0.0036,0.39595 0.02734,0.55664 0.01188,0.0804 0.02441,0.15889 0.07617,0.26368 0.05176,0.10478 0.200574,0.27677 0.41211,0.30273 0.211535,0.026 0.340308,-0.0647 0.417968,-0.125 0.07766,-0.0603 0.127439,-0.11905 0.179688,-0.18359 0.104498,-0.12909 0.208397,-0.28785 0.33789,-0.49414 0.402905,-0.6419 0.624172,-0.95595 0.990235,-1.41211 0.06338,-0.0789 0.114445,-0.14316 0.162109,-0.2168 0.04766,-0.0736 0.132063,-0.14519 0.115235,-0.38672 -0.0084,-0.12076 -0.08858,-0.27585 -0.183594,-0.35351 -0.09501,-0.0777 -0.175883,-0.0969 -0.234375,-0.10938 -0.01784,-0.004 -0.02344,5e-4 -0.03906,-0.002 0.01333,-0.071 0.0083,-0.11053 0.08398,-0.27735 0.175266,-0.38647 0.157592,-0.80612 0.08398,-1.2207 0.151487,0.37392 0.276913,0.68079 0.376953,0.90234 0.107833,0.23882 0.154285,0.38728 0.335938,0.5625 0.09083,0.0876 0.321705,0.21025 0.544922,0.13868 0.223217,-0.0716 0.291044,-0.21155 0.33789,-0.29883 0.09369,-0.17456 0.125442,-0.32357 0.181641,-0.52735 0.103756,-0.37601 0.400308,-1.02728 0.5,-1.16992 0.08032,-0.11493 0.143811,-0.21342 0.195312,-0.32226 0.0515,-0.10885 0.130289,-0.23586 0.06055,-0.47852 -0.03487,-0.12133 -0.138589,-0.24917 -0.24414,-0.31055 -0.105552,-0.0614 -0.196516,-0.0742 -0.269532,-0.0781 -0.0867,-0.005 -0.148935,0.0161 -0.216797,0.0293 -0.0068,-0.0287 0.0069,0.0102 0.002,-0.0293 -0.139623,-1.10899 -1.11584,-1.80239 -2.15625,-1.99219 -1.04041,-0.1898 -2.237918,0.0714 -3.017578,0.94531 -9.57e-4,0.001 -0.001,8.9e-4 -0.002,0.002 -0.644932,-1.27214 -1.825879,-1.96699 -3.046875,-1.99219 z m 5.820313,2.66797 c 0.201837,0.004 0.371414,0.0573 0.472656,0.125 0.0147,0.01 0.01103,0.0273 0.02344,0.0371 -0.161592,0.0514 -0.367582,0.25668 -0.396485,0.43555 -0.01649,0.10204 0.01407,0.15437 0.0293,0.22265 -0.05291,-0.0665 -0.08319,-0.14667 -0.148437,-0.20508 -0.210571,-0.18866 -0.536692,-0.23968 -0.853516,-0.30664 0.273891,-0.18669 0.585588,-0.31451 0.873047,-0.30859 z m -13.902344,23.55859 c -0.0026,0.0532 0.03248,0.0546 -0.03906,0.14063 -0.07549,0.0908 -0.188565,0.13175 -0.253907,0.13867 -0.0082,8.7e-4 -0.0065,-0.002 -0.01367,-0.002 -0.002,-0.0312 -0.02208,-0.0361 0.0059,-0.0957 0.02881,-0.0615 0.09748,-0.13769 0.189453,-0.17578 0.04333,-0.0179 0.07142,-0.005 0.111328,-0.006 z m -0.06836,0.38281 c 0.03311,0.0188 0.02309,0.0192 0.02148,0.0156 -0.0056,-0.0125 0.0458,0.0528 -0.0078,0.21094 -0.05362,0.15814 -0.204984,0.22737 -0.222657,0.23242 -0.140723,0.0402 -0.217384,-0.01 -0.236328,-0.0215 0,0 -0.002,0 -0.002,0 0.0041,0.006 -0.0025,0.0136 -0.01367,-0.043 -0.01122,-0.0566 0.01661,-0.26824 0.16211,-0.36719 0.124964,-0.085 0.265722,-0.0462 0.298828,-0.0273 z m 0.136719,0.46876 c 0.02318,0.0279 0.09574,0.1237 0.06641,0.28906 -0.01442,0.0813 -0.07196,0.0955 -0.119141,0.14648 -0.0089,-0.003 -0.0054,-0.004 -0.01563,-0.008 0.01032,0.003 0.0023,0.0103 0.01172,0.0137 -0.04862,0.0508 -0.08654,0.13769 -0.121094,0.15039 -0.139202,0.0512 -0.117094,0.009 -0.08984,0.0215 0.06447,0.0294 0.0754,0.0831 0.0039,-0.0312 -0.03575,-0.0572 -0.0849,-0.21419 -0.0293,-0.35547 0.0556,-0.14128 0.156295,-0.19115 0.193359,-0.20703 l 0.002,-0.002 c 0.10888,-0.0464 0.08149,-0.023 0.09766,-0.0176 z m 0.175781,0.79101 c -0.0011,0.005 0.0014,8.2e-4 0,0.006 -0.01601,0.0586 -0.110753,0.1487 -0.207031,0.21094 0.0057,-0.0344 -0.0221,-0.0306 -0.0039,-0.0703 -6.98e-4,0.002 0.0017,-0.0238 0.06055,-0.0859 0.02716,-0.0287 0.09532,-0.0356 0.150391,-0.0606 z m 0.05664,0.38867 0.0098,0.0918 0.002,0.004 c -0.0039,-0.0399 0.01,-0.0571 -0.01172,0.0293 -0.01086,0.0432 -0.04126,0.12572 -0.123047,0.19922 -0.02685,0.0241 -0.05627,0.0195 -0.08789,0.0352 -0.004,-0.0858 -0.03703,-0.1542 0.02539,-0.24219 0.07392,-0.1042 0.127885,-0.10054 0.185547,-0.11719 z m 0.25586,0.45703 c -0.09329,-0.0311 -0.123887,0.02 -0.19336,0.0332 -0.0028,-0.0102 -0.0056,-0.0232 -0.0078,-0.0312 0.07516,-0.008 0.155338,-0.0173 0.201172,-0.002 z m -0.289063,0.004 c 0.0273,-0.01 0.04367,0.004 0.07031,0 0.0016,0.01 -0.0029,0.024 -0.002,0.0352 -0.0473,0.0123 -0.104265,0.003 -0.138672,0.0234 0.02799,-0.0191 0.03647,-0.0462 0.07031,-0.0586 z m -0.08203,0.0918 c 0.08358,-0.0152 0.120884,0.005 0.148437,0.0176 -0.0029,0.0351 0.0099,0.0571 -0.0039,0.0957 -0.03837,0.10723 -0.125786,0.19496 -0.193359,0.23437 -0.08872,0.0517 -0.10619,0.0358 -0.138672,0.0352 -0.0073,-0.01 -0.01401,-0.009 -0.01758,-0.0606 -0.002,-0.0293 -0.0072,-0.0905 0.05078,-0.20312 0.02595,-0.0241 0.0451,-0.0427 0.07617,-0.0606 9.21e-4,7.5e-4 0.01387,0.01 0.01367,0.01 -1.61e-4,-1.6e-4 -0.0067,-0.0128 -0.0078,-0.0137 0.02907,-0.016 0.04436,-0.0496 0.07227,-0.0547 z"
         id="path5094"
         style="fill:#008000;fill-opacity:1;stroke-width:0.02853003"
         inkscape:original="M 22.058594 156.37109 C 20.998261 156.34922 19.894688 156.89159 19.144531 158.00391 C 19.069892 158.11461 18.999195 158.12197 18.820312 158.04297 C 18.688719 157.98477 18.657508 157.98056 18.617188 158.00586 C 18.591048 158.02216 18.564794 158.04629 18.558594 158.05859 C 18.538322 158.09894 18.652214 158.95082 18.714844 159.23242 C 18.748597 159.38414 18.797019 159.68868 18.824219 159.91016 C 18.98439 161.21432 19.325684 161.42304 19.568359 160.36523 C 19.656178 159.9807 19.915774 159.32741 20.144531 158.91211 C 20.393587 158.45978 20.391245 158.37373 20.130859 158.32812 C 19.531504 158.22306 20.994516 157.07967 21.695312 157.10547 C 23.30088 157.16458 24.310094 158.63191 23.917969 160.33594 C 23.78437 160.91671 22.892247 162.95086 21.632812 165.54688 C 20.531638 167.81682 20.265411 168.37596 18.853516 171.35352 C 16.666593 175.96561 16.467441 176.37523 16.345703 176.53711 C 16.27822 176.6268 16.156159 176.79979 16.074219 176.92188 C 15.986628 177.05237 15.868459 177.19177 15.787109 177.25977 C 15.710983 177.32337 15.52345 177.49516 15.371094 177.64062 C 15.218707 177.78608 15.016715 177.97605 14.921875 178.06445 C 14.550361 178.41059 14.277305 178.95377 14.140625 179.62305 C 14.084055 179.90009 14.082587 179.9805 14.123047 180.44531 C 14.154481 180.80629 14.12521 180.90263 13.921875 181.07227 C 13.206636 181.66904 12.906777 182.8226 13.318359 183.39844 C 13.502005 183.6554 13.625994 183.90265 13.621094 184.00195 C 13.618514 184.05397 13.626935 184.17568 13.640625 184.27148 C 13.654345 184.36735 13.664709 184.48962 13.662109 184.54492 C 13.646835 184.87687 13.776388 185.17022 13.980469 185.26172 C 14.046751 185.29156 14.135221 185.34591 14.175781 185.38281 C 14.330442 185.52172 14.411174 185.48192 14.574219 185.19336 C 14.735031 184.90872 14.728826 184.56808 14.548828 183.74609 C 14.474419 183.40631 14.673463 183.13068 15.111328 182.96875 C 15.710112 182.74733 16.205238 182.11123 16.328125 181.40625 C 16.396417 181.01464 16.412939 180.9807 16.644531 180.69531 C 17.008483 180.24682 17.248006 179.6603 17.490234 178.62109 C 17.570855 178.27524 18.127329 176.84984 18.199219 176.80664 C 18.211128 176.79956 18.769423 175.64325 19.439453 174.23633 C 20.109401 172.82939 20.756863 171.49212 20.876953 171.26562 C 20.997048 171.03915 21.303559 170.41895 21.558594 169.88672 C 21.81363 169.35448 22.160053 168.65005 22.328125 168.32031 C 22.496189 167.99058 22.887906 167.18032 23.199219 166.51953 C 23.510777 165.85884 23.877131 165.11148 24.013672 164.85938 C 24.212034 164.49311 24.299012 164.3004 24.447266 163.90234 C 24.591676 163.51287 24.672031 163.33703 24.810547 163.09766 C 24.908011 162.92917 25.087791 162.57227 25.210938 162.30469 C 25.33413 162.03713 25.495429 161.71672 25.568359 161.59375 C 25.641282 161.47079 25.795005 161.20123 25.910156 160.99414 C 26.324226 160.24976 26.626322 160.05108 26.921875 160.32422 C 27.393603 160.76017 27.06768 162.82158 26.591797 162.41211 C 26.313737 162.17291 26.285554 162.27925 26.425781 163.04297 C 26.472951 163.29986 26.522348 163.8822 26.521484 164.18555 C 26.51906 165.0474 26.612062 165.05942 27.115234 164.25781 C 27.522741 163.60858 27.762012 163.26772 28.136719 162.80078 C 28.377051 162.50148 28.373109 162.46466 28.115234 162.47266 C 27.75962 162.48315 27.711411 162.14793 27.980469 161.55469 C 28.21872 161.02933 27.986115 159.91784 27.558594 159.53516 C 27.325512 159.32633 27.11982 159.2566 26.634766 159.2207 C 26.19477 159.18822 26.123058 159.09769 26.333984 158.83203 C 27.119607 157.84242 28.837947 157.87768 28.984375 158.88672 C 29.021596 159.14307 28.940338 159.22303 28.685547 159.17773 C 28.390028 159.12515 28.370685 159.24469 28.603516 159.68555 C 28.705866 159.87934 28.832559 160.14728 28.886719 160.28125 C 29.561132 161.948 29.595758 161.97976 29.816406 161.17969 C 29.937093 160.74232 30.205306 160.12116 30.382812 159.86719 C 30.672445 159.45275 30.64084 159.34043 30.259766 159.44141 C 29.947792 159.52402 29.888008 159.46208 29.830078 159.00195 C 29.612045 157.27017 26.760825 156.75021 25.462891 158.20508 C 25.057671 158.65897 24.97646 158.64898 24.708984 158.11719 C 24.135773 156.97757 23.118927 156.39297 22.058594 156.37109 z M 25.433594 160.45703 C 25.72948 160.31287 25.747997 160.48682 25.478516 160.87695 C 25.364979 161.04131 25.229984 161.24157 25.177734 161.32227 C 25.05679 161.50922 24.089712 163.503 23 165.8125 C 22.533771 166.80041 22.106534 167.70301 22.052734 167.81836 C 21.998275 167.93348 21.811704 168.31832 21.636719 168.67383 C 21.461739 169.02933 21.064912 169.8392 20.755859 170.47266 C 20.44664 171.10607 20.180592 171.63674 20.164062 171.65234 C 20.147617 171.66788 19.754893 172.49451 19.291016 173.49023 C 18.827391 174.48602 18.288654 175.62143 18.091797 176.01172 C 17.895026 176.40203 17.571308 177.07384 17.373047 177.50586 C 16.947995 178.43228 16.867225 178.53624 16.642578 178.46094 C 16.488008 178.40911 16.473465 178.29519 16.580078 178.00195 C 16.622648 177.88482 16.663722 177.76809 16.669922 177.74219 C 16.676504 177.71632 16.751147 177.58615 16.835938 177.45312 C 17.101628 177.03644 17.667085 175.88718 18.626953 173.81641 C 19.536366 171.8545 20.247641 170.36355 20.332031 170.24023 C 20.355537 170.20598 20.661754 169.56929 21.013672 168.82422 C 21.365587 168.07915 21.661022 167.46398 21.669922 167.45898 C 21.678475 167.45389 22.017856 166.74686 22.423828 165.88672 C 24.501218 161.48501 24.935588 160.6995 25.433594 160.45703 z M 15.445312 179.07031 C 15.838491 178.97286 16.279141 179.03605 16.494141 179.32422 C 16.789161 179.71966 16.63141 180.61616 16.294922 180.45703 C 16.224562 180.42374 16.227217 180.29229 16.304688 180.11914 C 16.443002 179.80821 16.329549 179.55094 16.001953 179.43555 C 15.767359 179.35294 15.624363 179.41656 15.664062 179.58789 C 15.692041 179.70859 15.61575 179.73105 15.423828 179.65625 C 15.109647 179.53371 14.956467 179.74742 15.029297 180.20703 C 15.0769 180.50728 15.045353 180.64048 14.921875 180.67578 C 14.705316 180.73763 14.584478 180.46681 14.648438 180.06445 C 14.660028 179.99113 14.675541 179.86054 14.681641 179.77344 C 14.706168 179.42588 15.052134 179.16777 15.445312 179.07031 z M 15.789062 180.52539 C 15.868563 180.45767 15.968044 180.48764 16.048828 180.64844 C 16.099867 180.75004 16.061377 181.28348 15.992188 181.43359 C 15.972287 181.47661 15.935446 181.5941 15.910156 181.69531 C 15.753454 182.32366 14.906469 182.98239 14.707031 182.63086 C 14.668863 182.56362 14.723341 182.50409 14.886719 182.43359 C 15.083318 182.3488 15.110073 182.31331 15.330078 181.85547 C 15.426988 181.65387 15.539305 181.44197 15.578125 181.38477 C 15.639615 181.29422 15.649391 181.24184 15.650391 180.98828 C 15.651334 180.75785 15.709562 180.59311 15.789062 180.52539 z M 14.654297 181.29492 C 14.819766 181.408 14.902637 181.65759 14.798828 181.9707 C 14.675032 182.34393 13.961825 182.0175 13.953125 181.58398 C 13.951925 181.50341 13.952498 181.50255 14.017578 181.43555 C 14.24172 181.20467 14.488828 181.18185 14.654297 181.29492 z M 13.599609 182.15039 C 13.458447 181.80031 13.908343 181.94253 14.087891 182.30469 C 14.167358 182.46447 14.098876 182.61131 13.964844 182.56641 C 13.906214 182.54679 13.635079 182.23839 13.599609 182.15039 z M 13.582031 182.52734 C 13.746135 182.48049 14.012904 182.83793 13.880859 182.92773 C 13.772747 183.00126 13.596005 182.90022 13.515625 182.7207 C 13.465641 182.60902 13.482891 182.55564 13.582031 182.52734 z M 13.980469 183.17578 C 14.1922 183.27248 14.258883 183.37819 14.138672 183.42969 C 14.070709 183.45868 13.761339 183.3527 13.699219 183.2793 C 13.585176 183.14362 13.765311 183.07748 13.980469 183.17578 z M 14.037109 183.69727 C 14.098899 183.75184 14.193877 183.82638 14.248047 183.86328 C 14.394892 183.96313 14.467766 184.05773 14.441406 184.11523 C 14.408368 184.18723 14.388609 184.18578 14.271484 184.10938 C 14.065015 183.9745 13.884754 183.86616 13.839844 183.85156 C 13.814764 183.84316 13.788803 183.8112 13.783203 183.7793 C 13.746753 183.57538 13.857778 183.539 14.037109 183.69727 z M 14.220703 184.29688 C 14.625637 184.55006 14.553729 184.65238 14.080078 184.49414 L 13.847656 184.41602 L 13.835938 184.30469 C 13.813633 184.07625 13.865041 184.07452 14.220703 184.29688 z M 13.878906 184.69141 C 13.848244 184.58336 14.306323 184.74489 14.382812 184.86914 C 14.440322 184.96257 14.447894 185.07775 14.396484 185.06055 C 14.380004 185.05505 14.355587 185.07352 14.341797 185.10352 C 14.266799 185.2672 14.000807 185.13192 13.935547 184.89648 C 13.909167 184.80131 13.883706 184.70871 13.878906 184.69141 z "
         inkscape:radius="0.46419024"
         sodipodi:type="inkscape:offset"
         clip-path="none"
         transform="translate(-0.32740517,0.18708867)" />
      <path
         clip-path="none"
         style="fill:#ffffff;stroke-width:0.02853003"
         d="m 18.290335,158.19212 c 0.04032,-0.0253 0.07025,-0.0196 0.201843,0.0386 0.178883,0.079 0.250267,0.0703 0.324906,-0.0404 1.500313,-2.22463 4.418278,-2.16444 5.564701,0.11479 0.267476,0.53179 0.349214,0.54119 0.754434,0.0873 1.297934,-1.45487 4.14844,-0.9342 4.366473,0.79758 0.05793,0.46013 0.116804,0.52015 0.428778,0.43754 0.381074,-0.10098 0.414084,0.0121 0.124451,0.42654 -0.177506,0.25397 -0.445699,0.87593 -0.566386,1.3133 -0.220648,0.80007 -0.254833,0.76698 -0.929246,-0.89977 -0.05416,-0.13397 -0.182281,-0.4021 -0.284631,-0.59589 -0.232831,-0.44086 -0.213699,-0.55945 0.08182,-0.50687 0.254791,0.0453 0.337304,-0.0348 0.300083,-0.29115 -0.146428,-1.00904 -1.864691,-1.04481 -2.650314,-0.0552 -0.210926,0.26566 -0.14069,0.35712 0.299306,0.3896 0.485054,0.0359 0.691879,0.10623 0.924961,0.31506 0.427521,0.38268 0.65908,1.49352 0.420829,2.01888 -0.269058,0.59324 -0.219343,0.92768 0.136271,0.91719 0.257875,-0.008 0.260112,0.0302 0.01978,0.3295 -0.374707,0.46694 -0.612913,0.80684 -1.02042,1.45607 -0.503172,0.80161 -0.59665,0.79035 -0.594226,-0.0715 8.64e-4,-0.30335 -0.04735,-0.88665 -0.09452,-1.14354 -0.140227,-0.76372 -0.112372,-0.8697 0.165688,-0.6305 0.475883,0.40947 0.801103,-1.65284 0.329375,-2.08879 -0.295553,-0.27314 -0.597531,-0.0731 -1.011601,0.67128 -0.115151,0.20709 -0.269126,0.4771 -0.342049,0.60006 -0.07293,0.12297 -0.233317,0.44253 -0.356509,0.71009 -0.123147,0.26758 -0.303747,0.62433 -0.401211,0.79282 -0.138516,0.23937 -0.217795,0.41524 -0.362205,0.80471 -0.148254,0.39806 -0.235346,0.59035 -0.433708,0.95661 -0.136541,0.25211 -0.503208,0.99895 -0.814766,1.65964 -0.311313,0.66079 -0.703955,1.47108 -0.872019,1.80081 -0.168072,0.32974 -0.514181,1.03501 -0.769217,1.56725 -0.255035,0.53223 -0.562027,1.15298 -0.682122,1.37946 -0.12009,0.22649 -0.766483,1.56294 -1.436431,2.96988 -0.67003,1.40692 -1.227771,2.56389 -1.23968,2.57097 -0.07189,0.0432 -0.630297,1.46775 -0.710918,1.8136 -0.242228,1.03921 -0.481048,1.62534 -0.845,2.07383 -0.231592,0.28539 -0.247376,0.32101 -0.315668,0.71262 -0.122887,0.70498 -0.618498,1.3413 -1.217282,1.56272 -0.437865,0.16193 -0.636689,0.43637 -0.56228,0.77615 0.179998,0.82199 0.185912,1.16343 0.0251,1.44807 -0.163045,0.28856 -0.244336,0.32688 -0.398997,0.18797 -0.04056,-0.0369 -0.128637,-0.091 -0.194919,-0.12084 -0.204081,-0.0915 -0.334339,-0.38337 -0.319065,-0.71532 0.0026,-0.0553 -0.0066,-0.17898 -0.02032,-0.27485 -0.01369,-0.0958 -0.02284,-0.21684 -0.02026,-0.26886 0.0049,-0.0993 -0.118738,-0.34576 -0.302384,-0.60272 -0.411582,-0.57584 -0.112511,-1.7307 0.602728,-2.32747 0.203335,-0.16964 0.234211,-0.26495 0.202777,-0.62593 -0.04046,-0.46481 -0.0387,-0.54537 0.01787,-0.82241 0.13668,-0.66928 0.408522,-1.21245 0.780036,-1.55859 0.09484,-0.0884 0.297177,-0.2797 0.449564,-0.42516 0.152356,-0.14546 0.33937,-0.31649 0.415496,-0.38009 0.08135,-0.068 0.199795,-0.20708 0.287386,-0.33758 0.08194,-0.12209 0.204196,-0.29536 0.271679,-0.38505 0.121738,-0.16188 0.320003,-0.57167 2.506926,-5.18376 1.411895,-2.97756 1.679721,-3.53668 2.780895,-5.80662 1.259435,-2.59601 2.151138,-4.6294 2.284737,-5.21017 0.392125,-1.70403 -0.618044,-3.1718 -2.223611,-3.23091 -0.700796,-0.0258 -2.163321,1.11704 -1.563966,1.22211 0.260386,0.0456 0.262326,0.13149 0.01327,0.58382 -0.228757,0.4153 -0.48825,1.06946 -0.576069,1.45399 -0.242675,1.05781 -0.582929,0.84974 -0.7431,-0.45442 -0.0272,-0.22148 -0.07706,-0.52681 -0.110813,-0.67853 -0.06263,-0.2816 -0.174819,-1.13414 -0.154547,-1.17449 0.0062,-0.0123 0.03247,-0.0358 0.05861,-0.0521 z m -3.936577,21.76748 c -0.0061,0.0871 -0.02077,0.21846 -0.03236,0.29178 -0.06396,0.40236 0.05737,0.67306 0.273929,0.61121 0.123478,-0.0353 0.153605,-0.16835 0.106002,-0.4686 -0.07283,-0.45961 0.08041,-0.67373 0.394591,-0.55119 0.191922,0.0748 0.268233,0.0535 0.240255,-0.0672 -0.0397,-0.17133 0.103424,-0.23594 0.338018,-0.15333 0.327596,0.11539 0.442174,0.37338 0.30386,0.68431 -0.07747,0.17315 -0.08139,0.30479 -0.01103,0.33808 0.336488,0.15913 0.493995,-0.7388 0.198975,-1.13424 -0.429999,-0.57633 -1.763188,-0.24589 -1.812243,0.44922 z m -1.081032,2.37726 c 0.03547,0.088 0.305222,0.39664 0.363852,0.41626 0.134032,0.0449 0.204279,-0.10229 0.124812,-0.26207 -0.179548,-0.36216 -0.630114,-0.50436 -0.488952,-0.15428 z m 0.353331,-0.56548 c 0.0087,0.43352 0.72241,0.75875 0.846206,0.38552 0.207617,-0.62622 -0.333926,-0.99629 -0.782209,-0.53454 -0.06508,0.067 -0.06565,0.0683 -0.06445,0.14887 z m -0.438382,1.13651 c 0.08038,0.17952 0.258443,0.27979 0.366555,0.20626 0.132045,-0.0898 -0.134798,-0.4459 -0.298902,-0.39905 -0.09914,0.0283 -0.117514,0.0811 -0.06753,0.19278 z m 0.18366,0.55895 c 0.06212,0.0734 0.37191,0.17943 0.439873,0.15044 0.120211,-0.0515 0.05433,-0.1582 -0.157401,-0.2549 -0.215158,-0.0983 -0.396628,-0.031 -0.282585,0.10468 z m 0.08516,0.49873 c 0.0056,0.0319 0.03089,0.0649 0.05597,0.0733 0.04491,0.0146 0.225714,0.12293 0.432183,0.25781 0.117125,0.0764 0.135473,0.077 0.168511,0.005 0.02636,-0.0575 -0.04531,-0.15106 -0.192155,-0.25091 -0.05417,-0.0369 -0.149186,-0.11165 -0.210976,-0.16622 -0.179331,-0.15827 -0.289941,-0.12292 -0.253491,0.081 z m 2.79587,-5.77613 c -0.106613,0.29324 -0.09083,0.40708 0.06374,0.45891 0.224647,0.0753 0.304065,-0.0287 0.729117,-0.95512 0.198261,-0.43202 0.521425,-1.10486 0.718196,-1.49517 0.196857,-0.39029 0.737148,-1.5244 1.200773,-2.52019 0.463877,-0.99572 0.85634,-1.8233 0.872786,-1.83884 0.01653,-0.0156 0.282781,-0.54655 0.592,-1.17996 0.309053,-0.63346 0.705202,-1.44257 0.880182,-1.79807 0.174985,-0.35551 0.362658,-0.74056 0.417117,-0.85568 0.0538,-0.11535 0.480326,-1.01765 0.946555,-2.00556 1.089712,-2.3095 2.056607,-4.30314 2.177551,-4.49009 0.05225,-0.0807 0.187875,-0.28132 0.301412,-0.44568 0.269481,-0.39013 0.250696,-0.56344 -0.04519,-0.41928 -0.498006,0.24247 -0.933054,1.02699 -3.010444,5.4287 -0.405972,0.86014 -0.74511,1.56807 -0.753663,1.57316 -0.0089,0.005 -0.303494,0.61885 -0.655409,1.36392 -0.351918,0.74507 -0.659019,1.38268 -0.682525,1.41693 -0.08439,0.12332 -0.795092,1.61467 -1.704505,3.57658 -0.959868,2.07077 -1.526185,3.21995 -1.791876,3.63663 -0.08479,0.13303 -0.159617,0.263 -0.166199,0.28887 -0.0062,0.0259 -0.04683,0.14287 -0.0894,0.26 z m -2.744002,6.3012 0.01092,0.11217 0.232696,0.0778 c 0.473651,0.15824 0.547148,0.0567 0.142214,-0.19648 -0.355662,-0.22235 -0.408196,-0.22144 -0.385891,0.007 z m 0.870757,-1.6723 c 0.199438,0.35153 1.04749,-0.30772 1.204192,-0.93607 0.02529,-0.10121 0.06208,-0.21927 0.08198,-0.26229 0.06919,-0.15011 0.107619,-0.68273 0.05658,-0.78433 -0.161568,-0.3216 -0.397844,-0.12035 -0.399731,0.34051 -10e-4,0.25356 -0.0103,0.30448 -0.07179,0.39503 -0.03882,0.0572 -0.149885,0.2689 -0.246795,0.4705 -0.220005,0.45784 -0.247473,0.49353 -0.444072,0.57832 -0.163378,0.0705 -0.218518,0.13109 -0.18035,0.19833 z m -0.771658,2.26472 c 0.06526,0.23544 0.332702,0.37213 0.4077,0.20845 0.01379,-0.03 0.03841,-0.05 0.05489,-0.0445 0.05141,0.0172 0.04243,-0.0967 -0.01508,-0.19013 -0.07649,-0.12425 -0.535079,-0.28633 -0.504417,-0.17828 0.0048,0.0173 0.03051,0.10931 0.05689,0.20448 z"
         id="path3346"
         inkscape:connector-curvature="0" />
      <rect
         style="color:#000000;clip-rule:nonzero;display:inline;overflow:visible;visibility:visible;opacity:1;isolation:auto;mix-blend-mode:normal;color-interpolation:sRGB;color-interpolation-filters:linearRGB;solid-color:#000000;solid-opacity:1;fill:#008000;fill-opacity:1;fill-rule:evenodd;stroke:none;stroke-width:0.52701503;stroke-linecap:butt;stroke-linejoin:miter;stroke-miterlimit:4;stroke-dasharray:none;stroke-dashoffset:0;stroke-opacity:1;color-rendering:auto;image-rendering:auto;shape-rendering:auto;text-rendering:auto;enable-background:accumulate"
         id="rect5112"
         width="2.3697226"
         height="3.5728612"
         x="28.057362"
         y="158.95265" />
    </g>
  </g>
</svg>
