<?xml version="1.0" encoding="UTF-8" standalone="no"?>
<!-- Created with Inkscape (http://www.inkscape.org/) -->

<svg
   xmlns:dc="http://purl.org/dc/elements/1.1/"
   xmlns:cc="http://creativecommons.org/ns#"
   xmlns:rdf="http://www.w3.org/1999/02/22-rdf-syntax-ns#"
   xmlns:svg="http://www.w3.org/2000/svg"
   xmlns="http://www.w3.org/2000/svg"
   xmlns:sodipodi="http://sodipodi.sourceforge.net/DTD/sodipodi-0.dtd"
   xmlns:inkscape="http://www.inkscape.org/namespaces/inkscape"
   width="180"
   height="36"
   viewBox="0 0 47.624999 9.5250003"
   version="1.1"
   id="svg8"
   inkscape:version="0.92.1 r15371"
   sodipodi:docname="useful-tool.svg">
  <defs
     id="defs2">
    <clipPath
       clipPathUnits="userSpaceOnUse"
       id="clipPath5108">
      <rect
         style="color:#000000;clip-rule:nonzero;display:inline;overflow:visible;visibility:visible;opacity:1;isolation:auto;mix-blend-mode:normal;color-interpolation:sRGB;color-interpolation-filters:linearRGB;solid-color:#000000;solid-opacity:1;fill:#ffffff;fill-opacity:1;fill-rule:evenodd;stroke:none;stroke-width:0.52916664;stroke-linecap:butt;stroke-linejoin:miter;stroke-miterlimit:4;stroke-dasharray:none;stroke-dashoffset:0;stroke-opacity:1;color-rendering:auto;image-rendering:auto;shape-rendering:auto;text-rendering:auto;enable-background:accumulate"
         id="rect5110"
         width="13.229167"
         height="8.9958334"
         x="17.4625"
         y="156.04062" />
    </clipPath>
  </defs>
  <sodipodi:namedview
     id="base"
     pagecolor="#ffffff"
     bordercolor="#666666"
     borderopacity="1.0"
     inkscape:pageopacity="0.0"
     inkscape:pageshadow="2"
     inkscape:zoom="3.959798"
     inkscape:cx="77.18489"
     inkscape:cy="43.589902"
     inkscape:document-units="px"
     inkscape:current-layer="g5101"
     showgrid="false"
     units="px"
     inkscape:window-width="1680"
     inkscape:window-height="987"
     inkscape:window-x="-8"
     inkscape:window-y="-8"
     inkscape:window-maximized="1"
     inkscape:snap-page="false" />
  <metadata
     id="metadata5">
    <rdf:RDF>
      <cc:Work
         rdf:about="">
        <dc:format>image/svg+xml</dc:format>
        <dc:type
           rdf:resource="http://purl.org/dc/dcmitype/StillImage" />
        <dc:title />
      </cc:Work>
    </rdf:RDF>
  </metadata>
  <g
     inkscape:label="Layer 1"
     inkscape:groupmode="layer"
     id="layer1"
     transform="translate(0,-287.47498)">
    <rect
       ry="1.3229166"
       rx="1.3229166"
       y="290.38541"
       x="0"
       height="6.614583"
       width="47.625"
       id="rect4706"
       style="color:#000000;clip-rule:nonzero;display:inline;overflow:visible;visibility:visible;opacity:1;isolation:auto;mix-blend-mode:normal;color-interpolation:sRGB;color-interpolation-filters:linearRGB;solid-color:#000000;solid-opacity:1;fill:#5ea000;fill-opacity:1;fill-rule:evenodd;stroke:none;stroke-width:0.99999994;stroke-linecap:butt;stroke-linejoin:miter;stroke-miterlimit:4;stroke-dasharray:none;stroke-dashoffset:0;stroke-opacity:1;color-rendering:auto;image-rendering:auto;shape-rendering:auto;text-rendering:auto;enable-background:accumulate" />
    <text
       id="text4710"
       y="295.00287"
       x="31.147057"
       style="font-style:normal;font-variant:normal;font-weight:bold;font-stretch:normal;font-size:3.66805744px;line-height:2;font-family:'Open Sans';-inkscape-font-specification:'Open Sans Bold';font-variant-ligatures:normal;font-variant-caps:normal;font-variant-numeric:normal;font-feature-settings:normal;text-align:center;letter-spacing:0px;word-spacing:0px;writing-mode:lr-tb;text-anchor:middle;fill:#ffffff;fill-opacity:1;stroke:none;stroke-width:0.26458332px;stroke-linecap:butt;stroke-linejoin:miter;stroke-opacity:1"
       xml:space="preserve"><tspan
         style="font-style:normal;font-variant:normal;font-weight:bold;font-stretch:normal;font-family:'Open Sans';-inkscape-font-specification:'Open Sans Bold';fill:#ffffff;stroke-width:0.26458332px"
         y="295.00287"
         x="31.147057"
         id="tspan4708"
         sodipodi:role="line">USEFUL TOOL</tspan></text>
    <g
       id="g5101"
       clip-path="url(#clipPath5108)"
       transform="translate(-14.574247,131.43438)">
      <path
         d="m 22.068359,155.85547 c -1.169811,-0.0241 -2.350704,0.56598 -3.185547,1.66797 -0.03489,-0.0121 -0.05647,-0.0278 -0.109374,-0.0371 -0.123629,-0.0218 -0.347951,0.0327 -0.429688,0.084 v -0.002 c -0.04421,0.0276 -0.0756,0.0534 -0.109375,0.084 -0.03377,0.0306 -0.06107,0.0276 -0.134766,0.17383 a 0.51511151,0.51511151 0 0 0 -0.002,0.002 c -3.16e-4,6.4e-4 -0.03277,0.0839 -0.03906,0.10938 -0.0063,0.0255 -0.0097,0.0437 -0.01172,0.0586 -0.004,0.0298 -0.0054,0.0468 -0.0059,0.0625 -9.71e-4,0.0313 9.38e-4,0.0525 0.002,0.0742 0.002,0.0434 0.0049,0.0868 0.0098,0.13672 0.0098,0.0999 0.02553,0.22272 0.04297,0.35352 0.03488,0.26159 0.07634,0.53704 0.117188,0.7207 0.0247,0.11103 0.07446,0.42413 0.09961,0.62891 0.04254,0.34635 0.09699,0.62813 0.169922,0.86132 0.07294,0.23319 0.109296,0.44253 0.414062,0.62891 0.152383,0.0932 0.422415,0.11279 0.59375,0.0312 0.171336,-0.0815 0.253919,-0.19275 0.31836,-0.29492 0.128881,-0.20435 0.194341,-0.42506 0.261718,-0.71875 0.06696,-0.29319 0.327316,-0.96072 0.525391,-1.32031 0.131513,-0.23885 0.256402,-0.3555 0.248047,-0.70508 -0.0025,-0.10659 -0.09943,-0.20457 -0.171875,-0.3125 0.03437,-0.0328 0.02798,-0.0353 0.07031,-0.0684 0.3148,-0.24603 0.875912,-0.45525 0.933593,-0.45313 0.650163,0.0239 1.139089,0.31608 1.455078,0.77539 0.31599,0.45932 0.452318,1.0978 0.285157,1.82422 -0.0401,0.17432 -0.296158,0.86099 -0.689454,1.75782 -0.393295,0.89682 -0.929136,2.0503 -1.55664,3.34375 -1.101442,2.27049 -1.369311,2.83289 -2.78125,5.81054 -2.186795,4.61182 -2.422017,5.05174 -2.455078,5.09571 -0.07939,0.10558 -0.199013,0.27498 -0.28711,0.40625 -0.06272,0.0934 -0.185549,0.2272 -0.189453,0.23046 -0.106938,0.0893 -0.282863,0.25098 -0.441406,0.40235 -0.149965,0.14315 -0.352873,0.33376 -0.445313,0.41992 -0.476048,0.44353 -0.780936,1.08452 -0.933593,1.83203 -0.06013,0.29447 -0.06834,0.49971 -0.02734,0.9707 0.01417,0.16278 -1.2e-4,0.21463 0.0098,0.1836 0.0099,-0.031 0.04683,-0.058 -0.02734,0.004 -0.455783,0.38029 -0.753606,0.90024 -0.892578,1.43555 -0.138972,0.53531 -0.135593,1.11556 0.199219,1.58399 0.07827,0.10951 0.144126,0.21817 0.18164,0.29296 0.03751,0.0748 0.01822,0.17129 0.02734,-0.0137 -0.0073,0.1471 0.0053,0.24019 0.02344,0.36719 0.01017,0.0711 0.01549,0.22215 0.01758,0.17773 -0.02204,0.479 0.117456,0.98233 0.621093,1.20899 0.0092,0.004 0.109539,0.0778 0.06055,0.0332 a 0.51511151,0.51511151 0 0 0 0.002,0.002 c 0.06433,0.0578 0.139836,0.12383 0.275391,0.17188 0.135554,0.048 0.345006,0.0422 0.486328,-0.0254 0.282645,-0.13523 0.335243,-0.29769 0.429688,-0.46484 0.125084,-0.22141 0.186714,-0.49807 0.18164,-0.78516 -0.0051,-0.28709 -0.05943,-0.60108 -0.152344,-1.02539 -0.01045,-0.0477 -0.01282,-0.0245 0.002,-0.0449 0.01478,-0.0204 0.0808,-0.0838 0.234374,-0.14063 0.81313,-0.30068 1.392798,-1.07311 1.546876,-1.95703 0.06674,-0.38272 -0.01757,-0.19543 0.208984,-0.47461 0.432728,-0.53324 0.697723,-1.21066 0.947266,-2.28125 0.01635,-0.0701 0.181417,-0.55557 0.335937,-0.95117 0.07726,-0.1978 0.153895,-0.38675 0.212891,-0.52149 0.0295,-0.0674 0.05607,-0.12236 0.07031,-0.15039 0.0014,-0.003 7.59e-4,2.9e-4 0.002,-0.002 0.0063,-0.008 0.01089,-0.0154 0.01367,-0.0195 0.01139,-0.0169 0.01564,-0.0246 0.01953,-0.0312 0.0078,-0.0133 0.01147,-0.0196 0.01563,-0.0273 0.0083,-0.0156 0.01565,-0.0315 0.02539,-0.0508 0.01948,-0.0385 0.04542,-0.0916 0.07813,-0.15821 0.06542,-0.13328 0.158793,-0.32314 0.271484,-0.55664 0.225384,-0.467 0.531847,-1.10835 0.867188,-1.8125 0.669034,-1.40502 1.341766,-2.78707 1.427734,-2.94922 0.132501,-0.24986 0.434258,-0.86179 0.691407,-1.39843 0.253023,-0.52804 0.600341,-1.23426 0.763671,-1.55469 0.17605,-0.3454 0.565784,-1.15178 0.878907,-1.81641 0.309032,-0.65533 0.683513,-1.4163 0.800781,-1.63281 0.204364,-0.37735 0.310616,-0.61458 0.462891,-1.02344 0.140326,-0.37845 0.199173,-0.50709 0.326171,-0.72656 0.117857,-0.20374 0.293808,-0.55342 0.423829,-0.83594 0.117092,-0.25431 0.289372,-0.59018 0.332031,-0.66211 0.0794,-0.13387 0.230144,-0.40194 0.347656,-0.61328 0.125253,-0.22517 0.180159,-0.2696 0.251953,-0.35352 0.0098,0.0354 0.0084,0.0144 0.01367,0.0605 0.02152,0.18842 0.0127,0.43808 -0.02148,0.6543 -0.0161,0.10184 -0.0365,0.13006 -0.06055,0.20703 -0.108882,-0.026 -0.280857,-0.04 -0.435547,0.0566 -0.166464,0.10402 -0.228907,0.25666 -0.253906,0.35156 -0.05,0.1898 -0.02702,0.2892 -0.01172,0.42578 0.01531,0.13659 0.04213,0.29421 0.07813,0.49024 0.03374,0.18372 0.08664,0.80131 0.08594,1.04687 -6.32e-4,0.22473 0.0028,0.39818 0.02734,0.56446 0.0123,0.0831 0.0242,0.16617 0.08008,0.27929 0.05588,0.11313 0.22076,0.30157 0.453125,0.33008 0.232366,0.0285 0.372193,-0.0723 0.455078,-0.13672 0.08289,-0.0644 0.135832,-0.12516 0.189454,-0.1914 0.107243,-0.13248 0.209944,-0.29111 0.339843,-0.49805 0.4024,-0.64109 0.623166,-0.95322 0.988281,-1.4082 0.06374,-0.0794 0.114397,-0.14398 0.164063,-0.22071 0.04967,-0.0767 0.141545,-0.15052 0.123047,-0.41601 -0.0092,-0.13275 -0.09669,-0.30523 -0.201172,-0.39063 -0.09899,-0.0809 -0.179886,-0.10153 -0.242188,-0.11523 0.01584,-0.0717 0.0052,-0.0779 0.06641,-0.21289 0.131863,-0.29077 0.145484,-0.59382 0.125,-0.89844 0.08332,0.20244 0.17758,0.43699 0.242187,0.58008 0.108523,0.24034 0.152702,0.38811 0.347656,0.57617 0.09748,0.094 0.350727,0.2309 0.595704,0.15234 0.244977,-0.0786 0.317663,-0.22999 0.367187,-0.32226 0.09905,-0.18454 0.129235,-0.33488 0.185547,-0.53906 0.1019,-0.36929 0.401023,-1.02387 0.492188,-1.1543 0.08119,-0.11617 0.147512,-0.21667 0.201171,-0.33008 0.05366,-0.1134 0.138825,-0.2481 0.0625,-0.51367 -0.03816,-0.13278 -0.152143,-0.27468 -0.267578,-0.3418 -0.115434,-0.0671 -0.214802,-0.0798 -0.292969,-0.084 -0.07137,-0.004 -0.117738,0.0153 -0.173828,0.0234 -0.153902,-1.12164 -1.141344,-1.82247 -2.189453,-2.01368 -1.036042,-0.189 -2.219255,0.0749 -3.013672,0.92578 -0.658585,-1.25351 -1.840765,-1.94744 -3.0625,-1.97265 z m 5.820313,2.76953 c 0.189828,0.004 0.341613,0.056 0.433594,0.11523 -0.162796,0.0823 -0.356813,0.25085 -0.384766,0.42383 -0.0034,0.0211 0.0076,0.0256 0.0059,0.0449 -0.01723,-0.0169 -0.02278,-0.0403 -0.04102,-0.0566 -0.193146,-0.17305 -0.505149,-0.21083 -0.785156,-0.2832 0.24928,-0.14791 0.521312,-0.24929 0.771484,-0.24414 z M 14.4375,181.69922 c -0.0088,0.0318 -0.03617,0.0716 -0.05078,0.0957 0.05786,-0.0596 0.0039,-0.0424 -0.01367,-0.041 0.02099,-0.0236 0.0382,-0.0347 0.06445,-0.0547 z m -0.392578,0.38281 c 0.0097,0.0593 0.05043,0.0915 -0.05859,0.22266 -0.08514,0.10243 -0.212127,0.15026 -0.287109,0.1582 -0.03916,0.004 -0.04717,-0.003 -0.06836,-0.006 -0.0115,-0.0395 -0.0357,-0.0671 0.0098,-0.16406 0.03328,-0.071 0.110155,-0.15782 0.214844,-0.20117 0.07254,-0.03 0.130534,-0.0166 0.189453,-0.01 z m -0.103516,0.38867 c 0.121996,-0.0453 0.05771,0.83745 0.03906,0.28711 -0.06064,0.17885 -0.232772,0.25848 -0.257813,0.26563 -0.16064,0.0459 -0.249327,-0.0113 -0.27539,-0.0273 -0.02606,-0.016 -0.01828,-0.0127 -0.01758,-0.0117 7e-4,9.3e-4 -0.008,0.003 -0.02149,-0.0645 -0.01344,-0.0677 0.01853,-0.30571 0.183594,-0.41797 0.0049,-0.003 0.0068,0.001 0.01172,-0.002 0.01983,0.0164 0.0131,0.0123 0.02344,0.0332 -0.0021,-0.004 0.0047,-0.0291 0.002,-0.0351 0.131231,-0.0627 0.273036,-0.0498 0.3125,-0.0274 z m 0.134766,0.46094 c 0.0052,0.005 0.01693,0.0156 0.01758,0.0156 0.02772,0.033 0.111553,0.14554 0.07813,0.33398 -0.01161,0.0654 -0.06159,0.0706 -0.0957,0.11914 -0.02669,-0.012 -0.02209,-0.0206 -0.07227,-0.0371 0.04554,0.0153 0.02174,0.0455 0.05274,0.0606 -0.06128,0.0754 -0.115202,0.18197 -0.16211,0.19922 -0.160778,0.0591 -0.147354,0.013 -0.128906,0.0215 0.05994,0.0274 0.06483,0.081 -0.01758,-0.0508 -0.0412,-0.0659 -0.0957,-0.24158 -0.0332,-0.40039 0.0625,-0.15881 0.176284,-0.2173 0.220703,-0.23633 l 0.002,-0.002 c 0.148206,-0.0632 0.127862,-0.0343 0.138672,-0.0234 z m 0.21289,0.76953 c 0.0015,0.003 0.01066,0.017 -0.0098,0.0918 -0.02305,0.0844 -0.138837,0.24945 -0.291016,0.29883 -0.0011,3.4e-4 -9.02e-4,-3.4e-4 -0.002,0 -0.0136,-0.0702 -0.06237,-0.0852 -0.01367,-0.19141 1.3e-4,-2.8e-4 0.0041,-0.0297 0.07031,-0.0996 0.0446,-0.0471 0.151926,-0.0715 0.246093,-0.0996 z m 0.04102,0.38086 0.01758,0.16797 v 0.004 c -0.0037,-0.038 0.01317,-0.0522 -0.01172,0.0469 -0.01244,0.0495 -0.04507,0.14224 -0.136719,0.22461 -0.053,0.0476 -0.112279,0.0513 -0.173828,0.0703 -0.01781,-0.10462 -0.05317,-0.21925 0.03516,-0.34375 0.106349,-0.1499 0.206809,-0.15988 0.269531,-0.16992 z m 0.228516,0.49024 c -0.0822,-0.0274 -0.10446,0.0236 -0.169922,0.0293 -0.0017,-0.006 -0.0066,-0.0209 -0.0078,-0.0254 0.06303,-7.6e-4 0.136945,-0.0174 0.177735,-0.004 z m -0.185547,0.004 c 0.0017,0.007 -0.0015,0.0213 0,0.0293 -0.08076,0.0101 -0.162199,0.006 -0.214844,0.0371 0.03102,-0.0211 0.04069,-0.0507 0.07813,-0.0645 0.05273,-0.0193 0.08779,-5.8e-4 0.136719,-0.002 z m -0.208985,0.0899 c 0.112525,-0.0205 0.174067,0.01 0.205079,0.0254 0.0012,0.053 0.01664,0.0934 -0.0059,0.15625 -0.04276,0.1195 -0.139331,0.21572 -0.214843,0.25976 -0.120247,0.0701 -0.154834,0.0548 -0.189454,0.0508 -0.01087,-0.014 0.0026,0.0102 -0.01563,-0.0195 -0.01548,-0.0251 -0.0222,-0.0234 -0.02734,-0.0976 -0.0024,-0.0345 -0.0084,-0.10239 0.05664,-0.22852 0.01299,-0.0129 0.02618,-0.0193 0.04102,-0.0312 0.01901,0.0144 0.06177,0.0442 0.05859,0.041 -0.0021,-0.002 -0.02265,-0.0357 -0.03711,-0.0566 0.04905,-0.0355 0.07888,-0.0905 0.128906,-0.0996 z"
         id="path5094"
         style="fill:#5ea000;fill-opacity:1;stroke-width:0.02853003"
         inkscape:original="M 22.058594 156.37109 C 20.998261 156.34922 19.894688 156.89159 19.144531 158.00391 C 19.069892 158.11461 18.999195 158.12197 18.820312 158.04297 C 18.688719 157.98477 18.657508 157.98056 18.617188 158.00586 C 18.591048 158.02216 18.564794 158.04629 18.558594 158.05859 C 18.538322 158.09894 18.652214 158.95082 18.714844 159.23242 C 18.748597 159.38414 18.797019 159.68868 18.824219 159.91016 C 18.98439 161.21432 19.325684 161.42304 19.568359 160.36523 C 19.656178 159.9807 19.915774 159.32741 20.144531 158.91211 C 20.393587 158.45978 20.391245 158.37373 20.130859 158.32812 C 19.531504 158.22306 20.994516 157.07967 21.695312 157.10547 C 23.30088 157.16458 24.310094 158.63191 23.917969 160.33594 C 23.78437 160.91671 22.892247 162.95086 21.632812 165.54688 C 20.531638 167.81682 20.265411 168.37596 18.853516 171.35352 C 16.666593 175.96561 16.467441 176.37523 16.345703 176.53711 C 16.27822 176.6268 16.156159 176.79979 16.074219 176.92188 C 15.986628 177.05237 15.868459 177.19177 15.787109 177.25977 C 15.710983 177.32337 15.52345 177.49516 15.371094 177.64062 C 15.218707 177.78608 15.016715 177.97605 14.921875 178.06445 C 14.550361 178.41059 14.277305 178.95377 14.140625 179.62305 C 14.084055 179.90009 14.082587 179.9805 14.123047 180.44531 C 14.154481 180.80629 14.12521 180.90263 13.921875 181.07227 C 13.206636 181.66904 12.906777 182.8226 13.318359 183.39844 C 13.502005 183.6554 13.625994 183.90265 13.621094 184.00195 C 13.618514 184.05397 13.626935 184.17568 13.640625 184.27148 C 13.654345 184.36735 13.664709 184.48962 13.662109 184.54492 C 13.646835 184.87687 13.776388 185.17022 13.980469 185.26172 C 14.046751 185.29156 14.135221 185.34591 14.175781 185.38281 C 14.330442 185.52172 14.411174 185.48192 14.574219 185.19336 C 14.735031 184.90872 14.728826 184.56808 14.548828 183.74609 C 14.474419 183.40631 14.673463 183.13068 15.111328 182.96875 C 15.710112 182.74733 16.205238 182.11123 16.328125 181.40625 C 16.396417 181.01464 16.412939 180.9807 16.644531 180.69531 C 17.008483 180.24682 17.248006 179.6603 17.490234 178.62109 C 17.570855 178.27524 18.127329 176.84984 18.199219 176.80664 C 18.211128 176.79956 18.769423 175.64325 19.439453 174.23633 C 20.109401 172.82939 20.756863 171.49212 20.876953 171.26562 C 20.997048 171.03915 21.303559 170.41895 21.558594 169.88672 C 21.81363 169.35448 22.160053 168.65005 22.328125 168.32031 C 22.496189 167.99058 22.887906 167.18032 23.199219 166.51953 C 23.510777 165.85884 23.877131 165.11148 24.013672 164.85938 C 24.212034 164.49311 24.299012 164.3004 24.447266 163.90234 C 24.591676 163.51287 24.672031 163.33703 24.810547 163.09766 C 24.908011 162.92917 25.087791 162.57227 25.210938 162.30469 C 25.33413 162.03713 25.495429 161.71672 25.568359 161.59375 C 25.641282 161.47079 25.795005 161.20123 25.910156 160.99414 C 26.324226 160.24976 26.626322 160.05108 26.921875 160.32422 C 27.393603 160.76017 27.06768 162.82158 26.591797 162.41211 C 26.313737 162.17291 26.285554 162.27925 26.425781 163.04297 C 26.472951 163.29986 26.522348 163.8822 26.521484 164.18555 C 26.51906 165.0474 26.612062 165.05942 27.115234 164.25781 C 27.522741 163.60858 27.762012 163.26772 28.136719 162.80078 C 28.377051 162.50148 28.373109 162.46466 28.115234 162.47266 C 27.75962 162.48315 27.711411 162.14793 27.980469 161.55469 C 28.21872 161.02933 27.986115 159.91784 27.558594 159.53516 C 27.325512 159.32633 27.11982 159.2566 26.634766 159.2207 C 26.19477 159.18822 26.123058 159.09769 26.333984 158.83203 C 27.119607 157.84242 28.837947 157.87768 28.984375 158.88672 C 29.021596 159.14307 28.940338 159.22303 28.685547 159.17773 C 28.390028 159.12515 28.370685 159.24469 28.603516 159.68555 C 28.705866 159.87934 28.832559 160.14728 28.886719 160.28125 C 29.561132 161.948 29.595758 161.97976 29.816406 161.17969 C 29.937093 160.74232 30.205306 160.12116 30.382812 159.86719 C 30.672445 159.45275 30.64084 159.34043 30.259766 159.44141 C 29.947792 159.52402 29.888008 159.46208 29.830078 159.00195 C 29.612045 157.27017 26.760825 156.75021 25.462891 158.20508 C 25.057671 158.65897 24.97646 158.64898 24.708984 158.11719 C 24.135773 156.97757 23.118927 156.39297 22.058594 156.37109 z M 25.433594 160.45703 C 25.72948 160.31287 25.747997 160.48682 25.478516 160.87695 C 25.364979 161.04131 25.229984 161.24157 25.177734 161.32227 C 25.05679 161.50922 24.089712 163.503 23 165.8125 C 22.533771 166.80041 22.106534 167.70301 22.052734 167.81836 C 21.998275 167.93348 21.811704 168.31832 21.636719 168.67383 C 21.461739 169.02933 21.064912 169.8392 20.755859 170.47266 C 20.44664 171.10607 20.180592 171.63674 20.164062 171.65234 C 20.147617 171.66788 19.754893 172.49451 19.291016 173.49023 C 18.827391 174.48602 18.288654 175.62143 18.091797 176.01172 C 17.895026 176.40203 17.571308 177.07384 17.373047 177.50586 C 16.947995 178.43228 16.867225 178.53624 16.642578 178.46094 C 16.488008 178.40911 16.473465 178.29519 16.580078 178.00195 C 16.622648 177.88482 16.663722 177.76809 16.669922 177.74219 C 16.676504 177.71632 16.751147 177.58615 16.835938 177.45312 C 17.101628 177.03644 17.667085 175.88718 18.626953 173.81641 C 19.536366 171.8545 20.247641 170.36355 20.332031 170.24023 C 20.355537 170.20598 20.661754 169.56929 21.013672 168.82422 C 21.365587 168.07915 21.661022 167.46398 21.669922 167.45898 C 21.678475 167.45389 22.017856 166.74686 22.423828 165.88672 C 24.501218 161.48501 24.935588 160.6995 25.433594 160.45703 z M 15.445312 179.07031 C 15.838491 178.97286 16.279141 179.03605 16.494141 179.32422 C 16.789161 179.71966 16.63141 180.61616 16.294922 180.45703 C 16.224562 180.42374 16.227217 180.29229 16.304688 180.11914 C 16.443002 179.80821 16.329549 179.55094 16.001953 179.43555 C 15.767359 179.35294 15.624363 179.41656 15.664062 179.58789 C 15.692041 179.70859 15.61575 179.73105 15.423828 179.65625 C 15.109647 179.53371 14.956467 179.74742 15.029297 180.20703 C 15.0769 180.50728 15.045353 180.64048 14.921875 180.67578 C 14.705316 180.73763 14.584478 180.46681 14.648438 180.06445 C 14.660028 179.99113 14.675541 179.86054 14.681641 179.77344 C 14.706168 179.42588 15.052134 179.16777 15.445312 179.07031 z M 15.789062 180.52539 C 15.868563 180.45767 15.968044 180.48764 16.048828 180.64844 C 16.099867 180.75004 16.061377 181.28348 15.992188 181.43359 C 15.972287 181.47661 15.935446 181.5941 15.910156 181.69531 C 15.753454 182.32366 14.906469 182.98239 14.707031 182.63086 C 14.668863 182.56362 14.723341 182.50409 14.886719 182.43359 C 15.083318 182.3488 15.110073 182.31331 15.330078 181.85547 C 15.426988 181.65387 15.539305 181.44197 15.578125 181.38477 C 15.639615 181.29422 15.649391 181.24184 15.650391 180.98828 C 15.651334 180.75785 15.709562 180.59311 15.789062 180.52539 z M 14.654297 181.29492 C 14.819766 181.408 14.902637 181.65759 14.798828 181.9707 C 14.675032 182.34393 13.961825 182.0175 13.953125 181.58398 C 13.951925 181.50341 13.952498 181.50255 14.017578 181.43555 C 14.24172 181.20467 14.488828 181.18185 14.654297 181.29492 z M 13.599609 182.15039 C 13.458447 181.80031 13.908343 181.94253 14.087891 182.30469 C 14.167358 182.46447 14.098876 182.61131 13.964844 182.56641 C 13.906214 182.54679 13.635079 182.23839 13.599609 182.15039 z M 13.582031 182.52734 C 13.746135 182.48049 14.012904 182.83793 13.880859 182.92773 C 13.772747 183.00126 13.596005 182.90022 13.515625 182.7207 C 13.465641 182.60902 13.482891 182.55564 13.582031 182.52734 z M 13.980469 183.17578 C 14.1922 183.27248 14.258883 183.37819 14.138672 183.42969 C 14.070709 183.45868 13.761339 183.3527 13.699219 183.2793 C 13.585176 183.14362 13.765311 183.07748 13.980469 183.17578 z M 14.037109 183.69727 C 14.098899 183.75184 14.193877 183.82638 14.248047 183.86328 C 14.394892 183.96313 14.467766 184.05773 14.441406 184.11523 C 14.408368 184.18723 14.388609 184.18578 14.271484 184.10938 C 14.065015 183.9745 13.884754 183.86616 13.839844 183.85156 C 13.814764 183.84316 13.788803 183.8112 13.783203 183.7793 C 13.746753 183.57538 13.857778 183.539 14.037109 183.69727 z M 14.220703 184.29688 C 14.625637 184.55006 14.553729 184.65238 14.080078 184.49414 L 13.847656 184.41602 L 13.835938 184.30469 C 13.813633 184.07625 13.865041 184.07452 14.220703 184.29688 z M 13.878906 184.69141 C 13.848244 184.58336 14.306323 184.74489 14.382812 184.86914 C 14.440322 184.96257 14.447894 185.07775 14.396484 185.06055 C 14.380004 185.05505 14.355587 185.07352 14.341797 185.10352 C 14.266799 185.2672 14.000807 185.13192 13.935547 184.89648 C 13.909167 184.80131 13.883706 184.70871 13.878906 184.69141 z "
         inkscape:radius="0.51506001"
         sodipodi:type="inkscape:offset"
         clip-path="none"
         transform="translate(-0.32740517,0.18708867)" />
      <path
         clip-path="none"
         style="fill:#ffffff;stroke-width:0.02853003"
         d="m 18.290335,158.19212 c 0.04032,-0.0253 0.07025,-0.0196 0.201843,0.0386 0.178883,0.079 0.250267,0.0703 0.324906,-0.0404 1.500313,-2.22463 4.418278,-2.16444 5.564701,0.11479 0.267476,0.53179 0.349214,0.54119 0.754434,0.0873 1.297934,-1.45487 4.14844,-0.9342 4.366473,0.79758 0.05793,0.46013 0.116804,0.52015 0.428778,0.43754 0.381074,-0.10098 0.414084,0.0121 0.124451,0.42654 -0.177506,0.25397 -0.445699,0.87593 -0.566386,1.3133 -0.220648,0.80007 -0.254833,0.76698 -0.929246,-0.89977 -0.05416,-0.13397 -0.182281,-0.4021 -0.284631,-0.59589 -0.232831,-0.44086 -0.213699,-0.55945 0.08182,-0.50687 0.254791,0.0453 0.337304,-0.0348 0.300083,-0.29115 -0.146428,-1.00904 -1.864691,-1.04481 -2.650314,-0.0552 -0.210926,0.26566 -0.14069,0.35712 0.299306,0.3896 0.485054,0.0359 0.691879,0.10623 0.924961,0.31506 0.427521,0.38268 0.65908,1.49352 0.420829,2.01888 -0.269058,0.59324 -0.219343,0.92768 0.136271,0.91719 0.257875,-0.008 0.260112,0.0302 0.01978,0.3295 -0.374707,0.46694 -0.612913,0.80684 -1.02042,1.45607 -0.503172,0.80161 -0.59665,0.79035 -0.594226,-0.0715 8.64e-4,-0.30335 -0.04735,-0.88665 -0.09452,-1.14354 -0.140227,-0.76372 -0.112372,-0.8697 0.165688,-0.6305 0.475883,0.40947 0.801103,-1.65284 0.329375,-2.08879 -0.295553,-0.27314 -0.597531,-0.0731 -1.011601,0.67128 -0.115151,0.20709 -0.269126,0.4771 -0.342049,0.60006 -0.07293,0.12297 -0.233317,0.44253 -0.356509,0.71009 -0.123147,0.26758 -0.303747,0.62433 -0.401211,0.79282 -0.138516,0.23937 -0.217795,0.41524 -0.362205,0.80471 -0.148254,0.39806 -0.235346,0.59035 -0.433708,0.95661 -0.136541,0.25211 -0.503208,0.99895 -0.814766,1.65964 -0.311313,0.66079 -0.703955,1.47108 -0.872019,1.80081 -0.168072,0.32974 -0.514181,1.03501 -0.769217,1.56725 -0.255035,0.53223 -0.562027,1.15298 -0.682122,1.37946 -0.12009,0.22649 -0.766483,1.56294 -1.436431,2.96988 -0.67003,1.40692 -1.227771,2.56389 -1.23968,2.57097 -0.07189,0.0432 -0.630297,1.46775 -0.710918,1.8136 -0.242228,1.03921 -0.481048,1.62534 -0.845,2.07383 -0.231592,0.28539 -0.247376,0.32101 -0.315668,0.71262 -0.122887,0.70498 -0.618498,1.3413 -1.217282,1.56272 -0.437865,0.16193 -0.636689,0.43637 -0.56228,0.77615 0.179998,0.82199 0.185912,1.16343 0.0251,1.44807 -0.163045,0.28856 -0.244336,0.32688 -0.398997,0.18797 -0.04056,-0.0369 -0.128637,-0.091 -0.194919,-0.12084 -0.204081,-0.0915 -0.334339,-0.38337 -0.319065,-0.71532 0.0026,-0.0553 -0.0066,-0.17898 -0.02032,-0.27485 -0.01369,-0.0958 -0.02284,-0.21684 -0.02026,-0.26886 0.0049,-0.0993 -0.118738,-0.34576 -0.302384,-0.60272 -0.411582,-0.57584 -0.112511,-1.7307 0.602728,-2.32747 0.203335,-0.16964 0.234211,-0.26495 0.202777,-0.62593 -0.04046,-0.46481 -0.0387,-0.54537 0.01787,-0.82241 0.13668,-0.66928 0.408522,-1.21245 0.780036,-1.55859 0.09484,-0.0884 0.297177,-0.2797 0.449564,-0.42516 0.152356,-0.14546 0.33937,-0.31649 0.415496,-0.38009 0.08135,-0.068 0.199795,-0.20708 0.287386,-0.33758 0.08194,-0.12209 0.204196,-0.29536 0.271679,-0.38505 0.121738,-0.16188 0.320003,-0.57167 2.506926,-5.18376 1.411895,-2.97756 1.679721,-3.53668 2.780895,-5.80662 1.259435,-2.59601 2.151138,-4.6294 2.284737,-5.21017 0.392125,-1.70403 -0.618044,-3.1718 -2.223611,-3.23091 -0.700796,-0.0258 -2.163321,1.11704 -1.563966,1.22211 0.260386,0.0456 0.262326,0.13149 0.01327,0.58382 -0.228757,0.4153 -0.48825,1.06946 -0.576069,1.45399 -0.242675,1.05781 -0.582929,0.84974 -0.7431,-0.45442 -0.0272,-0.22148 -0.07706,-0.52681 -0.110813,-0.67853 -0.06263,-0.2816 -0.174819,-1.13414 -0.154547,-1.17449 0.0062,-0.0123 0.03247,-0.0358 0.05861,-0.0521 z m -3.936577,21.76748 c -0.0061,0.0871 -0.02077,0.21846 -0.03236,0.29178 -0.06396,0.40236 0.05737,0.67306 0.273929,0.61121 0.123478,-0.0353 0.153605,-0.16835 0.106002,-0.4686 -0.07283,-0.45961 0.08041,-0.67373 0.394591,-0.55119 0.191922,0.0748 0.268233,0.0535 0.240255,-0.0672 -0.0397,-0.17133 0.103424,-0.23594 0.338018,-0.15333 0.327596,0.11539 0.442174,0.37338 0.30386,0.68431 -0.07747,0.17315 -0.08139,0.30479 -0.01103,0.33808 0.336488,0.15913 0.493995,-0.7388 0.198975,-1.13424 -0.429999,-0.57633 -1.763188,-0.24589 -1.812243,0.44922 z m -1.081032,2.37726 c 0.03547,0.088 0.305222,0.39664 0.363852,0.41626 0.134032,0.0449 0.204279,-0.10229 0.124812,-0.26207 -0.179548,-0.36216 -0.630114,-0.50436 -0.488952,-0.15428 z m 0.353331,-0.56548 c 0.0087,0.43352 0.72241,0.75875 0.846206,0.38552 0.207617,-0.62622 -0.333926,-0.99629 -0.782209,-0.53454 -0.06508,0.067 -0.06565,0.0683 -0.06445,0.14887 z m -0.438382,1.13651 c 0.08038,0.17952 0.258443,0.27979 0.366555,0.20626 0.132045,-0.0898 -0.134798,-0.4459 -0.298902,-0.39905 -0.09914,0.0283 -0.117514,0.0811 -0.06753,0.19278 z m 0.18366,0.55895 c 0.06212,0.0734 0.37191,0.17943 0.439873,0.15044 0.120211,-0.0515 0.05433,-0.1582 -0.157401,-0.2549 -0.215158,-0.0983 -0.396628,-0.031 -0.282585,0.10468 z m 0.08516,0.49873 c 0.0056,0.0319 0.03089,0.0649 0.05597,0.0733 0.04491,0.0146 0.225714,0.12293 0.432183,0.25781 0.117125,0.0764 0.135473,0.077 0.168511,0.005 0.02636,-0.0575 -0.04531,-0.15106 -0.192155,-0.25091 -0.05417,-0.0369 -0.149186,-0.11165 -0.210976,-0.16622 -0.179331,-0.15827 -0.289941,-0.12292 -0.253491,0.081 z m 2.79587,-5.77613 c -0.106613,0.29324 -0.09083,0.40708 0.06374,0.45891 0.224647,0.0753 0.304065,-0.0287 0.729117,-0.95512 0.198261,-0.43202 0.521425,-1.10486 0.718196,-1.49517 0.196857,-0.39029 0.737148,-1.5244 1.200773,-2.52019 0.463877,-0.99572 0.85634,-1.8233 0.872786,-1.83884 0.01653,-0.0156 0.282781,-0.54655 0.592,-1.17996 0.309053,-0.63346 0.705202,-1.44257 0.880182,-1.79807 0.174985,-0.35551 0.362658,-0.74056 0.417117,-0.85568 0.0538,-0.11535 0.480326,-1.01765 0.946555,-2.00556 1.089712,-2.3095 2.056607,-4.30314 2.177551,-4.49009 0.05225,-0.0807 0.187875,-0.28132 0.301412,-0.44568 0.269481,-0.39013 0.250696,-0.56344 -0.04519,-0.41928 -0.498006,0.24247 -0.933054,1.02699 -3.010444,5.4287 -0.405972,0.86014 -0.74511,1.56807 -0.753663,1.57316 -0.0089,0.005 -0.303494,0.61885 -0.655409,1.36392 -0.351918,0.74507 -0.659019,1.38268 -0.682525,1.41693 -0.08439,0.12332 -0.795092,1.61467 -1.704505,3.57658 -0.959868,2.07077 -1.526185,3.21995 -1.791876,3.63663 -0.08479,0.13303 -0.159617,0.263 -0.166199,0.28887 -0.0062,0.0259 -0.04683,0.14287 -0.0894,0.26 z m -2.744002,6.3012 0.01092,0.11217 0.232696,0.0778 c 0.473651,0.15824 0.547148,0.0567 0.142214,-0.19648 -0.355662,-0.22235 -0.408196,-0.22144 -0.385891,0.007 z m 0.870757,-1.6723 c 0.199438,0.35153 1.04749,-0.30772 1.204192,-0.93607 0.02529,-0.10121 0.06208,-0.21927 0.08198,-0.26229 0.06919,-0.15011 0.107619,-0.68273 0.05658,-0.78433 -0.161568,-0.3216 -0.397844,-0.12035 -0.399731,0.34051 -10e-4,0.25356 -0.0103,0.30448 -0.07179,0.39503 -0.03882,0.0572 -0.149885,0.2689 -0.246795,0.4705 -0.220005,0.45784 -0.247473,0.49353 -0.444072,0.57832 -0.163378,0.0705 -0.218518,0.13109 -0.18035,0.19833 z m -0.771658,2.26472 c 0.06526,0.23544 0.332702,0.37213 0.4077,0.20845 0.01379,-0.03 0.03841,-0.05 0.05489,-0.0445 0.05141,0.0172 0.04243,-0.0967 -0.01508,-0.19013 -0.07649,-0.12425 -0.535079,-0.28633 -0.504417,-0.17828 0.0048,0.0173 0.03051,0.10931 0.05689,0.20448 z"
         id="path3346"
         inkscape:connector-curvature="0" />
      <rect
         style="color:#000000;clip-rule:nonzero;display:inline;overflow:visible;visibility:visible;opacity:1;isolation:auto;mix-blend-mode:normal;color-interpolation:sRGB;color-interpolation-filters:linearRGB;solid-color:#000000;solid-opacity:1;fill:#5ea000;fill-opacity:1;fill-rule:evenodd;stroke:none;stroke-width:0.52701503;stroke-linecap:butt;stroke-linejoin:miter;stroke-miterlimit:4;stroke-dasharray:none;stroke-dashoffset:0;stroke-opacity:1;color-rendering:auto;image-rendering:auto;shape-rendering:auto;text-rendering:auto;enable-background:accumulate"
         id="rect5112"
         width="2.3697226"
         height="3.5728612"
         x="28.057362"
         y="158.95265" />
    </g>
  </g>
</svg>
